<svg width="283" height="260" viewBox="0 0 283 260" fill="none" xmlns="http://www.w3.org/2000/svg">
<path d="M261.925 146.598C254.937 141.437 245.948 139.646 239.35 133.912C232.512 127.97 232.921 119.695 235.154 111.676C237.501 103.24 241.387 95.3205 243.245 86.7345C244.813 79.5175 244.716 72.0345 243.225 64.8205C240.43 51.2665 231.598 39.4355 220.771 31.1395C198.6 14.1505 165.854 10.5245 143.893 29.7675C135.279 37.3155 127.483 45.8245 119.164 53.6945C115.499 57.1645 111.686 60.4315 108.22 64.1025C104.804 67.7155 101.427 71.3555 97.8172 74.7775C94.5732 77.8555 91.0952 80.6335 87.0962 82.6635C82.6162 84.9385 77.8042 83.3325 73.4252 81.6535C69.1192 80.0025 65.0092 77.9825 60.4642 77.0375C55.3322 75.9725 50.0262 76.1875 44.9092 77.1425C26.1262 80.6515 10.6732 95.7585 3.97122 113.153C-3.00478 131.255 0.76122 152.222 11.5082 168.008C15.6692 174.118 20.9542 178.849 27.0382 182.972C33.3092 187.217 40.0342 190.733 45.4522 196.119C49.2472 199.891 53.2042 205.388 53.2432 210.966C53.2692 215.034 50.0612 218.304 47.2972 220.877C39.9752 227.691 30.7952 232.628 26.2032 241.932C23.3522 247.703 23.5032 253.926 25.7992 259.247H232.403C232.667 259.019 232.929 258.794 233.186 258.567C236.548 255.595 239.356 252.318 240.852 248.035C244.012 238.971 237.93 229.311 242.34 220.302C245.264 214.323 251.561 210.792 256.849 207.192C262.589 203.282 268.042 198.822 270.999 192.372C274.426 184.902 274.262 175.511 273.165 167.546C272.02 159.268 268.821 151.692 261.925 146.598Z" fill="#95C7C8"/>
<path d="M29.4523 61.6695C33.8543 65.1435 40.9343 63.3545 43.5573 58.4125C45.6493 54.4795 43.8863 49.6055 40.1203 47.4415C38.6943 46.6205 37.1003 46.3555 35.5463 46.5795C33.6483 46.0105 31.5893 46.0915 29.8153 47.0755C27.1033 48.5815 26.4993 51.4135 26.5603 54.2355C26.5223 54.5315 26.4893 54.8305 26.4773 55.1415C26.3863 57.5235 27.5813 60.1935 29.4523 61.6695Z" fill="#95C7C8"/>
<path d="M281.307 83.9115C280.56 82.2595 278.999 81.2575 277.358 80.6675C276.376 80.3145 274.95 80.1865 273.932 80.4655C273.632 80.5485 273.369 80.6625 273.127 80.8035C272.717 80.8785 272.309 81.0055 271.927 81.2155C267.845 83.4545 266.287 89.2665 269.895 92.6735C272.72 95.3415 276.93 95.5775 279.728 92.7695C282.045 90.4455 282.637 86.8615 281.307 83.9115Z" fill="#95C7C8"/>
<path d="M79.0282 70.6285C80.5752 70.4215 97.2742 61.2165 102.512 36.1805C104.167 28.2585 104.335 14.4855 93.8212 12.5785C87.5652 11.4455 81.4392 14.9075 76.8952 18.8675C70.4522 24.4785 66.6552 33.1885 64.9292 41.3875C62.8212 51.4015 64.1372 72.6165 79.0282 70.6285Z" fill="#95C7C8"/>
<path d="M38.3823 33.4185C39.6863 34.4375 41.1203 35.2855 42.6163 35.9015C49.1113 38.5855 54.7233 35.5365 57.8903 29.6485C63.7513 18.7495 59.3693 2.80947 46.3193 0.320466C25.5303 -3.64553 20.7533 30.4535 38.3823 33.4185Z" fill="#95C7C8"/>
<path d="M252.473 98.2625C248.722 100.251 246.05 103.979 244.995 108.054C239.185 116.073 249.667 126.169 257.797 128.425C268.618 131.425 276.376 119.199 275.733 109.768C274.932 98.0205 262.094 93.1575 252.473 98.2625Z" fill="#95C7C8"/>
<path d="M259.85 84.1055C267.85 82.8675 271.365 72.9975 269.491 66.0215C268.09 60.8105 262.418 57.4295 257.262 59.6005C255.079 60.5215 249.862 65.3385 249.835 67.2095C249.782 70.7755 249.268 74.2935 250.163 77.8095C251.239 82.0475 255.619 84.7595 259.85 84.1055Z" fill="#95C7C8"/>
<path d="M40.2672 207.772C38.8982 201.345 32.1082 197.163 26.5542 194.838C25.2002 194.271 20.1182 192.48 18.9172 192.058C13.3282 190.087 4.81524 189.972 1.15924 195.434C-1.77176 199.81 1.46824 205.848 4.10924 209.454C7.26624 213.758 11.4932 217.923 16.5982 219.754C26.2472 223.216 43.2962 222.006 40.2672 207.772Z" fill="#95C7C8"/>
<path d="M192.643 259.189L190.314 239.006L188.426 224.072L188.417 222.566H188.405V223.04C188.405 229.056 183.53 233.933 177.516 233.933C171.497 233.933 166.622 229.056 166.622 223.04V222.566H166.609L166.597 224.072L164.712 239.006L162.381 259.189H192.643Z" fill="#363259"/>
<path d="M215.958 259.189H236.65C236.001 246.996 232.982 236.437 226.23 229.832C221.387 225.693 215.902 223.374 209.841 222.748C208.705 222.646 207.548 222.566 206.327 222.566H201.127L215.492 255.788C215.583 256.584 215.743 257.749 215.958 259.189Z" fill="#4A4986"/>
<path d="M215.064 256.166C215.141 256.749 215.298 257.857 215.489 259.189H215.958C215.743 257.749 215.583 256.584 215.492 255.788L201.127 222.566H200.705L215.016 255.788C215.028 255.89 215.05 256.051 215.064 256.166Z" fill="#4A4986"/>
<path d="M188.426 224.072L190.314 239.006L188.417 222.566L188.426 224.072Z" fill="#434074"/>
<path d="M215.474 259.189C215.259 257.746 215.099 256.581 215.016 255.788L200.705 222.566H199.38L206.061 259.189H215.474Z" fill="#434074"/>
<path d="M199.38 222.566L199.333 222.326C198.081 221.702 188.405 220.895 188.405 220.895L188.417 222.566H199.38Z" fill="#454F96"/>
<path d="M192.861 259.189L190.314 239.006L192.643 259.189H192.861Z" fill="#454F96"/>
<path d="M192.861 259.189H206.061L199.38 222.566H188.417L190.314 239.006L192.861 259.189Z" fill="#454F96"/>
<path d="M139.511 259.189C139.729 257.746 139.886 256.581 139.973 255.788L154.286 222.566H148.703C147.475 222.566 146.321 222.646 145.182 222.748C139.124 223.374 133.638 225.693 128.796 229.832C122.042 236.437 119.022 246.996 118.382 259.189H139.511Z" fill="#4A4986"/>
<path d="M139.534 259.189C139.729 257.857 139.886 256.749 139.962 256.166C139.977 256.051 140.001 255.89 140.01 255.788L154.321 222.566H154.286L139.973 255.788C139.886 256.581 139.729 257.746 139.511 259.189H139.534Z" fill="#4A4986"/>
<path d="M166.597 224.072L166.609 222.566L164.712 239.006L166.597 224.072Z" fill="#434074"/>
<path d="M148.963 259.189L155.649 222.566H154.321L140.01 255.788C139.921 256.581 139.764 257.746 139.55 259.189H148.963Z" fill="#434074"/>
<path d="M166.622 220.895C166.622 220.895 156.945 221.702 155.694 222.326L155.649 222.566H166.609L166.622 220.895Z" fill="#454F96"/>
<path d="M162.381 259.189L164.712 239.006L162.165 259.189H162.381Z" fill="#454F96"/>
<path d="M162.165 259.189L164.712 239.006L166.609 222.566H155.649L148.963 259.189H162.165Z" fill="#454F96"/>
<path d="M210.425 124.227C209.912 124.384 209.366 124.505 208.832 124.645C209.362 124.503 209.912 124.384 210.425 124.227Z" fill="#E8B960"/>
<path d="M213.694 123.066V123.065L213.526 123.124L213.694 123.066Z" fill="#E8B960"/>
<path d="M164.783 145.805C163.585 145.71 159.642 144.43 155.585 146.33C154.378 146.897 152.264 144.418 153.59 143.692C158.628 140.923 163.039 141.877 165.237 142.532C166.857 143.019 165.993 145.899 164.783 145.805ZM159.645 155.912C157.946 155.912 156.57 154.535 156.57 152.834C156.57 151.134 157.946 149.759 159.645 149.759C161.35 149.759 162.718 151.134 162.718 152.834C162.718 154.535 161.35 155.912 159.645 155.912ZM160.177 165.691C158.768 167.6 156.431 167.828 154.236 167.808C152.391 167.789 150.282 167.473 150.043 165.264C149.839 163.41 150.237 161.312 152.286 160.777C153.637 160.423 155.118 160.424 156.509 160.701C157.565 160.738 158.689 161.209 159.51 161.92C159.757 162.121 159.985 162.348 160.149 162.609C160.8 163.511 160.968 164.617 160.177 165.691ZM167.657 176.481H171.204H182.893H186.442H187.354C187.065 179.049 185.844 181.333 184.047 182.993C183.129 183.838 182.067 184.518 180.886 184.992L180.874 184.998C180.624 185.097 180.358 185.151 180.101 185.229C179.93 185.284 179.762 185.334 179.591 185.379C179.461 185.412 179.337 185.461 179.207 185.489L179.021 185.544C178.384 185.669 177.725 185.733 177.05 185.733C176.374 185.733 175.716 185.669 175.079 185.544L174.831 185.472C174.719 185.448 174.618 185.407 174.512 185.379C174.332 185.334 174.164 185.284 173.993 185.229C173.736 185.15 173.471 185.097 173.225 184.998L173.19 184.982C172.697 184.781 172.221 184.536 171.764 184.263L171.756 184.259C169.038 182.628 167.123 179.792 166.751 176.481H167.657ZM173.101 143.479C173.512 137.375 183.002 140.322 181.86 144.067C181.107 146.54 180.757 151.057 183.002 161.126C185.245 171.192 181.276 172.85 175.569 171.398C169.864 169.945 171.481 166.441 173.704 157.843C176.147 148.381 173.101 143.479 173.101 143.479ZM190.345 142.532C192.534 141.877 196.954 140.923 201.991 143.692C203.313 144.418 201.204 146.897 199.987 146.33C195.932 144.43 191.999 145.71 190.79 145.805C189.589 145.899 188.723 143.019 190.345 142.532ZM204.878 165.264C204.638 167.473 202.532 167.789 200.684 167.808C198.491 167.828 196.155 167.6 194.744 165.691C193.956 164.617 194.122 163.511 194.776 162.609C194.938 162.348 195.163 162.121 195.411 161.92C196.231 161.209 197.358 160.738 198.415 160.701C199.804 160.424 201.286 160.423 202.635 160.777C204.685 161.312 205.084 163.41 204.878 165.264ZM192.858 152.834C192.858 151.134 194.239 149.759 195.936 149.759C197.636 149.759 199.009 151.134 199.009 152.834C199.009 154.535 197.636 155.912 195.936 155.912C194.239 155.912 192.858 154.535 192.858 152.834ZM171.351 202.59C171.738 202.646 172.125 202.696 172.517 202.742C174.158 202.931 175.816 203.062 177.516 203.062C179.213 203.062 180.874 202.931 182.509 202.742C182.901 202.698 183.288 202.646 183.675 202.592C185.283 202.361 186.874 202.074 188.405 201.672C203.485 197.733 214.45 185.828 214.45 171.748V161.132V155.207C215.155 155.548 215.929 155.756 216.725 155.892V155.896C217.165 155.971 217.604 156.056 218.071 156.056C222.739 156.056 226.52 152.276 226.52 147.612C226.52 143.617 223.734 140.291 220.011 139.41V139.413C219.384 139.264 218.744 139.167 218.071 139.167C217.56 139.167 217.077 139.252 216.596 139.344C216.253 139.419 215.914 139.502 215.583 139.611L215.206 140.015C215.206 140.015 209.18 145.104 209.369 158.737C209.369 158.737 205.011 150.091 206.887 134.457C207.3 130.998 207.076 127.941 206.432 125.256C190.022 128.695 167.999 125.063 155.351 114.965C155.351 114.965 147.413 117.759 147.853 134.457C148.266 150.194 145.372 158.737 145.372 158.737C145.56 145.104 140.582 140.016 140.582 140.016C139.478 139.487 138.257 139.167 136.95 139.167C136.28 139.167 135.639 139.264 135.016 139.41C131.286 140.286 128.507 143.617 128.507 147.612C128.507 152.276 132.284 156.056 136.95 156.056C137.416 156.056 137.858 155.971 138.302 155.896V155.892C139.097 155.756 139.874 155.548 140.582 155.207V161.135V171.748C140.582 185.828 151.539 197.733 166.622 201.672C168.153 202.074 169.741 202.361 171.351 202.59Z" fill="#E8B960"/>
<path d="M177.516 93.6425C195.348 93.6425 210.239 104.45 213.694 123.18C213.792 123.138 213.898 123.106 213.996 123.065C216.264 122.122 218.325 120.993 220.125 119.684C221.612 118.601 222.975 117.436 224.053 116.093H221.329C221.329 116.093 225.868 114.095 228.771 108.108H226.52C226.52 108.108 229.682 105.568 232.401 99.7585C232.401 99.7585 228.409 101.212 224.782 101.756C224.782 101.756 228.954 99.5785 230.044 96.3135C230.044 96.3135 223.854 95.7465 220.379 93.6425C220.379 93.6425 223.147 92.8635 224.596 91.2325C224.596 91.2325 218.906 88.9305 211.55 85.3405C211.027 84.7965 208.354 83.1465 208.137 82.9205C208.137 82.9205 211.534 84.0495 215.345 82.9205C215.345 82.9205 211.921 81.4405 207.022 76.5405C202.118 71.6385 188.679 65.6425 177.511 68.1835C177.511 68.1835 180.313 66.0045 181.046 63.8275C181.046 63.8275 147.074 66.7085 141.128 94.7865L149.113 106.179C155.888 98.0785 166.091 93.6425 177.516 93.6425Z" fill="#4A4986"/>
<path d="M211.129 124.214C212.224 123.882 213.267 123.501 214.279 123.093L214.45 123.033C210.94 104.008 195.815 93.0295 177.701 93.0295C166.096 93.0295 155.732 97.5355 148.85 105.764L155.186 114.806C168.034 125.063 190.404 128.752 207.073 125.259C207.913 125.083 208.705 124.853 209.511 124.638C210.054 124.496 210.608 124.373 211.129 124.214Z" fill="#4A4986"/>
<path d="M138.302 155.896C138.947 157.703 139.706 159.456 140.582 161.135V155.207C139.874 155.549 139.097 155.757 138.302 155.896Z" fill="#3A355C"/>
<path d="M138.302 155.892V155.896C139.097 155.757 139.874 155.549 140.582 155.207C139.874 155.548 139.097 155.756 138.302 155.892Z" fill="#3A355C"/>
<path d="M214.45 161.132C215.323 159.453 216.083 157.703 216.725 155.896C215.929 155.757 215.161 155.549 214.45 155.207V161.132Z" fill="#3A355C"/>
<path d="M214.45 155.207C215.161 155.549 215.929 155.757 216.725 155.896V155.892C215.929 155.756 215.155 155.548 214.45 155.207Z" fill="#3A355C"/>
<path d="M213.647 123.054C214.141 125.74 214.403 128.586 214.403 131.59V140.003C215.076 139.683 215.799 139.475 216.549 139.332C217.026 139.23 217.513 139.155 218.024 139.155C218.697 139.155 219.337 139.252 219.964 139.398C220.507 132.683 220.346 125.871 220.087 119.553L220.081 119.557C218.278 120.869 216.236 122.004 213.949 122.938C213.851 122.979 213.745 123.014 213.647 123.054Z" fill="#3A355C"/>
<path d="M220.011 139.413V139.41C219.384 139.264 218.744 139.167 218.071 139.167C218.744 139.167 219.384 139.264 220.011 139.413Z" fill="#3A355C"/>
<path d="M214.57 131.482C214.57 128.478 214.308 125.632 213.814 122.946L213.646 123.004C212.646 123.399 211.629 123.783 210.545 124.107C210.032 124.264 209.482 124.383 208.952 124.525C208.155 124.733 207.379 124.963 206.552 125.136C207.196 127.821 207.42 130.878 207.007 134.337C205.131 149.971 209.489 158.617 209.489 158.617C209.3 144.984 215.326 139.895 215.326 139.895L215.703 139.491C216.034 139.382 216.373 139.299 216.716 139.224C215.966 139.367 215.243 139.575 214.57 139.895V131.482Z" fill="#3A355C"/>
<path d="M220.125 119.569C218.325 120.878 216.264 122.007 213.996 122.95C216.283 122.016 218.325 120.881 220.125 119.569Z" fill="#3A355C"/>
<path d="M206.432 125.256C207.259 125.083 208.035 124.853 208.832 124.645C208.038 124.856 207.259 125.083 206.432 125.256Z" fill="#3A355C"/>
<path d="M213.526 123.124C212.529 123.525 211.503 123.9 210.425 124.227C211.509 123.903 212.526 123.519 213.526 123.124Z" fill="#3A355C"/>
<path d="M140.769 140.203V131.789C140.769 121.251 143.974 112.619 149.3 106.251L141.315 94.8585C136.567 97.0895 135.611 103.488 135.611 104.898C135.611 114.133 134.192 127.067 135.203 139.597C135.826 139.451 136.467 139.354 137.137 139.354C138.444 139.354 139.665 139.674 140.769 140.203Z" fill="#3A355C"/>
<path d="M136.95 139.167C136.28 139.167 135.639 139.264 135.016 139.41C135.639 139.264 136.28 139.167 136.95 139.167Z" fill="#3A355C"/>
<path d="M140.582 131.602V140.016C140.582 140.016 145.56 145.104 145.372 158.737C145.372 158.737 148.266 150.194 147.853 134.457C147.413 117.759 155.351 114.965 155.351 114.965L149.113 106.064C143.787 112.432 140.582 121.064 140.582 131.602Z" fill="#3A355C"/>
<path d="M165.237 142.532C163.039 141.877 158.628 140.923 153.59 143.692C152.264 144.418 154.378 146.897 155.585 146.33C159.642 144.43 163.585 145.71 164.783 145.805C165.993 145.899 166.857 143.019 165.237 142.532Z" fill="#515082"/>
<path d="M190.79 145.805C191.999 145.71 195.932 144.43 199.987 146.33C201.204 146.897 203.313 144.418 201.991 143.692C196.954 140.923 192.534 141.877 190.345 142.532C188.723 143.019 189.589 145.899 190.79 145.805Z" fill="#515082"/>
<path d="M159.645 153.957C159.079 153.957 158.653 153.52 158.574 152.975L158.444 153.029C157.862 153.029 157.39 152.558 157.39 151.967C157.39 151.379 157.862 150.904 158.444 150.904C158.97 150.904 159.35 151.304 159.438 151.8L159.645 151.716C160.262 151.716 160.763 152.214 160.763 152.836C160.763 153.457 160.262 153.957 159.645 153.957ZM157.536 153.888C157.325 153.888 157.151 153.714 157.151 153.501C157.151 153.288 157.325 153.114 157.536 153.114C157.748 153.114 157.922 153.288 157.922 153.501C157.922 153.714 157.748 153.888 157.536 153.888ZM159.645 149.759C157.946 149.759 156.57 151.134 156.57 152.834C156.57 154.535 157.946 155.912 159.645 155.912C161.35 155.912 162.718 154.535 162.718 152.834C162.718 151.134 161.35 149.759 159.645 149.759Z" fill="#515082"/>
<path d="M159.645 151.716L159.438 151.8L159.507 151.967C159.507 152.505 159.094 152.902 158.574 152.975C158.653 153.52 159.079 153.957 159.645 153.957C160.262 153.957 160.763 153.457 160.763 152.836C160.763 152.214 160.262 151.716 159.645 151.716Z" fill="#2A2739"/>
<path d="M159.438 151.8C159.35 151.304 158.97 150.904 158.444 150.904C157.862 150.904 157.39 151.379 157.39 151.967C157.39 152.558 157.862 153.029 158.444 153.029L158.574 152.975L158.52 152.836C158.52 152.296 158.93 151.908 159.438 151.8Z" fill="#FEFEFE"/>
<path d="M159.507 151.967L159.438 151.8C158.93 151.908 158.52 152.296 158.52 152.836L158.574 152.975C159.094 152.902 159.507 152.505 159.507 151.967Z" fill="#FEFEFE"/>
<path d="M157.536 153.114C157.325 153.114 157.151 153.288 157.151 153.501C157.151 153.714 157.325 153.888 157.536 153.888C157.748 153.888 157.922 153.714 157.922 153.501C157.922 153.288 157.748 153.114 157.536 153.114Z" fill="#FEFEFE"/>
<path d="M194.864 152.975L194.735 153.029C194.153 153.029 193.679 152.558 193.679 151.967C193.679 151.379 194.153 150.904 194.735 150.904C195.257 150.904 195.641 151.304 195.729 151.8L195.93 151.716C196.55 151.716 197.052 152.214 197.052 152.836C197.052 153.457 196.55 153.957 195.93 153.957C195.364 153.957 194.942 153.52 194.864 152.975ZM193.826 153.888C193.614 153.888 193.439 153.714 193.439 153.501C193.439 153.288 193.614 153.114 193.826 153.114C194.036 153.114 194.216 153.288 194.216 153.501C194.216 153.714 194.036 153.888 193.826 153.888ZM199.009 152.834C199.009 151.134 197.636 149.759 195.936 149.759C194.239 149.759 192.858 151.134 192.858 152.834C192.858 154.535 194.239 155.912 195.936 155.912C197.636 155.912 199.009 154.535 199.009 152.834Z" fill="#515082"/>
<path d="M197.052 152.836C197.052 152.214 196.55 151.716 195.93 151.716L195.729 151.8L195.794 151.967C195.794 152.505 195.382 152.902 194.864 152.975C194.942 153.52 195.364 153.957 195.93 153.957C196.55 153.957 197.052 153.457 197.052 152.836Z" fill="#2A2739"/>
<path d="M195.729 151.8C195.641 151.304 195.257 150.904 194.735 150.904C194.153 150.904 193.679 151.379 193.679 151.967C193.679 152.558 194.153 153.029 194.735 153.029L194.864 152.975L194.809 152.836C194.809 152.296 195.22 151.906 195.729 151.8Z" fill="#FEFEFE"/>
<path d="M195.794 151.967L195.729 151.8C195.22 151.906 194.809 152.296 194.809 152.836L194.864 152.975C195.382 152.902 195.794 152.505 195.794 151.967Z" fill="#FEFEFE"/>
<path d="M193.826 153.114C193.614 153.114 193.439 153.288 193.439 153.501C193.439 153.714 193.614 153.888 193.826 153.888C194.036 153.888 194.216 153.714 194.216 153.501C194.216 153.288 194.036 153.114 193.826 153.114Z" fill="#FEFEFE"/>
<path d="M156.662 162.835C156.856 163.549 157.052 164.26 157.252 164.976C157.052 164.26 156.856 163.549 156.662 162.835ZM155.239 162.706C155.366 163.614 155.366 164.586 155.496 165.494C155.366 164.586 155.366 163.614 155.239 162.706ZM153.637 165.706C153.705 164.474 153.676 163.807 153.616 162.575C153.676 163.807 153.705 164.474 153.637 165.706ZM151.997 165.039C152.251 164.133 152.251 163.224 152.315 162.315C152.251 163.224 152.251 164.133 151.997 165.039ZM159.51 161.92C158.689 161.209 157.565 160.738 156.509 160.701C155.118 160.424 153.637 160.423 152.286 160.777C150.237 161.312 149.839 163.41 150.043 165.264C150.282 167.473 152.391 167.789 154.236 167.808C156.431 167.828 158.768 167.6 160.177 165.691C160.968 164.617 160.8 163.511 160.149 162.609C159.985 162.348 159.757 162.121 159.51 161.92Z" fill="#E27A76"/>
<path d="M201.307 162.575C201.248 163.807 201.218 164.474 201.286 165.706C201.218 164.474 201.248 163.807 201.307 162.575ZM202.927 165.039C202.677 164.133 202.677 163.224 202.605 162.315C202.677 163.224 202.677 164.133 202.927 165.039ZM199.427 165.494C199.557 164.586 199.557 163.614 199.684 162.706C199.557 163.614 199.557 164.586 199.427 165.494ZM197.671 164.976C197.872 164.26 198.067 163.549 198.259 162.835C198.067 163.549 197.872 164.26 197.671 164.976ZM198.415 160.701C197.358 160.738 196.231 161.209 195.411 161.92C195.163 162.121 194.938 162.348 194.776 162.609C194.122 163.511 193.956 164.617 194.744 165.691C196.155 167.6 198.491 167.828 200.684 167.808C202.532 167.789 204.638 167.473 204.878 165.264C205.084 163.41 204.685 161.312 202.635 160.777C201.286 160.423 199.804 160.424 198.415 160.701Z" fill="#E27A76"/>
<path d="M179.207 185.489C179.337 185.461 179.461 185.412 179.591 185.379L179.576 185.38C179.452 185.412 179.334 185.463 179.207 185.489Z" fill="#6E582E"/>
<path d="M177.05 185.733C176.374 185.733 175.716 185.669 175.079 185.544C175.716 185.669 176.374 185.733 177.05 185.733Z" fill="#6E582E"/>
<path d="M171.764 184.263C172.221 184.536 172.697 184.781 173.19 184.982C172.751 184.803 172.337 184.572 171.93 184.332L171.764 184.263Z" fill="#6E582E"/>
<path d="M179.021 185.544C178.384 185.669 177.725 185.733 177.05 185.733C177.725 185.733 178.384 185.669 179.021 185.544Z" fill="#6E582E"/>
<path d="M173.225 184.998C173.471 185.097 173.736 185.15 173.993 185.229L173.964 185.215C173.718 185.138 173.459 185.093 173.225 184.998Z" fill="#6E582E"/>
<path d="M174.512 185.379C174.618 185.407 174.719 185.448 174.831 185.472C174.721 185.451 174.628 185.407 174.518 185.38L174.512 185.379Z" fill="#6E582E"/>
<path d="M185.563 178.991C185.089 179.124 184.598 179.177 184.118 179.288C184.241 179.808 184.391 180.321 184.391 180.881C184.391 181.62 184.251 182.32 184.047 182.993C185.844 181.333 187.065 179.049 187.354 176.481H186.442C186.442 176.936 186.442 177.39 186.442 177.845C186.436 178.342 186.055 178.851 185.563 178.991Z" fill="#6E582E"/>
<path d="M171.756 184.259L171.764 184.25C171.154 183.883 170.573 183.471 170.05 182.988C169.849 182.317 169.708 181.62 169.708 180.881C169.708 180.321 169.855 179.808 169.979 179.288C169.499 179.177 169.012 179.124 168.534 178.991C168.035 178.851 167.654 178.333 167.657 177.845C167.657 177.39 167.657 176.936 167.657 176.481H166.751C167.123 179.792 169.038 182.628 171.756 184.259Z" fill="#6E582E"/>
<path d="M180.101 185.229C180.358 185.151 180.624 185.097 180.874 184.998C180.636 185.094 180.376 185.141 180.131 185.218L180.101 185.229Z" fill="#6E582E"/>
<path d="M182.341 184.259L182.193 184.324C181.771 184.569 181.346 184.807 180.886 184.992C182.067 184.518 183.129 183.838 184.047 182.993C183.527 183.473 182.946 183.884 182.335 184.253L182.341 184.259Z" fill="#6E582E"/>
<path d="M177.05 185.733C177.725 185.733 178.384 185.669 179.021 185.544L179.207 185.489C179.334 185.463 179.452 185.412 179.576 185.38C178.767 185.59 177.927 185.733 177.05 185.733Z" fill="#4B3D25"/>
<path d="M180.131 185.218C180.376 185.141 180.636 185.094 180.874 184.998L180.886 184.992C181.346 184.807 181.771 184.569 182.193 184.324C181.548 184.697 180.856 184.988 180.131 185.218Z" fill="#4B3D25"/>
<path d="M174.831 185.472L175.079 185.544C175.716 185.669 176.374 185.733 177.05 185.733C176.171 185.733 175.329 185.59 174.518 185.38C174.628 185.407 174.721 185.451 174.831 185.472Z" fill="#4B3D25"/>
<path d="M184.118 179.288C179.461 180.346 174.639 180.346 169.979 179.288C169.855 179.808 169.708 180.321 169.708 180.881C169.708 181.62 169.849 182.317 170.05 182.988C170.573 183.471 171.154 183.883 171.764 184.25C172.529 182.709 174.034 182.665 177.05 182.665C180.065 182.665 181.573 182.706 182.335 184.253C182.946 183.884 183.527 183.473 184.047 182.993C184.251 182.32 184.391 181.62 184.391 180.881C184.391 180.321 184.241 179.808 184.118 179.288Z" fill="#4B3D25"/>
<path d="M171.93 184.332C172.337 184.572 172.751 184.803 173.19 184.982L173.225 184.998C173.459 185.093 173.718 185.138 173.964 185.215C173.253 184.988 172.567 184.702 171.93 184.332Z" fill="#4B3D25"/>
<path d="M180.101 185.229C179.932 185.284 179.762 185.334 179.591 185.379C179.762 185.334 179.93 185.284 180.101 185.229Z" fill="#E27A76"/>
<path d="M174.512 185.379C174.335 185.334 174.164 185.283 173.993 185.229C174.164 185.284 174.332 185.334 174.512 185.379Z" fill="#E27A76"/>
<path d="M171.764 184.25L171.756 184.259L171.764 184.263L171.93 184.332L171.764 184.25Z" fill="#E27A76"/>
<path d="M173.964 185.215L173.993 185.229C174.164 185.283 174.335 185.334 174.512 185.379L174.518 185.38C174.332 185.333 174.146 185.274 173.964 185.215Z" fill="#E27A76"/>
<path d="M182.341 184.259L182.339 184.253L182.193 184.324L182.341 184.259Z" fill="#E27A76"/>
<path d="M179.576 185.38L179.591 185.379C179.762 185.334 179.932 185.284 180.101 185.229L180.131 185.218C179.95 185.274 179.764 185.333 179.576 185.38Z" fill="#E27A76"/>
<path d="M180.131 185.218C180.856 184.988 181.548 184.697 182.193 184.324L182.335 184.253C181.573 182.706 180.065 182.665 177.05 182.665C174.034 182.665 172.529 182.709 171.764 184.25L171.93 184.332C172.567 184.702 173.253 184.988 173.964 185.215C174.146 185.274 174.332 185.333 174.518 185.38C175.329 185.59 176.171 185.733 177.05 185.733C177.927 185.733 178.767 185.59 179.576 185.38C179.764 185.333 179.95 185.274 180.131 185.218Z" fill="#E27A76"/>
<path d="M185.563 178.991C186.055 178.851 186.436 178.342 186.442 177.845C186.442 177.39 186.442 176.936 186.442 176.481H182.893C183.507 177.296 183.882 178.265 184.118 179.288C184.598 179.177 185.089 179.124 185.563 178.991Z" fill="#E0CECC"/>
<path d="M168.534 178.991C169.012 179.124 169.499 179.177 169.979 179.288C170.219 178.265 170.591 177.296 171.204 176.481H167.657C167.657 176.936 167.657 177.39 167.657 177.845C167.654 178.333 168.035 178.851 168.534 178.991Z" fill="#E0CECC"/>
<path d="M184.118 179.288C183.882 178.265 183.507 177.296 182.893 176.481H171.204C170.591 177.296 170.219 178.265 169.979 179.288C174.639 180.346 179.461 180.346 184.118 179.288Z" fill="#E0CECC"/>
<path d="M175.569 171.398C181.276 172.85 185.245 171.192 183.002 161.126C180.757 151.057 181.107 146.54 181.86 144.067C183.002 140.322 173.512 137.375 173.101 143.479C173.101 143.479 176.147 148.381 173.704 157.843C171.481 166.441 169.864 169.945 175.569 171.398Z" fill="#E27A76"/>
<path d="M188.405 222.566V220.895V201.672C186.874 202.074 185.283 202.361 183.675 202.592C183.288 202.646 182.901 202.696 182.509 202.742C180.874 202.931 179.213 203.062 177.516 203.062C175.816 203.062 174.158 202.93 172.517 202.742C172.125 202.696 171.738 202.646 171.351 202.59C169.741 202.361 168.153 202.074 166.622 201.672V220.895V222.566H188.405Z" fill="#D2A54C"/>
<path d="M166.622 223.04C166.622 229.056 171.497 233.933 177.516 233.933C183.53 233.933 188.405 229.056 188.405 223.04V222.566H166.622V223.04Z" fill="#D2A54C"/>
<path d="M166.622 201.672C168.153 202.074 169.741 202.361 171.351 202.59C169.741 202.361 168.153 202.074 166.622 201.672Z" fill="#D2A54C"/>
<path d="M182.509 202.742C180.874 202.931 179.213 203.062 177.516 203.062C179.213 203.062 180.874 202.931 182.509 202.742Z" fill="#D2A54C"/>
<path d="M183.675 202.592C185.283 202.361 186.874 202.074 188.405 201.672C186.874 202.074 185.283 202.361 183.675 202.592Z" fill="#D2A54C"/>
<path d="M177.516 203.062C175.816 203.062 174.158 202.931 172.517 202.742C174.158 202.93 175.816 203.062 177.516 203.062Z" fill="#D2A54C"/>
<path d="M130.477 167.739C129.233 167.739 128.07 168.046 127.019 168.548V160.515C127.019 137.65 111.223 124.157 91.7533 124.157C72.2703 124.157 56.4833 137.65 56.4833 160.515V168.551C55.4323 168.046 54.2643 167.739 53.0153 167.739C48.5593 167.739 44.9503 171.348 44.9503 175.805C44.9503 180.259 48.5593 183.865 53.0153 183.865C54.2643 183.865 55.4323 183.561 56.4833 183.054C56.4833 183.054 59.4523 223.178 91.7533 223.178C124.057 223.178 127.019 183.057 127.019 183.057C128.07 183.561 129.233 183.865 130.477 183.865C134.936 183.865 138.543 180.259 138.543 175.805C138.543 171.348 134.936 167.739 130.477 167.739Z" fill="#E8B960"/>
<path d="M70.5553 173.96C69.3853 174.512 67.3373 172.111 68.6173 171.404C73.5013 168.722 77.7803 169.647 79.9053 170.283C81.4743 170.754 80.6343 173.544 79.4713 173.454C78.3023 173.359 74.4833 172.119 70.5553 173.96Z" fill="#515082"/>
<path d="M113.575 173.96C114.755 174.512 116.792 172.111 115.516 171.404C110.633 168.722 106.354 169.647 104.232 170.283C102.663 170.754 103.501 173.544 104.666 173.454C105.835 173.359 109.644 172.119 113.575 173.96Z" fill="#515082"/>
<path d="M77.4682 180.263C77.4682 181.91 76.1472 183.244 74.4832 183.244C72.8462 183.244 71.5092 181.91 71.5092 180.263C71.5092 178.618 72.8462 177.284 74.4832 177.284C76.1472 177.284 77.4682 178.618 77.4682 180.263Z" fill="#515082"/>
<path d="M75.5732 180.263C75.5732 180.865 75.0892 181.35 74.4832 181.35C73.8792 181.35 73.3972 180.865 73.3972 180.263C73.3972 179.664 73.8792 179.177 74.4832 179.177C75.0892 179.177 75.5732 179.664 75.5732 180.263Z" fill="#2A2739"/>
<path d="M74.3543 179.422C74.3543 179.994 73.8963 180.453 73.3273 180.453C72.7633 180.453 72.3003 179.994 72.3003 179.422C72.3003 178.852 72.7633 178.39 73.3273 178.39C73.8963 178.39 74.3543 178.852 74.3543 179.422Z" fill="#FEFEFE"/>
<path d="M72.8192 180.91C72.8192 181.116 72.6512 181.283 72.4442 181.283C72.2412 181.283 72.0732 181.116 72.0732 180.91C72.0732 180.702 72.2412 180.536 72.4442 180.536C72.6512 180.536 72.8192 180.702 72.8192 180.91Z" fill="#FEFEFE"/>
<path d="M112.628 180.263C112.628 181.91 111.291 183.244 109.653 183.244C108.001 183.244 106.667 181.91 106.667 180.263C106.667 178.618 108.001 177.284 109.653 177.284C111.291 177.284 112.628 178.618 112.628 180.263Z" fill="#515082"/>
<path d="M110.733 180.263C110.733 180.865 110.241 181.35 109.644 181.35C109.046 181.35 108.558 180.865 108.558 180.263C108.558 179.664 109.046 179.177 109.644 179.177C110.241 179.177 110.733 179.664 110.733 180.263Z" fill="#2A2739"/>
<path d="M109.512 179.422C109.512 179.994 109.057 180.453 108.487 180.453C107.924 180.453 107.461 179.994 107.461 179.422C107.461 178.852 107.924 178.39 108.487 178.39C109.057 178.39 109.512 178.852 109.512 179.422Z" fill="#FEFEFE"/>
<path d="M107.979 180.91C107.979 181.116 107.811 181.283 107.602 181.283C107.399 181.283 107.23 181.116 107.23 180.91C107.23 180.702 107.399 180.536 107.602 180.536C107.811 180.536 107.979 180.702 107.979 180.91Z" fill="#FEFEFE"/>
<path d="M74.9762 189.736C74.8232 189.482 74.5962 189.259 74.3562 189.069C73.5652 188.38 72.4712 187.921 71.4442 187.887C70.1042 187.619 68.6712 187.616 67.3602 187.958C65.3742 188.475 64.9872 190.512 65.1822 192.303C65.4132 194.445 67.4602 194.752 69.2462 194.77C71.3762 194.791 73.6372 194.569 75.0012 192.718C75.7732 191.681 75.6022 190.608 74.9762 189.736Z" fill="#E27A76"/>
<path d="M67.3583 189.45C67.2623 190.327 67.1723 191.202 67.0283 192.074L67.1373 192.104C67.4303 191.244 67.3893 190.347 67.4213 189.45H67.3583Z" fill="#2A2739"/>
<path d="M68.5773 189.703C68.5823 190.704 68.5163 191.739 68.5963 192.735L68.7412 192.755C68.9152 191.76 68.8123 190.7 68.7103 189.703H68.5773Z" fill="#2A2739"/>
<path d="M70.1713 189.83C70.2383 190.714 70.1203 191.7 70.3763 192.554C70.4073 192.657 70.5593 192.636 70.5623 192.529C70.5853 191.644 70.4243 190.688 70.2663 189.817L70.1713 189.83Z" fill="#2A2739"/>
<path d="M71.5233 189.973C71.6763 190.663 71.7563 191.438 72.0853 192.071C72.1283 192.152 72.2683 192.117 72.2623 192.023C72.2123 191.311 71.8913 190.605 71.6723 189.932C71.6413 189.837 71.5023 189.876 71.5233 189.973Z" fill="#2A2739"/>
<path d="M108.526 189.736C108.682 189.482 108.897 189.259 109.145 189.069C109.933 188.38 111.022 187.921 112.05 187.887C113.397 187.619 114.832 187.616 116.137 187.958C118.126 188.475 118.507 190.512 118.311 192.303C118.081 194.445 116.039 194.752 114.251 194.77C112.123 194.791 109.86 194.569 108.493 192.718C107.729 191.681 107.888 190.608 108.526 189.736Z" fill="#E27A76"/>
<path d="M116.081 189.45C116.107 190.348 116.065 191.245 116.366 192.104L116.473 192.074C116.325 191.203 116.234 190.328 116.143 189.45H116.081Z" fill="#2A2739"/>
<path d="M114.79 189.703C114.689 190.701 114.583 191.761 114.761 192.755L114.905 192.735C114.98 191.738 114.92 190.704 114.923 189.703H114.79Z" fill="#2A2739"/>
<path d="M113.229 189.817C113.071 190.687 112.909 191.645 112.937 192.529C112.94 192.636 113.093 192.658 113.124 192.554C113.375 191.698 113.256 190.714 113.325 189.83L113.229 189.817Z" fill="#2A2739"/>
<path d="M111.821 189.932C111.604 190.606 111.284 191.312 111.234 192.023C111.227 192.117 111.368 192.152 111.411 192.071C111.741 191.439 111.82 190.663 111.97 189.973C111.991 189.876 111.851 189.837 111.821 189.932Z" fill="#2A2739"/>
<path d="M81.3723 203.171C81.9383 208.209 86.1672 212.137 91.3512 212.137C96.5332 212.137 100.762 208.209 101.335 203.171H81.3723Z" fill="#6E582E"/>
<path d="M97.0143 203.171H85.6883C84.7863 204.364 84.2393 205.829 84.2393 207.438C84.2393 208.153 84.3763 208.827 84.5703 209.477C86.3523 211.124 88.7213 212.137 91.3513 212.137C93.9693 212.137 96.3473 211.127 98.1303 209.48C98.3253 208.828 98.4643 208.154 98.4643 207.438C98.4643 205.829 97.9113 204.364 97.0143 203.171Z" fill="#4B3D25"/>
<path d="M86.2253 210.711C87.7213 211.608 89.4742 212.137 91.3512 212.137C93.2282 212.137 94.9752 211.608 96.4772 210.711C95.7392 209.204 94.2782 209.165 91.3512 209.165C88.4252 209.165 86.9603 209.204 86.2253 210.711Z" fill="#E27A76"/>
<path d="M99.6023 205.604C100.081 205.47 100.446 204.977 100.449 204.494C100.449 204.054 100.449 203.613 100.449 203.171H82.2513C82.2513 203.613 82.2513 204.054 82.2513 204.494C82.2473 204.967 82.6143 205.47 83.1003 205.604C88.4983 207.096 94.2053 207.096 99.6023 205.604Z" fill="#E0CECC"/>
<path d="M87.5243 171.199C87.5243 171.199 90.4773 175.949 88.1113 185.118C85.9573 193.445 84.3893 196.843 89.9173 198.249C95.4443 199.657 99.2902 198.05 97.1142 188.296C94.9462 178.543 95.2793 174.165 96.0113 171.77C97.1143 168.142 87.9253 165.285 87.5243 171.199Z" fill="#E27A76"/>
<path d="M48.6003 169.066C49.1653 168.694 49.7963 168.42 50.4453 168.195C50.5963 168.145 50.7433 168.099 50.8973 168.056C51.5753 167.869 52.2802 167.739 53.0152 167.739C54.1132 167.739 55.1343 168.008 56.0813 168.406C56.8373 168.828 57.5873 169.51 58.2123 170.646C59.3633 172.74 60.8503 173.408 61.9803 167.8C62.3673 165.876 62.4523 163.609 62.7363 161.174C70.1613 159.476 78.2252 158.29 84.2392 156.67C98.4422 152.848 106.557 144.598 109.22 141.476C110.606 145.979 114.265 155.705 120.805 159.349C121.419 164.573 121.802 168.758 122.085 169.725C123.436 174.234 124.522 174.286 125.048 172.04C125.638 169.519 127.011 168.611 127.698 168.307C127.831 168.253 127.967 168.205 128.108 168.158C128.419 168.061 128.74 167.978 129.064 167.908C129.524 167.822 129.988 167.739 130.477 167.739C131.216 167.739 131.921 167.869 132.596 168.056C132.753 168.099 132.901 168.145 133.046 168.195C133.698 168.42 134.332 168.694 134.895 169.066C137.091 170.504 138.543 172.982 138.543 175.805C138.543 180.259 134.936 183.865 130.477 183.865C129.233 183.865 128.07 183.561 127.019 183.057C127.019 183.057 124.057 223.178 91.7533 223.178C59.4523 223.178 56.4833 183.054 56.4833 183.054C55.4323 183.561 54.2642 183.865 53.0152 183.865C48.5592 183.865 44.9503 180.259 44.9503 175.805C44.9503 172.982 46.4053 170.504 48.6003 169.066ZM42.6453 232.293C40.1433 240.808 38.7543 250.965 44.3893 259.189H136.975C146.221 242.873 133.096 217.188 136.843 200.688C140.462 184.765 140.411 181.134 138.69 166.878C138.759 153.514 137.141 110.218 113.356 110.287C98.4603 96.2135 79.9613 97.3165 65.1373 106.292C35.6433 124.157 42.7903 149.703 43.6323 159.316C44.4753 168.93 44.2783 167.843 39.9293 188.015C34.2573 214.329 46.2253 220.126 42.6453 232.293Z" fill="#4A4986"/>
<path d="M134.583 259.189C130.35 246.807 118.639 237.889 104.817 237.889H78.6752C64.8542 237.889 53.1453 246.807 48.9113 259.189H134.583Z" fill="#E8B960"/>
<path d="M116.591 259.189C113.327 255.105 108.78 247.773 108.169 238.072C107.065 237.954 105.95 237.889 104.817 237.889H78.6752C77.5412 237.889 76.4263 237.954 75.3253 238.072C74.7143 247.773 70.1672 255.105 66.9052 259.189H116.591Z" fill="#434074"/>
<path d="M91.7533 223.178C88.1653 223.178 84.9563 222.66 82.0553 221.779V237.689C82.0553 243.042 86.3973 247.383 91.7473 247.383C97.1003 247.383 101.438 243.042 101.438 237.689V221.785C98.5403 222.661 95.3413 223.178 91.7533 223.178Z" fill="#D2A54C"/>
</svg>
