<?xml version="1.0" encoding="iso-8859-1"?>
<!-- Generator: Adobe Illustrator 19.0.0, SVG Export Plug-In . SVG Version: 6.00 Build 0)  -->
<svg version="1.1" id="Capa_1" xmlns="http://www.w3.org/2000/svg" xmlns:xlink="http://www.w3.org/1999/xlink" x="0px" y="0px"
	 viewBox="0 0 512 512" style="enable-background:new 0 0 512 512;" xml:space="preserve">
<rect x="8" y="356.371" style="fill:#8C6B37;" width="496.003" height="32"/>
<path d="M504,396.374H8c-4.418,0-8-3.582-8-8v-32c0-4.418,3.582-8,8-8h496c4.418,0,8,3.582,8,8v32
	C512,392.792,508.418,396.374,504,396.374z M16,380.374H496v-16H16V380.374z"/>
<rect x="143.996" y="420.378" style="fill:#99783D;" width="224.004" height="32"/>
<path d="M368,460.375H144c-4.418,0-8-3.582-8-8v-32c0-4.418,3.582-8,8-8h224c4.418,0,8,3.582,8,8v32
	C376,456.792,372.419,460.375,368,460.375z M152,444.374h208v-16H152V444.374z"/>
<rect x="48" y="68.371" style="fill:#83D816;" width="63.997" height="288.001"/>
<path d="M112,364.374H48c-4.418,0-8-3.582-8-8V68.375c0-4.418,3.582-8,8-8h64c4.418,0,8,3.582,8,8v287.998
	C120,360.792,116.418,364.374,112,364.374z M56,348.374h48V76.375H56V348.374z"/>
<rect x="112.002" y="68.371" style="fill:#EE5281;" width="63.997" height="288.001"/>
<path d="M176,364.374h-64c-4.418,0-8-3.582-8-8V68.375c0-4.418,3.582-8,8-8h64c4.418,0,8,3.582,8,8v287.998
	C184,360.792,180.418,364.374,176,364.374z M120,348.374h48V76.375h-48V348.374z"/>
<rect x="327.996" y="60.389" transform="matrix(0.9161 -0.4009 0.4009 0.9161 -51.7415 161.4681)" style="fill:#26BBEC;" width="63.996" height="287.985"/>
<path d="M388.407,357.124c-0.988,0-1.977-0.184-2.914-0.55c-1.977-0.774-3.562-2.297-4.414-4.242L265.617,88.493
	c-0.851-1.943-0.894-4.147-0.121-6.122c0.774-1.977,2.297-3.564,4.242-4.414l58.633-25.658c4.047-1.773,8.77,0.075,10.535,4.121
	l115.457,263.836c1.773,4.047-0.075,8.766-4.121,10.535l-58.629,25.66C390.594,356.901,389.501,357.124,388.407,357.124z
	 M283.481,89.407l109.047,249.182l43.972-19.246L327.458,70.165L283.481,89.407z"/>
<rect x="175.999" y="68.371" style="fill:#FEDA38;" width="96" height="288.001"/>
<path d="M272,364.374h-96c-4.418,0-8-3.582-8-8V68.375c0-4.418,3.582-8,8-8h96c4.418,0,8,3.582,8,8v287.998
	C280,360.792,276.418,364.374,272,364.374z M184,348.374h80V76.375h-80V348.374z"/>
<path d="M88,140.376H72c-4.418,0-8-3.582-8-8c0-4.418,3.582-8,8-8h16c4.418,0,8,3.582,8,8C95.999,136.794,92.418,140.376,88,140.376
	z"/>
<path d="M88,212.376H72c-4.418,0-8-3.582-8-8s3.582-8,8-8h16c4.418,0,8,3.582,8,8S92.418,212.376,88,212.376z"/>
<path d="M88,260.378H72c-4.418,0-8-3.584-8-8.002s3.582-8,8-8h16c4.418,0,8,3.582,8,8C95.999,256.794,92.418,260.378,88,260.378z"/>
<path d="M240,188.376h-32c-4.418,0-8-3.582-8-8s3.582-8,8-8h32c4.418,0,8,3.582,8,8S244.418,188.376,240,188.376z"/>
<path d="M240,220.376h-32c-4.418,0-8-3.582-8-8s3.582-8,8-8h32c4.418,0,8,3.582,8,8S244.418,220.376,240,220.376z"/>
<path d="M240,292.374h-32c-4.418,0-8-3.582-8-8s3.582-8,8-8h32c4.418,0,8,3.582,8,8S244.418,292.374,240,292.374z"/>
<path d="M152,164.376h-16c-4.418,0-8-3.582-8-8s3.582-8,8-8h16c4.418,0,8,3.582,8,8S156.418,164.376,152,164.376z"/>
<path d="M352.004,196.378c-3.067,0-5.988-1.771-7.313-4.752l-32-72c-1.797-4.039,0.024-8.766,4.058-10.56
	c4.039-1.793,8.766,0.024,10.558,4.06l32,72c1.797,4.039-0.024,8.766-4.058,10.56C354.192,196.155,353.09,196.378,352.004,196.378z"
	/>
<g>
</g>
<g>
</g>
<g>
</g>
<g>
</g>
<g>
</g>
<g>
</g>
<g>
</g>
<g>
</g>
<g>
</g>
<g>
</g>
<g>
</g>
<g>
</g>
<g>
</g>
<g>
</g>
<g>
</g>
</svg>
