<svg width="99" height="99" viewBox="0 0 114 113" fill="none" xmlns="http://www.w3.org/2000/svg">
<g clip-path="url(#clip0)">
<path d="M92.6029 13.5662L34.5383 4.88838C24.8757 3.4443 15.872 10.1068 14.428 19.7692L8.73639 57.8526C7.29229 67.5154 13.9549 76.5188 23.6172 77.9629L31.9503 79.2083C32.3467 79.2675 32.62 79.637 32.5608 80.0333L29.7532 98.8189C29.4213 101.04 31.9772 102.523 33.7405 101.132L56.5827 83.1203C56.7401 82.9962 56.9414 82.9428 57.1395 82.9724L81.6817 86.6403C91.3445 88.0844 100.348 81.4218 101.792 71.7595L107.484 33.6767C108.928 24.014 102.266 15.0103 92.6029 13.5662Z" fill="#FFFDF6"/>
<path d="M41.4076 73.5353C41.47 73.1178 41.2094 72.733 40.8256 72.6757L32.7583 71.47C23.404 70.072 17.0535 60.6901 18.5742 50.5148L24.5677 10.4114C24.825 8.68973 25.2919 7.05605 25.9343 5.53581C20.2086 7.7605 15.8036 12.9083 14.8307 19.4186L9.13905 57.502C7.69498 67.1645 14.3575 76.1682 24.0199 77.6122L32.353 78.8576C32.7494 78.9169 33.0226 79.2864 32.9634 79.6826L30.1559 98.4682C29.8239 100.689 32.3799 102.172 34.1432 100.781L37.7612 97.9284L41.4068 73.5352L41.4076 73.5353Z" fill="#ECE8D9"/>
<path d="M80.2386 34.52C76.4605 29.4141 69.2586 28.3378 64.1527 32.116L61.2685 34.2502C60.5809 34.7589 59.6108 34.614 59.1018 33.9263L57.0017 31.0883C53.2236 25.9824 46.0217 24.9061 40.9158 28.6842C35.8099 32.4624 34.7336 39.6643 38.5117 44.7702L54.295 66.1C54.8037 66.7876 55.7739 66.9326 56.4617 66.4238L77.8346 50.606C82.9405 46.8278 84.0168 39.6259 80.2386 34.52Z" fill="#FFFDF6"/>
<path d="M79.8988 34.7054C76.1206 29.5995 68.9187 28.5231 63.8128 32.3013L60.9286 34.4355C60.241 34.9443 59.2709 34.7993 58.7619 34.1117L56.6619 31.2736C52.8837 26.1678 45.6818 25.0914 40.5759 28.8696C35.47 32.6477 34.3937 39.8497 38.1719 44.9555L53.9551 66.2854C54.4639 66.9729 55.434 67.1179 56.1218 66.6092L77.4947 50.7913C82.6006 47.0132 83.6769 39.8112 79.8988 34.7054Z" fill="#D6FCFA"/>
<path d="M44.4618 45.6595C40.6836 40.5536 41.76 33.3516 46.8659 29.5735C48.5406 28.3342 50.4413 27.6204 52.3723 27.3968C48.7232 25.8017 44.3469 26.1454 40.916 28.6843C35.8101 32.4624 34.7337 39.6644 38.5119 44.7702L54.2951 66.1001C54.8039 66.7876 55.7741 66.9326 56.4618 66.4239L58.6359 64.8148L44.4618 45.6595Z" fill="#8FD2CF"/>
<path d="M93.349 11.6555L35.2842 2.97765C31.1957 2.36663 27.1111 3.06744 23.4718 5.00395C22.7622 5.38158 22.4932 6.263 22.8707 6.97259C23.2483 7.68222 24.1298 7.951 24.8393 7.57376C27.9238 5.93225 31.3868 5.33835 34.8539 5.85651L92.9186 14.5343C101.772 15.8575 107.898 24.1368 106.575 32.9901L100.883 71.0735C99.5603 79.9269 91.281 86.0531 82.4277 84.73L57.8857 81.0622C57.2927 80.9735 56.6827 81.1357 56.2128 81.5068L33.3704 99.5185C32.8774 99.907 32.4031 99.705 32.2223 99.6003C32.0413 99.4955 31.6305 99.1842 31.7233 98.5631L34.5309 79.7775C34.7086 78.588 33.8856 77.4757 32.6961 77.2979L24.363 76.0525C15.5096 74.7294 9.38319 66.45 10.7063 57.5968L16.398 19.513C16.8848 16.2559 18.3228 13.2651 20.5567 10.8642C21.1041 10.2756 21.071 9.3549 20.4827 8.80733C19.8945 8.25979 18.9732 8.29317 18.4258 8.88137C15.79 11.7145 14.0933 15.242 13.5193 19.0828L7.82771 57.1662C6.26734 67.6069 13.4922 77.3707 23.933 78.9311L31.5444 80.0686L28.8447 98.1329C28.6047 99.7389 29.357 101.303 30.7616 102.118C31.2043 102.375 31.6796 102.538 32.1626 102.611C33.2123 102.768 34.2996 102.493 35.1727 101.804L57.7674 83.9878L81.9977 87.6091C92.4384 89.1694 102.202 81.9446 103.763 71.5039L109.454 33.4203C111.015 22.9797 103.79 13.2159 93.349 11.6555Z" fill="#333333"/>
<path d="M73.3372 52.9251C72.691 53.4033 72.5548 54.3147 73.0332 54.9606C73.5115 55.6067 74.4229 55.7431 75.0688 55.2646L80.0088 51.6087C85.7513 47.3593 86.9662 39.2297 82.7169 33.487C78.4677 27.7443 70.338 26.5297 64.5952 30.7787L61.7114 32.9128C61.7037 32.9185 61.6798 32.936 61.6415 32.9303C61.6033 32.9246 61.5859 32.9012 61.5802 32.8932L59.4802 30.0553C55.2308 24.3126 47.1013 23.0979 41.3587 27.347C35.616 31.5964 34.401 39.726 38.6504 45.4687L54.4336 66.7985C54.9108 67.4437 55.611 67.8642 56.4047 67.9828C57.1983 68.1015 57.9909 67.9038 58.6359 67.4264L70.3578 58.751C71.0041 58.2728 71.1403 57.3614 70.6618 56.7155C70.1836 56.0694 69.272 55.933 68.6263 56.4115L56.9043 65.0868C56.8967 65.0925 56.8729 65.1099 56.8349 65.1042C56.7964 65.0984 56.779 65.0751 56.7734 65.067L40.9901 43.7372C37.6954 39.2846 38.6374 32.9817 43.09 29.6868C47.5426 26.3918 53.8455 27.3342 57.1403 31.7866L59.2401 34.6244C59.7173 35.2697 60.4175 35.6903 61.2111 35.8089C62.005 35.9276 62.7972 35.73 63.4425 35.2526L66.3265 33.1186C70.7798 29.8242 77.0821 30.7663 80.3769 35.2185C83.6717 39.6711 82.7297 45.9738 78.2771 49.2689L73.3372 52.9251Z" fill="#333333"/>
</g>
<defs>
<clipPath id="clip0">
<rect x="15.3603" width="99" height="99" transform="rotate(8.5 15.3603 0)" fill="white"/>
</clipPath>
</defs>
</svg>
