<svg width="132" height="80" viewBox="0 0 112 68" fill="none" xmlns="http://www.w3.org/2000/svg">
<g clip-path="url(#clip0)">
<path d="M106.662 32.9888L100.803 30.8796C99.8275 30.5286 98.7256 31.0242 98.3415 31.9866L96.8274 35.7795C96.4432 36.7419 96.9222 37.8066 97.8973 38.1575L98.7382 38.4602C98.7782 38.4746 98.7978 38.5183 98.7821 38.5578L98.0352 40.4288C97.9469 40.65 98.1783 40.8559 98.3961 40.75L101.218 39.3787C101.238 39.3693 101.26 39.368 101.28 39.3752L103.757 40.2667C104.732 40.6177 105.834 40.122 106.218 39.1597L107.732 35.3668C108.116 34.4045 107.637 33.3398 106.662 32.9888Z" fill="#FFFDF6"/>
<path d="M99.8402 38.1005C99.8568 38.0589 99.8389 38.014 99.8002 38L98.9861 37.707C98.0421 37.3672 97.6048 36.2702 98.0094 35.2568L99.6038 31.2626C99.6722 31.0912 99.7605 30.9331 99.8643 30.7904C99.2121 30.8989 98.6275 31.3353 98.3687 31.9837L96.8545 35.7767C96.4704 36.739 96.9494 37.8037 97.9245 38.1547L98.7654 38.4574C98.8054 38.4718 98.825 38.5155 98.8093 38.555L98.0624 40.4259C97.9741 40.6472 98.2054 40.8531 98.4233 40.7472L98.8703 40.53L99.8402 38.1005L99.8402 38.1005Z" fill="#ECE8D9"/>
<path d="M104.841 34.9069C104.569 34.3031 103.842 34.0415 103.217 34.3226L102.864 34.4813C102.78 34.5192 102.682 34.4839 102.646 34.4026L102.495 34.067C102.223 33.4633 101.496 33.2016 100.871 33.4827C100.247 33.7638 99.9603 34.481 100.232 35.0848L101.367 37.607C101.403 37.6883 101.501 37.7236 101.585 37.6857L104.201 36.509C104.826 36.2279 105.112 35.5106 104.841 34.9069Z" fill="#FFFDF6"/>
<path d="M104.801 34.9187C104.529 34.315 103.802 34.0534 103.177 34.3344L102.824 34.4932C102.74 34.531 102.642 34.4958 102.606 34.4145L102.455 34.0789C102.183 33.4751 101.456 33.2135 100.831 33.4946C100.207 33.7756 99.9203 34.4929 100.192 35.0967L101.327 37.6189C101.363 37.7002 101.461 37.7354 101.545 37.6976L104.161 36.5208C104.786 36.2398 105.072 35.5225 104.801 34.9187Z" fill="#D6FCFA"/>
<path d="M100.832 35.3009C100.561 34.6971 100.847 33.9799 101.472 33.6988C101.677 33.6066 101.893 33.5731 102.1 33.5907C101.757 33.3503 101.291 33.2938 100.871 33.4827C100.247 33.7637 99.9603 34.481 100.232 35.0848L101.367 37.607C101.403 37.6883 101.501 37.7235 101.585 37.6857L101.851 37.566L100.832 35.3009Z" fill="#8FD2CF"/>
<path d="M106.765 32.8336L100.905 30.7244C100.493 30.5759 100.049 30.5622 99.6216 30.6848C99.5383 30.7087 99.4889 30.7936 99.5113 30.8744C99.5336 30.9553 99.6192 31.0014 99.7025 30.9775C100.065 30.8735 100.441 30.8851 100.791 31.0111L106.65 33.1203C107.544 33.4419 107.984 34.4209 107.632 35.3026L106.118 39.0956C105.766 39.9774 104.753 40.4331 103.859 40.1115L101.383 39.22C101.323 39.1985 101.255 39.2023 101.197 39.2306L98.3749 40.6019C98.314 40.6315 98.2693 40.6008 98.2529 40.5863C98.2365 40.5717 98.2011 40.5311 98.2258 40.4692L98.9727 38.5983C99.02 38.4798 98.9608 38.3483 98.8407 38.3051L97.9998 38.0024C97.1064 37.6808 96.6659 36.7017 97.0179 35.82L98.532 32.027C98.6615 31.7026 98.884 31.4255 99.1755 31.2257C99.2469 31.1767 99.2657 31.0814 99.2174 31.0128C99.1691 30.9443 99.072 30.9284 99.0006 30.9773C98.6567 31.2131 98.3942 31.5399 98.2415 31.9224L96.7274 35.7154C96.3123 36.7552 96.8318 37.9098 97.8854 38.289L98.6535 38.5655L97.9353 40.3647C97.8714 40.5246 97.9123 40.7011 98.0395 40.8143C98.0795 40.8499 98.1253 40.8767 98.174 40.8942C98.2799 40.9324 98.4002 40.9269 98.5081 40.8745L101.3 39.5181L103.745 40.3982C104.798 40.7775 105.993 40.2401 106.408 39.2002L107.923 35.4072C108.338 34.3674 107.818 33.2128 106.765 32.8336Z" fill="#333333"/>
<path d="M103.596 36.8116C103.517 36.8471 103.481 36.9379 103.515 37.0143C103.549 37.0907 103.641 37.1238 103.72 37.0882L104.325 36.8162C105.028 36.5001 105.351 35.6905 105.046 35.0114C104.74 34.3323 103.92 34.0371 103.217 34.3531L102.864 34.5119C102.863 34.5123 102.86 34.5136 102.856 34.5122C102.852 34.5108 102.851 34.5081 102.851 34.5071L102.7 34.1715C102.394 33.4925 101.574 33.1972 100.871 33.5133C100.168 33.8294 99.845 34.6391 100.15 35.3181L101.285 37.8404C101.32 37.9166 101.383 37.9745 101.463 38.0034C101.543 38.0322 101.63 38.0285 101.709 37.993L103.144 37.3476C103.223 37.312 103.259 37.2212 103.225 37.1449C103.19 37.0685 103.098 37.0353 103.019 37.0709L101.585 37.7163C101.584 37.7167 101.581 37.718 101.577 37.7167C101.573 37.7153 101.572 37.7125 101.572 37.7115L100.437 35.1893C100.2 34.6628 100.451 34.0351 100.995 33.79C101.54 33.5448 102.176 33.7738 102.413 34.3003L102.564 34.6359C102.599 34.7122 102.662 34.7701 102.742 34.7989C102.822 34.8277 102.909 34.8241 102.988 34.7886L103.341 34.6298C103.886 34.3848 104.522 34.6137 104.759 35.1402C104.996 35.6667 104.745 36.2944 104.201 36.5396L103.596 36.8116Z" fill="#333333"/>
</g>
<path d="M28.8609 16.28C28.0929 17.288 27.3729 18.296 26.6049 19.256C25.8849 20.312 25.1649 21.368 24.3969 22.376C24.0129 22.904 23.6289 23.384 23.1489 23.816C22.8609 24.056 22.6689 24.152 22.4769 24.152C21.9489 24.152 21.8049 23.288 21.7089 22.616C21.6609 22.232 21.6609 21.992 21.6609 21.752C21.6609 20.696 21.9009 19.64 21.9969 18.584C22.1409 17.048 22.4769 15.56 22.9089 14.072C23.4369 12.248 24.2049 10.424 24.9249 8.6C25.6449 6.776 26.3649 4.952 27.1809 3.176C27.2289 3.128 27.2289 3.032 27.2289 2.984C27.2289 2.696 26.9889 2.456 26.7489 2.456C26.6049 2.456 26.4609 2.552 26.4129 2.696C24.7809 6.152 23.4369 9.752 22.1889 13.352C21.3729 15.848 20.9409 18.584 20.7969 21.176V21.656C20.7969 22.568 20.8929 23.528 21.2769 24.392C21.4689 24.872 21.9969 25.208 22.4769 25.208C22.6689 25.208 22.8609 25.16 23.0529 25.016C25.0209 23.672 26.2209 21.32 27.6129 19.448L28.1409 18.776C27.7569 20.12 27.4209 21.464 27.1329 22.808C26.7969 24.152 26.5089 25.688 26.5089 27.176C26.5089 28.136 26.6529 29.096 26.9889 29.96C27.3729 30.872 28.2369 31.592 29.1969 31.592C29.4849 31.592 29.7249 31.544 30.0129 31.4C31.5489 30.728 32.5089 29.144 33.3729 27.656C33.4209 27.56 33.4689 27.512 33.5169 27.416L33.6129 27.272L33.9009 26.744C33.9489 26.696 33.9489 26.6 33.9489 26.552C33.9489 26.312 33.6609 26.12 33.4209 26.12C33.2769 26.12 33.1809 26.168 33.0849 26.312L32.9409 26.552C32.2689 27.752 30.6369 30.68 29.1489 30.68C28.7169 30.68 28.2849 30.44 27.9009 29.768C27.5169 29.096 27.4209 28.136 27.4209 27.224C27.4209 26.648 27.4689 26.072 27.5169 25.544C27.9009 22.568 28.7649 19.592 29.6769 16.712L32.7969 12.632C34.2849 10.712 35.9169 8.6 36.6369 6.248C36.7329 6.008 36.7809 5.72 36.7809 5.384C36.7809 4.952 36.6369 4.472 36.2529 4.28C35.9649 4.136 35.6769 4.04 35.3889 4.04C34.9569 4.04 34.5729 4.232 34.1889 4.616C32.9409 5.816 32.1249 7.592 31.4049 9.224C30.8289 10.52 30.3489 11.912 29.8689 13.256L28.8609 16.28ZM33.1329 7.736C33.4209 7.16 33.7569 6.632 34.1409 6.104C34.3329 5.816 34.5729 5.528 34.8129 5.24C35.0049 5.048 35.1969 4.952 35.3409 4.952C35.6289 4.952 35.8209 5.24 35.8209 5.576V5.768C35.6289 6.92 34.9089 7.976 34.2849 8.984C33.6129 10.136 32.7009 11.24 31.8849 12.296L31.7889 12.44C31.4049 13.016 30.9729 13.544 30.5409 14.12C30.9729 12.728 31.5009 11.384 32.0289 10.04C32.3649 9.224 32.7489 8.456 33.1329 7.736ZM47.9998 14.984L42.5278 18.968C42.5278 18.968 40.9438 19.928 40.3678 19.88C40.3198 19.88 40.2718 19.832 40.2718 19.784V19.592C40.2718 18.872 40.6558 17.96 40.9918 17.192C40.9918 17.144 41.0398 17.144 41.0398 17.096C41.0878 17 41.0878 16.904 41.1358 16.856C41.3278 16.328 41.6158 15.8 41.6158 15.272C41.6158 15.128 41.5678 14.984 41.5198 14.792C41.4238 14.456 41.1358 14.36 40.8478 14.36C40.6078 14.36 40.3678 14.408 40.1758 14.504C39.1678 14.888 38.3998 15.56 37.7278 16.28C37.8238 16.04 38.0638 15.416 38.1118 15.176C38.1118 14.792 38.1118 14.648 37.8718 14.648C37.6798 14.648 37.4878 14.696 37.3438 14.984C36.9117 15.848 36.3357 17.144 36.1437 18.104C36.1437 18.392 36.3357 18.728 36.6237 18.728C36.7197 18.728 36.8157 18.68 36.9117 18.584C37.5838 17.816 38.1598 17.048 38.8798 16.328C39.2158 16.04 39.6478 15.8 40.0318 15.56C40.2238 15.512 40.4158 15.368 40.5598 15.368C40.6078 15.368 40.6558 15.416 40.6558 15.512C40.3198 16.808 39.3118 18.248 39.3118 19.544C39.3118 19.784 39.3598 20.024 39.4558 20.264C39.5998 20.696 39.8878 20.84 40.2238 20.84C42.1918 20.84 46.6558 17.096 48.4798 15.752C48.6238 15.656 48.6718 15.56 48.6718 15.416C48.6718 15.176 48.5278 14.936 48.2398 14.936C48.1918 14.936 48.0958 14.936 47.9998 14.984ZM54.3204 24.824C53.5524 25.592 52.4004 26.648 51.2964 26.648C50.9124 26.648 50.4804 26.504 50.0964 26.168C48.7044 24.968 48.4164 22.712 48.3204 21.032V20.216C48.3204 18.392 48.5604 16.472 48.8964 14.648C49.4724 13.688 50.0484 12.728 50.6724 11.816C52.2084 11.192 53.6964 10.472 55.1844 9.8L55.4244 9.656C57.0564 8.888 58.7844 8.12 60.5604 7.688C61.2804 7.496 62.1924 7.304 63.1044 7.304C64.1124 7.304 65.0244 7.544 65.5044 8.504C65.6004 8.648 65.6964 8.744 65.8404 8.744C66.0804 8.744 66.3204 8.504 66.3204 8.216C66.3204 8.168 66.3204 8.072 66.2724 8.024C65.6484 6.728 64.4964 6.296 63.1044 6.296C61.0404 6.296 58.5444 7.304 57.1524 7.928C55.2804 8.744 53.4084 9.608 51.5364 10.472C51.9684 9.704 52.4004 8.984 52.7844 8.216C53.7444 6.2 54.6564 3.944 54.8964 1.688C54.8964 0.919998 54.6084 0.344 53.9364 0.247998H53.7444C53.0724 0.247998 52.4484 0.919998 52.0644 1.448C50.6724 3.512 50.0484 5.768 49.4724 8.168C49.1844 9.272 48.9444 10.376 48.7044 11.48C47.6964 11.768 46.6884 12.008 45.6324 12.104C45.3444 12.152 45.2004 12.392 45.2004 12.632C45.2004 12.824 45.2964 13.016 45.5364 13.016C46.5924 12.92 47.5524 12.776 48.4644 12.536L48.1284 14.168C48.0804 14.36 48.0324 14.408 48.0324 14.6L47.7924 16.184C47.6004 17.528 47.4084 18.872 47.4084 20.216C47.4084 20.984 47.4564 21.752 47.6004 22.52C47.8404 24.2 48.5124 26.6 50.2404 27.32C50.5764 27.464 50.9124 27.512 51.2484 27.512C52.6404 27.512 53.9844 26.408 54.9444 25.448C55.0404 25.352 55.0884 25.256 55.0884 25.16C55.0884 24.92 54.8484 24.68 54.6084 24.68C54.5124 24.68 54.4164 24.728 54.3204 24.824ZM50.0964 9.416C50.5284 7.544 50.8644 5.624 51.7284 3.944C52.1124 3.128 52.5924 2.264 53.1204 1.592C53.3604 1.304 53.5044 1.208 53.6484 1.208C53.8404 1.208 53.9364 1.448 53.9364 1.832V2.072C53.8884 2.504 53.7924 2.936 53.6484 3.32C53.0244 5.384 52.2564 7.304 51.2964 9.176C50.9604 9.8 50.5764 10.424 50.1924 11L49.6644 11.192L50.0964 9.416ZM66.4415 14.984C65.0015 16.04 63.1295 17.288 61.2575 17.288C60.9215 17.288 60.6335 17.096 60.4415 16.856C60.4895 16.76 60.5375 16.664 60.5375 16.568C60.8735 15.896 61.3535 15.128 61.3535 14.36C61.4015 13.784 61.2095 13.256 60.6335 13.016C60.2495 12.92 59.5295 12.776 59.1935 13.016C58.9535 13.16 58.8095 13.352 58.7135 13.64C58.6655 13.64 58.6175 13.688 58.5695 13.688C57.9935 13.784 57.4655 14.264 57.1295 14.696C56.5055 15.512 56.2175 16.472 56.2175 17.48C56.2175 17.816 56.2655 18.152 56.3135 18.488C56.4575 19.208 57.1295 19.688 57.8015 19.688C58.2335 19.688 58.6655 19.496 59.0015 19.112C59.3855 18.68 59.7215 18.2 60.0095 17.672C60.4415 18.056 60.9695 18.2 61.5455 18.2C63.3695 18.2 65.7215 16.616 66.9215 15.752C67.0655 15.656 67.1135 15.512 67.1135 15.368C67.1135 15.128 66.9215 14.888 66.6815 14.888C66.5855 14.888 66.5375 14.936 66.4415 14.984ZM59.8655 15.656C59.7215 15.32 59.6735 14.984 59.6735 14.648C59.9135 14.744 60.1535 14.84 60.3935 14.888C60.2975 15.224 60.1055 15.608 59.9615 15.896C59.9135 15.848 59.8655 15.752 59.8655 15.656ZM58.2335 18.584C58.0415 18.728 57.8975 18.776 57.7535 18.776C57.3695 18.776 57.1775 18.296 57.0815 17.816C57.0815 17.72 57.0335 17.576 57.0335 17.48C57.0335 16.808 57.3695 16.04 57.6575 15.512C57.8975 15.128 58.1855 14.84 58.5695 14.648C58.6175 14.6 58.6655 14.6 58.6655 14.6C58.7615 15.416 59.1455 16.328 59.3375 16.76C59.3375 16.808 59.3855 16.856 59.3855 16.904C59.1455 17.528 58.7615 18.2 58.2335 18.584ZM74.8531 27.8C74.0851 28.664 73.3171 29.528 72.0691 29.576C71.2051 29.576 70.6291 28.664 70.2451 27.992C69.2851 26.216 68.9491 24.056 68.7571 22.088C68.7091 21.512 68.6611 20.936 68.6611 20.36C68.6611 18.536 68.9491 16.76 69.3331 14.936L69.6211 13.496C70.3411 12.872 70.9651 12.152 71.6371 11.432C72.8371 10.136 74.0371 8.744 75.0931 7.256C75.8131 6.296 76.2931 5.192 76.6291 4.04C76.6291 3.992 76.6771 3.944 76.6771 3.848C76.7731 3.464 76.9171 2.984 76.9171 2.552C76.9171 2.168 76.8211 1.832 76.4851 1.64C76.3411 1.544 76.1491 1.496 75.9571 1.496C75.3811 1.496 74.8051 1.928 74.3731 2.264L74.2771 2.36C73.3651 3.032 72.7891 4.04 72.1651 4.952C70.6771 7.16 69.8131 9.512 69.1411 12.104L68.8531 13.064C68.0851 13.736 67.3171 14.408 66.4531 14.984C66.3091 15.08 66.2611 15.224 66.2611 15.368C66.2611 15.608 66.4051 15.848 66.6451 15.848C66.7411 15.848 66.8371 15.8 66.9331 15.752C67.4611 15.368 67.9891 14.984 68.4691 14.552C68.0371 16.424 67.7491 18.296 67.7491 20.168C67.7971 22.616 68.1331 25.112 68.9971 27.368C69.5251 28.808 70.3891 30.344 72.0691 30.488C73.5571 30.488 74.7091 29.336 75.4771 28.424C75.5731 28.328 75.6211 28.232 75.6211 28.136C75.6211 27.896 75.3811 27.656 75.1411 27.656C75.0451 27.656 74.9491 27.704 74.8531 27.8ZM75.5251 2.6C75.6691 2.504 75.7651 2.504 75.8131 2.504C75.9571 2.504 76.0051 2.648 76.0051 2.792C76.0051 2.984 75.9571 3.176 75.9091 3.224C75.8131 3.704 75.6211 4.232 75.4771 4.664C75.0451 5.912 74.2291 6.968 73.4131 7.976C72.3571 9.272 71.2531 10.616 70.0531 11.864C70.3891 10.568 70.8211 9.272 71.3971 8.072C72.2611 6.2 73.4611 4.184 75.0451 2.888L75.5251 2.6ZM90.4693 15.608C87.9253 17.72 85.2853 19.88 82.3573 21.416C81.6853 21.752 81.0133 22.04 80.2933 22.232C80.1013 22.28 79.9093 22.28 79.7653 22.28C79.2853 22.28 79.0453 22.04 78.9013 21.464C78.8533 21.176 78.8053 20.936 78.8053 20.648C78.8053 19.784 79.0453 18.872 79.2853 18.056C79.2853 18.008 79.3333 17.912 79.3333 17.864L79.4293 17.528C80.2453 16.76 81.0133 15.944 81.7333 15.08C82.9813 13.592 84.1333 11.96 85.1413 10.28C85.8133 9.224 86.6293 7.784 86.6293 6.488C86.5813 5.528 86.0053 5.192 85.3333 5.192C84.9013 5.192 84.4693 5.336 84.0853 5.576C82.4533 6.632 81.5893 8.792 80.7253 10.472C79.7653 12.44 79.2373 14.504 78.7093 16.568L78.5653 17.096L78.1333 17.48C77.6053 17.96 76.9333 18.296 76.4053 18.776C76.2613 18.92 75.7812 19.16 75.4452 19.16C75.3012 19.16 75.2052 19.112 75.1092 18.968C75.0132 18.872 75.0132 18.68 75.0132 18.536V18.248C75.1572 16.616 76.3093 15.032 77.9413 15.032C78.0853 15.032 78.2773 15.032 78.4213 15.08C78.8053 15.08 78.9973 14.792 78.9973 14.552C78.9973 14.36 78.9013 14.216 78.6613 14.168C78.4693 14.12 78.3253 14.12 78.1333 14.12C75.9253 14.12 74.1012 16.184 74.1012 18.392C74.1012 18.584 74.1012 18.728 74.1492 18.92C74.2452 19.688 74.8212 19.976 75.4452 19.976C75.9253 19.976 76.4533 19.832 76.8373 19.544C77.3173 19.256 77.7973 18.92 78.2293 18.536C78.0853 19.16 77.9413 19.928 77.9413 20.696C77.9413 21.992 78.3253 23.192 79.7653 23.192H79.9573C81.7333 23.048 83.4613 21.896 84.9013 20.936L85.2853 20.696C87.5893 19.16 89.7493 17.384 91.8613 15.608C91.9573 15.512 92.0053 15.416 92.0053 15.32C92.0053 15.08 91.8133 14.888 91.5253 14.888C91.4293 14.888 91.2853 14.888 91.1893 14.984L90.4693 15.608ZM82.5013 9.032C82.9813 8.168 83.5093 7.304 84.2293 6.584C84.5653 6.296 84.9013 6.056 85.2853 6.056C85.5733 6.056 85.7173 6.248 85.7173 6.728C85.5733 8.312 84.3253 9.944 83.5093 11.24C82.4053 12.872 81.2053 14.504 79.8133 15.896C79.9093 15.416 80.0533 14.888 80.1973 14.408C80.7253 12.584 81.4933 10.904 82.4053 9.224L82.5013 9.032ZM13.1598 63C14.6478 63 15.8478 62.04 16.8558 61.224L16.9518 61.128L17.1918 60.936C18.1518 60.168 18.9198 59.256 19.5918 58.296C19.9278 57.912 20.2158 57.528 20.5038 57.144C21.5118 57.624 22.3758 58.344 23.2398 59.064C23.3358 59.112 23.4318 59.16 23.5278 59.16C23.8158 59.16 24.0078 58.92 24.0078 58.68C24.0078 58.584 23.9598 58.488 23.8638 58.392C22.9998 57.672 22.0878 56.952 21.0798 56.424C21.5598 55.896 22.0398 55.368 22.4718 54.792C24.1038 52.68 25.4478 50.28 26.6478 47.88C27.7038 45.768 28.8558 43.416 28.9998 41.016V40.536C28.9998 39.816 28.9038 39.048 28.4718 38.52C28.0878 38.04 27.6078 37.896 27.0798 37.896C26.8398 37.896 26.5518 37.944 26.3118 37.992C22.5678 38.712 19.8318 42.312 18.1518 45.48C17.6238 46.536 17.1918 47.544 16.8078 48.6L17.2398 46.008C17.5758 44.04 18.1518 42.072 18.7278 40.152C19.2558 38.52 19.6398 36.456 20.7438 35.112C20.7918 35.016 20.8398 34.92 20.8398 34.824C20.8398 34.536 20.6478 34.296 20.4078 34.296C20.3118 34.296 20.2158 34.392 20.1198 34.488C19.0638 35.736 18.6798 37.416 18.1518 38.952C17.4798 41.064 16.9038 43.272 16.4238 45.48C15.6558 49.176 15.3198 52.968 15.0798 56.76C14.1678 57.336 13.3998 58.152 12.7758 59.112C12.4398 59.64 12.0078 60.696 12.0078 61.608C12.0078 62.328 12.2958 62.904 13.1598 63ZM20.6958 43.128C22.1358 41.16 24.1038 39.48 26.5518 38.904C26.7438 38.856 26.8878 38.856 27.0318 38.856C27.8478 38.856 28.0878 39.528 28.0878 40.392C28.0878 42.072 27.0798 44.712 26.7918 45.384C25.6878 47.928 24.3438 50.28 22.9038 52.632C22.1838 53.832 21.2718 54.888 20.3598 55.944L20.2638 56.088C19.6398 55.848 19.0158 55.704 18.3438 55.704C18.1518 55.704 17.9598 55.752 17.7678 55.752C17.1918 55.848 16.6158 55.992 16.0878 56.232C16.6158 51.576 17.8638 46.968 20.6958 43.128ZM13.3518 59.976C13.5438 59.496 13.8798 59.064 14.2158 58.68C14.4558 58.392 14.6958 58.104 14.9838 57.912C14.9838 58.2 14.9838 58.44 14.9358 58.728C14.9358 59.016 15.1278 59.16 15.3678 59.16C15.6078 59.16 15.7998 59.016 15.8478 58.728L15.9438 57.288C16.4718 57.048 17.0478 56.856 17.6238 56.712C17.9118 56.664 18.1518 56.616 18.4398 56.616C18.8718 56.616 19.3038 56.712 19.6878 56.808C19.0158 57.624 18.3918 58.44 17.6718 59.208C17.3838 59.592 14.6478 62.136 13.4478 62.136C13.2558 62.136 13.0638 62.04 12.9678 61.896C12.8718 61.8 12.8718 61.608 12.8718 61.464C12.8718 60.984 13.1598 60.36 13.3518 59.976ZM41.8526 48.984C39.5486 50.04 37.4366 51.336 34.9886 52.056C34.1726 52.296 33.2606 52.584 32.3486 52.584C31.7726 52.584 31.2446 52.44 31.0526 52.008C30.9566 51.816 30.9566 51.576 30.9566 51.336C30.9566 50.664 31.2446 49.992 31.3406 49.32C31.3406 48.984 31.0046 48.744 30.7646 48.744C30.6206 48.744 30.4766 48.84 30.4286 49.08C30.3326 49.848 30.0446 50.616 30.0446 51.384C30.0446 51.672 30.0926 51.96 30.1886 52.248C30.4766 53.16 31.3886 53.4 32.3006 53.4C32.8286 53.4 33.3086 53.304 33.7406 53.256C36.8606 52.824 39.5486 51.096 42.3326 49.752C42.4766 49.656 42.5246 49.56 42.5246 49.416C42.5246 49.176 42.3806 48.936 42.0926 48.936C42.0446 48.936 41.9486 48.936 41.8526 48.984ZM31.8686 46.104C31.9646 46.152 32.0606 46.248 32.2046 46.248C32.4446 46.248 32.6366 46.008 32.6366 45.768C32.6366 45.384 32.4446 45.192 32.2046 45.192H31.9166C31.6766 45.192 31.4846 45.384 31.4846 45.624C31.4846 45.864 31.6286 46.056 31.8686 46.104ZM54.3472 48.984C53.5312 49.752 48.2992 52.968 46.7632 52.968C46.4752 52.968 46.1872 52.824 46.0912 52.536C46.0912 52.44 46.0432 52.392 46.0432 52.296C46.0432 51.816 46.3312 51.144 46.3792 50.76C46.5232 49.992 46.9072 49.272 47.1952 48.552C47.3392 48.072 47.8672 47.256 47.8672 46.68C47.8672 46.584 47.8672 46.536 47.8192 46.44C47.7712 46.248 47.5792 46.056 47.3872 46.056C47.2912 46.056 47.1952 46.104 47.1472 46.152C45.9472 46.968 45.0832 48.6 43.4992 48.792H43.3072C42.9712 48.792 42.8752 48.696 42.8752 48.504C42.8752 48.216 43.2592 47.688 43.4512 47.496C44.0752 46.92 44.9392 46.632 45.7552 46.584C46.0432 46.584 46.1872 46.344 46.1872 46.104C46.1872 45.864 46.0432 45.672 45.7552 45.672C44.6992 45.72 43.6432 46.152 42.8272 46.872C42.4432 47.208 41.8672 47.928 41.8672 48.552C41.8672 48.744 41.9152 48.888 42.0112 49.032C42.3472 49.512 42.8272 49.704 43.3552 49.704C43.7392 49.704 44.1232 49.608 44.4592 49.464C45.0832 49.176 45.5632 48.744 46.0912 48.36L46.3312 48.168C45.9952 48.936 45.7072 49.752 45.5152 50.52C45.5152 50.568 45.4672 50.616 45.4672 50.664C45.3712 51.144 45.1792 51.72 45.1792 52.296C45.1792 52.92 45.4192 53.496 46.0912 53.736C46.2832 53.784 46.4752 53.832 46.6672 53.832C47.4832 53.832 48.7312 53.208 49.4992 52.872C51.2752 52.104 53.6272 50.76 55.0672 49.512C55.1632 49.416 55.2112 49.32 55.2112 49.224C55.2112 48.984 54.9712 48.744 54.7312 48.744C54.6352 48.744 54.5392 48.792 54.3472 48.984ZM66.0479 48.984C65.7599 49.608 64.8479 50.376 64.3199 50.904C63.5519 51.672 62.6879 52.392 61.8719 53.112L59.4719 55.032C59.0879 55.32 58.7039 55.512 58.3199 55.752C57.8399 55.944 57.0239 56.376 56.3519 56.376C56.1599 56.376 56.0159 56.328 55.8719 56.28C55.2959 56.04 55.1519 55.416 55.1519 54.84C55.1519 54.456 55.1999 54.072 55.2959 53.784C55.6799 52.296 56.6879 51.048 57.2159 49.608C57.2639 49.464 57.3119 49.32 57.3119 49.176C57.3119 48.936 57.2159 48.696 57.0719 48.552C56.8799 48.36 56.5919 48.216 56.3519 48.12L56.7359 47.784C57.0719 47.448 57.4559 46.872 57.4559 46.392C57.4559 46.2 57.4079 46.056 57.3119 45.912C57.1199 45.624 56.7839 45.48 56.4479 45.48C56.2079 45.48 55.9679 45.528 55.7759 45.624C55.0079 45.96 54.9119 46.536 54.8159 47.304V47.496C54.8159 47.736 54.9119 47.976 55.0079 48.168C54.7679 48.408 54.5279 48.696 54.3359 48.984C54.2399 49.08 54.1919 49.176 54.1919 49.272C54.1919 49.512 54.4319 49.752 54.6719 49.752C54.7679 49.752 54.8639 49.704 54.9599 49.608L55.6799 48.792C55.8239 48.84 55.9679 48.888 56.1119 48.984C56.3039 49.08 56.3519 49.224 56.3519 49.368C56.3519 49.608 56.1599 49.896 56.0639 50.088C56.0639 50.136 56.0159 50.136 55.1999 51.72C54.7199 52.728 54.2399 53.736 54.2399 54.84C54.2399 55.08 54.2879 55.368 54.3359 55.656C54.5759 56.856 55.2959 57.24 56.1599 57.24C57.7439 57.24 59.8079 55.896 60.8159 55.128C62.0159 54.168 63.1679 53.16 64.3199 52.152C64.7519 51.768 65.1359 51.384 65.5199 50.952C65.9039 50.52 66.5759 49.992 66.8159 49.416C66.8639 49.368 66.8639 49.272 66.8639 49.224C66.8639 48.984 66.7199 48.744 66.4799 48.744C66.3359 48.744 66.2399 48.744 66.0479 48.984ZM56.0159 46.536C56.1119 46.44 56.2079 46.392 56.3519 46.392C56.3999 46.392 56.4959 46.392 56.5439 46.44C56.4959 46.776 56.1599 47.112 55.8239 47.4C55.7759 47.448 55.7759 47.448 55.7759 47.448C55.7279 47.448 55.7279 47.16 55.7279 47.064C55.7279 46.824 55.8239 46.632 56.0159 46.536ZM77.4307 48.984C75.1267 50.04 73.0147 51.336 70.5667 52.056C69.7507 52.296 68.8387 52.584 67.9267 52.584C67.3507 52.584 66.8227 52.44 66.6307 52.008C66.5347 51.816 66.5347 51.576 66.5347 51.336C66.5347 50.664 66.8227 49.992 66.9187 49.32C66.9187 48.984 66.5827 48.744 66.3427 48.744C66.1987 48.744 66.0547 48.84 66.0067 49.08C65.9107 49.848 65.6227 50.616 65.6227 51.384C65.6227 51.672 65.6707 51.96 65.7667 52.248C66.0547 53.16 66.9667 53.4 67.8787 53.4C68.4067 53.4 68.8867 53.304 69.3187 53.256C72.4387 52.824 75.1267 51.096 77.9107 49.752C78.0547 49.656 78.1027 49.56 78.1027 49.416C78.1027 49.176 77.9587 48.936 77.6707 48.936C77.6227 48.936 77.5267 48.936 77.4307 48.984ZM67.4467 46.104C67.5427 46.152 67.6387 46.248 67.7827 46.248C68.0227 46.248 68.2147 46.008 68.2147 45.768C68.2147 45.384 68.0227 45.192 67.7827 45.192H67.4947C67.2547 45.192 67.0627 45.384 67.0627 45.624C67.0627 45.864 67.2067 46.056 67.4467 46.104ZM90.2133 48.984C88.7733 50.04 85.6533 51.048 83.9253 51.624C83.3013 51.816 82.6293 51.96 81.9573 51.96C81.3813 51.96 80.8053 51.864 80.2773 51.624C79.5573 51.336 79.3653 50.664 79.3653 49.944C79.3653 49.464 79.4613 49.032 79.5573 48.6C80.3733 48.024 81.1893 47.448 81.9093 46.824C82.2933 46.488 82.6293 46.056 82.6293 45.528C82.6293 45 82.4853 44.328 81.7653 44.232H81.6213C80.3253 44.232 79.6053 45.432 79.1733 46.584C79.0293 47.016 78.8373 47.544 78.6933 48.072C78.3573 48.36 77.8293 48.744 77.4453 48.984C77.3013 49.08 77.2533 49.224 77.2533 49.368C77.2533 49.608 77.4453 49.848 77.6853 49.848C77.7813 49.848 77.8293 49.8 77.9253 49.752L78.5013 49.32C78.4533 49.56 78.4533 49.8 78.4533 49.992C78.4533 50.472 78.5493 50.952 78.7413 51.336C79.2693 52.488 80.6613 52.872 81.9093 52.872H82.1493C84.6933 52.824 88.6773 51.24 90.6453 49.8C90.7893 49.704 90.8373 49.56 90.8373 49.416C90.8373 49.176 90.6453 48.888 90.4053 48.888C90.3573 48.888 90.2613 48.936 90.2133 48.984ZM81.5733 45.144C81.7173 45.144 81.6693 45.192 81.7173 45.432C81.7173 45.48 81.7653 45.576 81.7653 45.576C81.7173 45.864 81.2373 46.2 80.9973 46.392C80.6613 46.728 80.2773 46.968 79.8933 47.256C80.1813 46.344 80.6133 45.24 81.3813 45.144H81.5733ZM94.3233 47.256C94.2753 47.016 94.2753 46.824 94.2753 46.584C94.5633 46.344 94.8033 46.056 95.0433 45.816C95.4273 45.432 95.6193 44.904 95.6193 44.424C95.6193 44.136 95.5713 43.848 95.4273 43.56C95.2353 43.176 94.9953 42.984 94.7073 42.984C94.2753 42.984 93.7953 43.416 93.6033 43.896C93.3633 44.424 93.3153 45.096 93.3153 45.72V46.248C93.0753 46.488 92.7873 46.68 92.5473 46.872L90.1953 48.984C90.0993 49.08 90.0993 49.176 90.0993 49.272C90.0993 49.512 90.3393 49.704 90.5793 49.704C90.6753 49.704 90.7713 49.704 90.8673 49.608C91.6833 48.84 92.5473 48.12 93.4113 47.352C93.4593 47.592 93.5073 47.784 93.5073 47.976C93.7953 49.704 94.4193 51.384 94.4193 53.112V53.448C94.3233 54.936 93.6033 57.48 91.9713 58.056C91.8753 58.104 91.7793 58.104 91.6833 58.104C91.0113 58.104 90.4833 57.192 90.2913 56.616C90.2433 56.424 90.1953 56.184 90.1953 55.944C90.1953 55.128 90.5313 54.216 91.1553 53.832C91.2993 53.736 91.3953 53.592 91.3953 53.448C91.3953 53.208 91.2033 53.016 90.9633 53.016C90.9153 53.016 90.8193 53.016 90.7233 53.064C89.8113 53.544 89.2833 54.888 89.2833 55.944C89.2833 56.136 89.2833 56.328 89.3313 56.472C89.5713 57.528 90.1953 58.584 91.2993 58.92C91.4433 58.968 91.6353 59.016 91.7793 59.016C92.7873 59.016 93.6513 58.056 94.1313 57.288C94.8993 56.04 95.3313 54.408 95.3313 52.92V52.488C95.1873 50.712 94.5633 49.032 94.3233 47.256ZM94.6593 43.992C94.7553 44.088 94.7553 44.232 94.7553 44.328C94.7553 44.568 94.6113 44.856 94.5153 45.096L94.2753 45.384C94.2753 45.24 94.3233 45.144 94.3233 45C94.3233 45.048 94.4673 43.992 94.6593 43.992Z" fill="#333333"/>
<defs>
<clipPath id="clip0">
<rect width="10.5012" height="10.5" transform="matrix(0.940899 0.338688 -0.370743 0.928736 98.8928 30)" fill="white"/>
</clipPath>
</defs>
</svg>
