<svg width="190" height="160" viewBox="0 0 281 237" fill="none" xmlns="http://www.w3.org/2000/svg">
<path d="M189.942 116.613C189.991 116.56 190.038 116.503 190.083 116.441C190.133 116.373 189.889 116.287 189.604 116.248C189.773 115.87 190.046 115.513 190.244 115.184C190.646 114.514 191.049 113.843 191.451 113.173C192.24 111.86 193.028 110.546 193.817 109.232C193.876 109.134 193.536 109.036 193.2 109.014C193.417 108.832 193.636 108.653 193.861 108.48C194.238 108.191 195.35 107.255 195.801 107.712C195.947 107.86 196.023 108.045 196.054 108.243C195.721 108.19 195.291 108.187 195.209 108.374C194.261 110.554 193.134 112.646 191.838 114.639C191.808 114.685 191.877 114.732 191.994 114.771C191.862 114.9 191.728 115.029 191.593 115.156C191.058 115.659 190.506 116.142 189.942 116.613ZM186.353 113.433C186.399 113.413 186.434 113.387 186.451 113.355C187.092 112.171 187.732 110.988 188.372 109.805C188.583 110.92 188.392 112.085 187.959 113.131C187.905 113.245 187.854 113.36 187.805 113.475C187.778 113.532 187.751 113.59 187.722 113.646C187.715 113.66 187.714 113.672 187.717 113.684C187.541 114.125 187.396 114.578 187.283 115.046C187.245 115.202 188.459 115.354 188.532 115.05C188.646 114.577 188.796 114.117 188.976 113.672C189.872 112.371 190.89 111.159 192.03 110.063C192.05 110.044 192.07 110.026 192.089 110.008C191.443 111.085 190.796 112.163 190.149 113.24C189.747 113.91 189.344 114.581 188.942 115.251C188.634 115.763 188.155 116.34 188.206 116.974C188.228 117.248 189.222 117.148 189.37 117.062C189.406 117.042 189.441 117.021 189.475 117C189.095 117.31 188.71 117.617 188.324 117.919C187.79 116.379 186.995 114.932 186.353 113.433ZM185.448 110.637C185.442 110.608 185.438 110.578 185.433 110.549C185.593 110.536 185.723 110.498 185.766 110.424L187.344 107.691C187.542 107.915 187.718 108.158 187.866 108.418C187.195 109.659 186.523 110.9 185.852 112.141C185.686 111.651 185.546 111.152 185.448 110.637ZM185.833 106.803C185.833 106.803 185.885 106.754 185.942 106.703C186.037 106.739 186.144 106.768 186.224 106.808C186.375 106.884 186.519 106.972 186.657 107.069C186.52 107.085 186.412 107.122 186.374 107.189L185.299 109.051C185.3 108.933 185.303 108.815 185.311 108.698C185.35 108.103 185.433 107.277 185.833 106.803ZM186.077 106.595C186.085 106.619 186.066 106.626 186.032 106.624C186.058 106.603 186.076 106.591 186.077 106.595ZM196.349 107.289C194.676 106.86 193.197 107.912 192 108.915C191.178 109.603 190.408 110.348 189.692 111.142C189.739 110.512 189.682 109.875 189.482 109.255C189.053 107.918 187.995 106.75 186.609 106.376C186.011 106.214 185.13 106.169 184.673 106.659C184.205 107.162 184.105 108.039 184.062 108.693C183.963 110.204 184.392 111.712 184.966 113.102C185.717 114.92 186.717 116.632 187.271 118.526C187.286 118.577 187.332 118.614 187.397 118.643C187.344 118.684 187.289 118.726 187.236 118.768C187.077 118.89 187.639 118.972 187.673 118.976C187.901 118.996 188.248 119.011 188.441 118.862C191.448 116.533 194.577 114.098 196.475 110.735C197.025 109.761 198.085 107.734 196.349 107.289Z" fill="#DF5152"/>
<path fill-rule="evenodd" clip-rule="evenodd" d="M86.8618 47.4234C86.8644 47.426 86.867 47.4287 86.8696 47.4314C86.8722 47.434 86.8749 47.4367 86.8775 47.4394C86.8722 47.434 86.867 47.4287 86.8618 47.4234Z" fill="#00473E"/>
<path fill-rule="evenodd" clip-rule="evenodd" d="M234.419 58.1289C231.296 55.8012 227.872 53.8686 224.267 52.3391C214.905 47.9504 204.294 45.2248 194.234 44.6371C188.838 44.3187 183.286 45.1154 178.297 47.2372C177.943 40.9156 171.173 34.8998 166.128 32.2075C158.928 28.3646 149.908 27.3713 141.861 27.3286C140.946 27.3235 140.035 27.3596 139.128 27.4156C135.259 27.1917 131.339 27.3698 127.404 27.8434C117.182 29.0754 107.063 32.2017 97.9632 37.0206C94.6002 38.8023 87.1565 41.8955 85.7931 46.348C82.4174 43.1969 78.0641 41.2415 73.7136 39.832C71.8334 39.2213 69.896 38.7356 67.948 38.4124C63.3506 35.7868 58.0162 33.965 52.7036 34.6452C48.0532 35.2405 42.8802 38.4618 39.5708 41.6659C36.2227 44.9052 35.012 49.3964 34.3848 53.8682C33.5656 59.7114 33.072 65.16 34.2495 70.9913C34.2699 71.3742 34.2904 71.7512 34.3164 72.1342C32.3275 80.168 33.3243 88.9669 37.8004 96.1787C38.4425 97.2124 40.3153 96.6006 39.8688 95.3492C39.173 93.394 39.2946 91.3937 39.0872 89.3636C38.8762 87.2976 38.1759 85.1928 37.7876 83.1415C37.7477 82.9316 37.7123 82.7217 37.6741 82.5118C37.7751 82.7707 37.8742 83.0355 37.9777 83.2944C38.5747 85.5467 39.3146 87.7597 40.1385 89.8428C40.8067 91.5345 41.6834 93.5229 43.0369 94.7726C43.3861 95.0957 43.8985 95.3859 44.4174 95.6881C44.7527 96.3278 45.061 96.9789 45.4457 97.5836C44.8487 97.8478 44.2668 98.1063 43.6939 98.365C30.7111 98.173 24.0835 111.318 24.4438 123.351C24.2746 124.119 24.1245 124.887 23.9943 125.656C23.9024 126.198 23.8242 126.747 23.7524 127.29C23.4132 128.658 23.1479 130.04 22.9696 131.43C21.2127 145.164 28.2564 159.649 39.7187 167.256C44.5459 170.463 52.1376 174.377 58.1337 173.445C59.5427 173.226 60.7854 172.531 62.1491 172.143C63.3286 171.805 64.7407 173.803 65.3762 174.526C65.746 174.945 66.0977 175.382 66.4432 175.825C66.5088 175.963 66.5816 176.096 66.6591 176.235C66.7645 176.619 66.895 176.998 67.0796 177.36C68.9201 180.968 71.0234 184.443 72.7514 188.097C74.2517 191.268 76.4712 194.356 79.1377 196.634C84.1104 200.896 90.7091 203.274 97.0409 204.554C110.508 207.271 124.179 202.466 134.193 193.352C139.561 188.469 143.237 182.247 146.28 175.727C146.392 175.489 146.495 175.246 146.605 175.009C148.8 172.735 150.825 170.303 152.658 167.694C154.332 165.315 155.747 162.758 156.992 160.127C158.682 162.596 161.638 164.49 164.658 165.944C168.47 169.76 172.404 172.915 177.993 174.002C184.621 175.293 191.602 173.692 197.778 171.274C210.462 166.308 220.43 156.398 224.568 143.304C226.745 136.421 226.551 129.185 224.374 122.337C224.245 121.935 224.108 121.526 223.963 121.123C229.868 122.317 236.503 121.881 241.985 119.552C246.742 117.54 249.349 113.69 250.582 109.181C250.858 108.917 251.13 108.647 251.395 108.377C268.341 91.0662 250.375 69.1339 234.419 58.1289ZM249.82 89.7822C250.927 93.8548 251.714 98.8602 251.443 103.661C252.133 102.699 252.751 101.682 253.27 100.622C258.204 90.501 252.721 79.6846 245.846 71.8677C247.466 75.8062 248.112 80.2053 248.046 84.5079C248.74 86.2359 249.336 87.9981 249.82 89.7822ZM237.15 113.44C241.091 112.381 244.909 110.304 248.016 107.491C249.299 102.487 248.699 96.5404 247.393 91.4241C246.773 95.376 245.756 99.3566 244.182 102.975C242.637 106.515 240.373 108.818 236.291 107.961C235.198 107.732 235.493 105.98 236.587 106.036C241.274 106.276 242.382 100.772 243.464 97.2113C244.588 93.5195 245.376 89.6782 245.57 85.8142C240.571 73.2372 230.239 62.2259 216.472 59.9336C209.264 58.7338 201.862 59.3297 194.711 60.6355C191.312 61.2557 187.849 62.604 184.377 62.667C180.969 62.7311 178.073 61.2384 174.772 60.7127C173.885 60.5772 173.748 59.3314 174.302 58.7915C176.271 56.8663 178.764 55.7037 181.131 54.3536C183.57 52.9569 186.091 51.6873 188.737 50.7308C192.595 49.3358 196.654 48.4525 200.754 48.1557C196.967 47.5017 193.132 47.1995 189.347 47.5079C185.731 47.8074 181.827 48.5082 178.581 50.2131C177.183 50.941 175.847 51.7539 174.845 53.0031C174.209 53.7986 173.636 54.5773 172.685 54.9965C169.833 56.2363 167.771 52.4931 166.115 50.939C163.036 48.0442 159.144 46.0075 155.26 44.3894C148.226 41.4652 140.627 39.2589 132.995 38.7783C125.385 38.2993 117.549 39.2981 110.771 43.0022C107.167 44.9697 103.912 47.4634 100.957 50.3092C100.602 50.9245 100.262 51.564 99.9537 52.2279C99.7519 52.6606 99.267 52.6937 98.8965 52.5077C97.2865 54.4692 95.9504 56.6389 94.2096 58.4665C94.5642 58.7718 94.9201 59.0711 95.2704 59.3823C96.0586 60.0779 95.1856 61.437 94.2235 61.1088C92.3243 60.459 90.5995 59.5133 88.9553 58.4317C87.8562 58.5852 86.8154 58.2497 85.8615 57.6647C85.3844 58.4272 83.8623 58.1905 83.7837 57.0175C83.7484 56.4909 83.6034 55.9921 83.3773 55.5158C82.9486 55.0478 82.5528 54.5745 82.1981 54.1437C81.8774 53.7494 81.5395 53.3787 81.2109 52.9902C79.1275 51.3626 76.1631 50.1735 73.762 49.4129C73.6068 49.3743 73.4521 49.3416 73.2945 49.3089C64.7457 47.6785 55.7694 50.392 48.6659 55.2134C46.6793 56.5584 44.8975 58.0506 43.3312 59.6901C41.7991 62.0116 40.615 64.5546 39.8915 67.2076C38.8568 70.9966 38.8808 74.8943 39.6375 78.7276C40.8109 82.1918 42.1736 85.5996 43.9947 88.7586C46.0939 91.4026 48.7616 93.5308 51.9822 94.8561C52.1028 94.8224 52.2329 94.7948 52.3815 94.7975C53.5299 94.8301 54.2716 95.1902 54.5583 96.349C54.7791 97.2496 53.933 98.0772 53.0401 97.816C51.5954 97.3955 50.2397 96.8092 48.9652 96.0988C49.0541 96.2797 49.1199 96.4722 49.1461 96.658C49.1489 96.676 49.1483 96.6939 49.1508 96.7119C50.3402 97.5642 51.1875 98.3625 51.7066 99.7765C52.0209 100.631 51.3175 101.623 50.4964 101.823C49.1687 102.152 47.9823 101.957 46.6445 102.052C44.8427 102.181 43.0307 102.848 41.4779 103.753C39.8792 104.68 38.3705 105.753 36.993 106.983C36.3492 107.827 35.7705 108.707 35.2669 109.6C33.3998 112.908 31.2593 116.02 29.6473 119.482C28.6807 121.556 27.8529 123.675 27.1954 125.833C27.1035 126.352 27.0229 126.876 26.9491 127.401C27.2011 128.613 27.5337 129.791 27.9583 130.916C30.9771 138.926 37.2234 145.931 44.7755 149.946C52.1114 153.85 61.5975 156.257 69.744 153.696C70.6988 153.396 71.3401 154.956 70.4011 155.339C61.9513 158.792 51.2747 156.31 43.5736 151.921C36.2806 147.767 29.7628 141.146 26.5372 133.251C26.5278 140.042 28.2122 146.827 32.2602 152.315C37.03 158.779 43.8898 161.73 51.5648 163.41C55.5261 164.283 59.6042 164.906 63.6615 164.83C65.9661 164.782 67.8368 166.053 68.6498 168.225C69.3632 170.127 69.2828 172.236 69.6198 174.214C72.5488 176.407 75.3235 178.842 78.5809 180.532C82.4194 182.52 86.5784 183.827 90.8445 184.519C98.6642 185.778 106.699 185.462 114.546 184.575C118.694 184.106 122.926 183.381 126.977 182.145C128.605 180.722 130.08 179.081 131.465 177.259C132.046 176.486 133.329 177.221 132.768 178.053C132.106 179.028 131.408 179.96 130.673 180.837C133.188 179.818 135.595 178.559 137.817 176.973C141.414 174.408 144.31 171.148 146.587 167.483C147.538 165.253 148.44 162.992 149.1 160.672L149.11 160.635C149.797 158.22 150.511 155.709 152.409 153.953C153.737 152.728 155.621 154.681 154.352 155.973C152.208 158.146 151.985 161.985 150.891 164.745C150.719 165.178 150.546 165.612 150.373 166.051C151.506 164.416 152.536 162.713 153.433 160.936C154.084 159.65 154.548 157.752 155.621 156.689C155.493 155.742 155.54 154.739 155.806 153.662C156.095 152.495 157.813 153.034 157.579 154.184C157.458 154.779 157.436 155.353 157.483 155.904C159.319 156.009 161.909 158.96 163.01 160.044C164.765 161.767 166.429 163.59 168.183 165.254C171.347 166.465 174.49 167.262 176.479 167.681C186.515 169.786 196.946 167.834 204.734 160.873C212.182 154.211 215.995 144.764 215.123 134.748C214.687 129.731 213.251 124.743 210.532 120.468C209.017 118.092 207.389 115.54 205.358 113.567C204.227 112.464 203.393 111.499 203.39 109.861C203.388 109.245 203.844 108.698 204.432 108.541C206.76 107.919 208.755 109.043 210.486 110.551L210.721 110.755C213.178 112.898 215.53 114.949 218.581 116.238C218.266 115.718 217.936 115.216 217.562 114.749C216.942 113.979 216.174 113.152 215.782 112.236C215.101 110.64 215.061 108.147 217.32 107.751C218.867 107.478 220.361 108.405 221.631 109.193L221.677 109.222C223.558 110.398 225.3 111.84 227.225 112.932C229.988 114.495 234.204 114.23 237.15 113.44ZM222.488 117.569C228.012 119.068 234.199 119.233 239.508 117.302C241.925 116.425 243.769 115.054 245.156 113.363C241.817 115.407 238.082 116.786 234.192 117.021C231.478 117.181 228.013 117.053 225.618 115.569C223.886 114.504 222.278 113.244 220.563 112.143C219.97 111.768 219.376 111.374 218.747 111.058C218.639 110.997 218.528 110.941 218.415 110.885C218.835 111.807 219.535 112.561 220.1 113.39C220.99 114.691 221.787 116.11 222.488 117.569ZM178.827 171.172C186.205 172.345 194.045 170.185 200.614 166.866C213.539 160.333 224.249 146.873 223.412 131.699C223.195 127.768 222.295 123.872 220.678 120.274C217.662 119.329 214.728 117.974 212.216 116.057C210.774 114.955 208.78 112.283 206.773 111.44C207.533 112.626 208.784 113.945 209.231 114.527C210.039 115.588 210.857 116.649 211.603 117.756C213.154 120.055 214.506 122.459 215.457 125.07C217.231 129.944 218.063 135.255 217.573 140.44C216.574 151.003 211.141 160.355 202.007 165.947C193.376 171.225 183.117 172.068 173.543 169.332C175.128 170.209 176.859 170.862 178.827 171.172ZM93.2061 200.241C107.191 204.36 122.088 200.725 132.588 190.495C135.556 187.602 137.992 184.352 140.089 180.875C139.815 181.091 139.547 181.308 139.27 181.524C129.139 189.256 116.449 194.347 103.674 195.025C97.3696 195.36 90.9885 194.725 85.197 192.057C83.2865 191.173 81.4805 190.125 79.7609 188.952C78.6094 188.399 77.5109 187.758 76.4918 187.01C76.1077 186.722 75.7344 186.429 75.3679 186.123C75.5746 186.516 75.7802 186.902 75.9906 187.288C79.7505 194.14 85.8096 198.063 93.2061 200.241ZM135.558 180.71C132.977 182.164 130.209 183.303 127.357 184.19C125.127 186.081 122.583 187.565 119.62 188.558C112.705 190.878 105.07 192.086 97.7767 192.086C97.7164 192.085 97.6549 192.084 97.5945 192.089C99.6197 192.239 101.669 192.24 103.726 192.103C115.027 191.357 126.236 187.261 135.558 180.71ZM78.2409 182.768C76.3549 181.783 74.6346 180.587 72.9608 179.325C76.1734 182.844 80.0486 186.01 84.104 188.223C84.5066 188.446 84.9125 188.656 85.3216 188.855C89.9929 190.093 95.0055 190.386 99.722 190.172C106.193 189.882 113.033 188.972 119.162 186.769C120.12 186.427 121.031 186.031 121.9 185.593C120.091 185.966 118.276 186.268 116.478 186.505C108.137 187.604 99.4332 188.171 91.0957 186.783C86.6656 186.046 82.2392 184.866 78.2409 182.768ZM58.703 170.347C61.0781 169.41 63.1108 168.616 65.285 170.37C65.5604 170.596 65.825 170.828 66.0827 171.072C66.0041 170.563 65.8894 170.07 65.7111 169.589C64.9522 167.567 62.9354 168.206 61.1925 168.061C59.3071 167.907 57.4322 167.7 55.5603 167.428C49.166 166.499 41.6714 164.816 36.3248 160.882C36.9068 161.449 37.5072 161.998 38.1345 162.523C41.1283 165.016 44.647 167.028 48.2627 168.474C51.1442 169.625 55.6028 171.565 58.703 170.347ZM37.9161 101.889C38.5802 101.309 39.2508 100.819 39.9303 100.377C33.224 102.181 28.9148 108.159 27.2128 115.038C28.3713 112.531 29.8106 110.16 31.5696 108.015C33.18 106.048 35.0386 104.169 37.1171 102.634C37.3766 102.382 37.638 102.129 37.9161 101.889ZM36.5125 61.2469C36.4646 62.597 36.4792 63.9362 36.5609 65.2647C37.3006 61.5779 38.7533 58.1192 40.9789 55.2303C46.0666 48.6272 54.0716 45.6272 62.1941 45.4268C64.5005 45.2472 66.8637 45.3674 69.2512 45.8229C70.5242 46.067 72.0828 46.4298 73.7292 46.9197C74.526 47.1433 75.3122 47.3906 76.0913 47.6616C75.2279 46.863 74.3481 46.0821 73.4342 45.3304C72.3562 44.4442 71.2253 43.575 70.0511 42.7589C69.5715 42.6307 69.0898 42.5204 68.606 42.428C62.4015 41.2343 56.0155 42.5001 50.1 44.4797L50.0209 44.5048L50.0188 44.5055C49.8672 44.5536 49.7138 44.6023 49.5612 44.6553C49.1294 45.048 48.7083 45.4648 48.2994 45.9177C47.8189 46.4471 47.1704 46.011 47.0919 45.4596C45.2411 46.0838 43.4091 46.798 41.8235 47.8753C41.2527 48.2655 40.8044 48.6818 40.363 49.0565C38.2465 52.8858 37.0461 56.9766 36.5125 61.2469ZM45.2315 40.5067C44.2969 41.1234 43.4178 41.795 42.6178 42.5158C40.7202 44.227 39.5034 46.1478 38.678 48.2371C39.6761 46.4797 40.8596 44.8154 42.2674 43.2567C43.1947 42.2393 44.1854 41.3187 45.2315 40.5067ZM48.4423 43.5413C51.4931 40.4521 55.226 38.8211 59.2136 38.2342C52.4091 37.5402 46.379 40.2416 42.2125 46.107C42.1988 46.1306 42.1864 46.1483 42.1727 46.166C42.9249 45.7193 43.6989 45.3148 44.5226 45.0009C45.8206 44.5042 47.1266 44.0137 48.4423 43.5413ZM66.3038 40.4116C66.1401 40.3214 65.9732 40.2377 65.8081 40.1498C61.5161 39.6696 57.2619 40.0736 53.4995 41.9467C57.6263 40.8255 62.0183 40.0331 66.3038 40.4116ZM85.2528 51.9751C84.7674 51.3746 84.2342 50.809 83.6128 50.2658C82.0688 48.923 80.3748 47.6551 78.5768 46.5288C79.5057 47.4063 80.4187 48.3015 81.3116 49.2202C81.5726 49.4879 81.8705 49.8519 82.1956 50.2702C83.2316 50.8029 84.2497 51.3712 85.2528 51.9751ZM89.7737 54.9676C89.0509 53.1912 87.7692 51.4107 86.4718 49.9408C86.3816 50.0109 86.2756 50.0568 86.1609 50.0607C86.8172 50.7241 87.4168 51.4462 87.909 52.2381C88.3378 52.9273 88.7623 53.7657 89.2396 54.5813C89.4189 54.7041 89.5957 54.8388 89.7737 54.9676ZM102.017 36.9657C99.0742 38.3347 96.0904 39.7825 93.2975 41.4382C91.2078 42.6797 87.4584 44.6624 86.8072 47.3645C86.8251 47.3857 86.8434 47.4047 86.8618 47.4234L86.8696 47.4314L86.8775 47.4394C86.8958 47.458 86.9141 47.477 86.932 47.4983C88.6055 49.3396 90.816 51.9676 91.8329 54.6878C93.5517 49.9069 98.8143 46.3614 102.626 43.531C103.843 42.6264 105.099 41.7882 106.386 41.017C109.022 38.7966 112.005 36.9137 115.104 35.1804C118.777 33.1264 122.637 31.3273 126.634 29.9689C118.163 31.0764 109.728 33.3782 102.017 36.9657ZM171.123 38.4047C168.502 35.6533 165.238 33.6763 161.659 32.4187C158.725 31.3879 155.609 30.6002 152.436 30.0708C153.681 30.5236 154.916 31.0337 156.139 31.6158C160.215 33.5572 164.161 36.0085 167.361 39.2288C169.96 41.8441 172.658 45.3902 176.175 46.8941C175.721 43.7178 173.192 40.5777 171.123 38.4047ZM163.293 45.2813C164.679 46.1072 165.997 46.9977 167.196 48.0773C167.051 47.71 167.04 47.2914 167.186 46.9294C163.463 41.8933 156.212 39.8893 150.395 38.6685C148.48 38.2664 146.546 37.9381 144.601 37.6825C151.243 39.3055 157.655 41.9214 163.293 45.2813ZM152.108 36.1805C158.932 37.799 166.691 40.2765 170.474 46.6718C170.946 47.4694 170.466 48.5666 169.572 48.7836C169.33 48.839 169.088 48.9004 168.846 48.9558C168.547 49.0281 168.28 49.0054 168.047 48.9295L168.144 49.0346C169.304 50.287 171.455 52.6093 171.77 52.2722C172.975 50.9788 174.046 49.7847 175.392 48.8107C172.673 47.638 170.427 45.3739 168.395 43.3049C165.495 40.347 162.568 37.614 158.959 35.516C152.746 31.9049 145.958 29.9284 138.942 29.4374C131.223 30.0534 123.872 32.6066 117.108 36.3277C119.738 35.5604 122.444 35.0221 125.209 34.7324C134.116 33.799 143.371 34.1085 152.108 36.1805ZM238.428 64.7464C230.661 58.3601 221.724 53.9013 211.939 50.9275C211.832 50.8915 211.724 50.8609 211.617 50.8305L211.6 50.8258C209.185 50.4117 206.743 50.1884 204.303 50.1743C199.192 50.154 194.05 50.958 189.27 52.8086C186.587 53.8541 184.113 55.1844 181.601 56.5737C180.239 57.3322 178.839 58.0602 177.58 58.982C178.393 59.1939 179.197 59.4415 180.027 59.6776C184.649 60.9922 188.712 59.2722 193.229 58.421C196.58 57.794 199.961 57.2572 203.363 57.0016C210.553 56.4497 218.196 56.7846 224.908 59.691C233.477 63.396 240.481 70.2887 245.129 78.46C244.178 73.2006 241.857 68.6159 238.428 64.7464Z" fill="#00473E"/>
<path d="M211.374 185.589C210.876 185.428 210.461 185.931 210.661 186.402C211.528 188.452 212.707 190.31 211.773 192.567C211.451 193.344 210.931 194.074 210.294 194.695C211.533 193.155 212.231 190.567 211.493 188.679C211.291 188.165 209.837 185.907 210.742 185.628C211.579 185.371 212.165 185.159 212.63 184.355C212.711 184.215 212.771 184.074 212.819 183.932C212.787 185.046 212.441 185.938 211.374 185.589ZM206.743 196.523C204.847 196.769 202.835 195.714 201.496 194.444C200.769 193.758 200.216 192.887 199.919 191.927C199.55 190.732 200.093 189.482 200.319 188.309C200.34 188.194 200.363 188.048 200.378 187.886C200.552 187.921 200.733 187.943 200.919 187.953C198.572 190.892 201.065 195.184 204.752 196.294C205.442 196.503 206.167 196.569 206.876 196.5C206.831 196.509 206.787 196.517 206.743 196.523ZM196.832 179.318C196.434 180.683 196.392 182.232 196.702 183.639C196.051 182.29 196.085 180.701 196.832 179.318ZM209.365 185.978C209.416 187.544 210.642 188.738 210.662 190.362C210.686 192.397 209.709 194.363 207.816 195.171C203.641 196.951 198.205 190.547 202.893 187.686C203.395 187.379 203.181 186.444 202.54 186.632C201.615 186.906 200.814 186.87 200.138 186.613C200.109 186.579 200.077 186.55 200.042 186.524C199.723 186.304 199.405 186.13 199.091 185.957C196.982 184.013 196.924 179.33 199.174 177.434C199.795 177.274 200.478 177.241 201.201 177.293C202.776 177.401 204.857 178.008 205.775 179.42C206.041 179.828 206.728 179.673 206.622 179.128C206.6 179.007 206.577 178.889 206.554 178.771C206.507 178.532 206.329 178.424 206.145 178.422C206.043 178.307 205.937 178.192 205.822 178.085C207.207 178.695 208.541 179.435 209.767 180.328C210.693 181.001 211.993 182.065 211.91 183.356C211.81 184.93 209.309 184.276 209.365 185.978ZM205.385 176.342C207.016 175.489 208.305 176.168 209.648 177.24C210.83 178.184 211.72 179.405 212.326 180.791C212.416 180.998 212.545 181.464 212.649 182.03C212.422 181.54 212.087 181.08 211.726 180.691C210.428 179.287 208.644 178.338 206.952 177.517C206.247 177.176 205.524 176.86 204.782 176.604C204.977 176.537 205.177 176.452 205.385 176.342ZM213.917 184.376C214.241 182.282 213.474 180.244 212.335 178.53C211.295 176.961 209.572 175.551 207.8 174.957C207.001 174.688 206.218 174.795 205.458 175.117C205.091 175.271 204.749 175.494 204.386 175.663C203.735 175.966 202.918 175.742 202.246 175.625C200.766 175.366 199.576 175.703 198.671 176.409C198.058 176.599 197.501 176.894 197.04 177.303C193.413 180.532 195.364 185.568 199.148 187.432C199.243 188.916 198.458 190.329 198.653 191.858C198.803 193.035 199.576 194.151 200.332 195.013C201.857 196.749 204.35 197.935 206.664 197.782C209.268 197.612 211.469 195.706 212.704 193.464C214.009 191.094 213.078 188.966 212.096 186.777C213.093 186.571 213.732 185.57 213.917 184.376Z" fill="#00473E"/>
<path d="M229.542 220.813C228.552 220.713 227.577 220.445 226.694 219.994C227.117 219.975 227.554 219.901 228.003 219.763C229.145 219.417 230.061 218.595 231.24 218.307C232.096 218.1 233.186 218.855 233.97 219.376C234.195 219.708 234.457 219.994 234.749 220.236C233.14 220.869 231.322 220.998 229.542 220.813ZM222.64 213.658C222.567 213.692 222.498 213.734 222.429 213.777C222.42 213.636 222.416 213.491 222.414 213.347C222.486 213.453 222.56 213.555 222.64 213.658ZM227.741 198.274C227.879 198.167 228.024 198.074 228.169 197.985C226.859 199.324 225.963 200.874 225.4 202.541C225.37 202.559 225.339 202.576 225.309 202.602C224.76 203.066 224.273 203.579 223.838 204.128C224.597 201.87 225.892 199.721 227.741 198.274ZM234.666 216.283C234.647 216.123 234.604 215.519 234.617 214.901C234.991 214.753 235.375 214.611 235.678 214.387C236.308 213.921 236.369 213.179 236.371 212.472C236.371 212.197 236.111 211.886 235.863 211.799C234.13 211.158 233.359 212.245 233.091 213.726C233.003 213.766 232.921 213.807 232.848 213.854C232.305 214.192 231.937 214.629 231.565 215.149C231.036 215.886 230.39 217.375 229.217 216.66C228.354 216.138 227.937 214.918 227.589 214.031C225.859 209.615 225.594 204.546 228.179 200.422C229.265 198.689 230.836 197.727 232.558 197.38C234.272 197.77 235.893 198.766 236.905 200.064C237.535 200.869 237.497 201.684 237.47 202.649C237.46 203.028 237.428 203.403 237.388 203.781C236.872 204.093 236.429 204.589 236.102 205.32C235.995 205.558 236.011 205.918 236.198 206.119C237.625 207.668 238.356 206.488 238.719 204.924C240.351 204.586 242.864 206.729 243.714 207.783C245.626 210.159 246.043 213.719 244.76 216.454C243.99 218.096 242.187 219.265 240.281 219.652C239.694 219.146 239.151 218.576 238.622 218.07C238.343 217.808 237.884 217.923 237.659 218.183C237.416 218.468 237.158 218.724 236.887 218.956C236.369 218.744 235.858 218.511 235.354 218.261C234.95 217.698 234.757 217.016 234.666 216.283ZM233.012 216.116C233.04 216.469 233.083 216.811 233.135 217.12C232.905 217.013 232.677 216.933 232.454 216.875C232.635 216.622 232.816 216.363 233.012 216.116ZM223.504 216.826C223.446 216.726 223.388 216.631 223.33 216.535C222.896 215.863 223.243 215.362 224.375 215.024C225.385 215.34 226.019 213.972 225.037 213.493C223.42 212.707 222.96 211.032 222.952 209.302C223.308 207.816 223.908 206.36 224.801 205.119C224.551 206.952 224.628 208.857 224.965 210.716C225.317 212.66 226.023 216.547 227.989 218.033C227.797 218.132 227.603 218.223 227.405 218.304C225.855 218.946 224.426 217.981 223.504 216.826ZM239.85 199.217C241.629 200.55 243.08 202.325 244.686 203.851C246.44 205.525 248.111 207.279 248.535 209.748C248.615 210.218 248.661 210.721 248.672 211.247C248.59 210.851 248.497 210.463 248.393 210.09C248.246 209.559 247.373 209.803 247.469 210.336C247.874 212.584 248.002 214.897 247.308 217.065C246.514 218.455 245.358 219.528 243.798 219.871C244.05 219.719 244.288 219.556 244.504 219.386C248.359 216.379 247.546 210.333 245.001 206.811C243.82 205.179 241.171 203.34 238.968 203.357C239.039 202.656 239.057 202.03 239.052 201.693C239.027 200.044 238.099 198.67 236.785 197.656C237.877 197.993 238.926 198.524 239.85 199.217ZM249.062 206.492C248.018 204.643 246.332 203.219 244.817 201.77C243.017 200.055 241.41 198.04 239.17 196.861C237.125 195.788 234.638 195.355 232.355 195.794C231.831 195.711 231.318 195.678 230.837 195.698C226.085 195.898 223.337 200.462 222.085 204.563C221.634 206.04 221.285 207.868 221.348 209.609C221.057 210.935 220.925 212.304 220.934 213.637C220.94 214.72 221.194 215.777 221.645 216.709C222.335 218.643 224.058 220.404 225.783 221.42C228.637 223.091 233.603 223.182 236.689 221.194C237.506 221.4 238.398 221.439 239.295 221.355C239.988 221.488 240.69 221.582 241.386 221.619C241.799 221.825 242.225 221.977 242.67 222.035C244.46 222.269 245.767 221.357 246.97 220.112C247.022 220.058 247.067 219.999 247.118 219.941C247.644 219.474 248.112 218.902 248.497 218.197C250.392 214.714 251.076 210.053 249.062 206.492Z" fill="#00473E"/>
<path d="M236.137 210.104C238.3 209.767 239.711 208.263 240.242 206.182C240.8 203.999 239.128 201.914 237.439 200.803C232.669 197.68 227.474 201.602 225.13 205.816C222.39 210.742 219.543 219.333 223.789 224.19C225.247 225.857 228.054 226.815 230.063 225.565C231.933 224.401 232.907 222.229 231.981 220.148C231.387 220.392 230.793 220.636 230.199 220.879C231.786 223.743 234.104 226.421 237.39 227.302C240.543 228.152 243.703 227.3 245.951 224.927C248.522 222.212 247.594 217.69 246.64 214.514C245.559 210.91 243.307 207.773 240.575 205.242C240.311 205.685 240.046 206.128 239.781 206.571C244.271 208.847 245.281 214.834 242.646 218.898C242.189 219.601 243.095 220.322 243.668 219.705C247.791 215.243 245.613 207.666 240.402 205.135C239.56 204.728 238.996 205.893 239.609 206.464C243.52 210.134 247.236 217.011 245.289 222.481C244.315 225.216 240.781 226.02 238.271 225.563C235.474 225.056 233.232 222.541 231.981 220.148C231.417 219.065 229.724 219.704 230.199 220.879C231.166 223.259 228.395 224.427 226.542 223.665C224.567 222.846 223.967 220.514 223.797 218.618C223.451 214.75 224.817 210.507 226.516 207.098C227.979 204.161 230.735 201.153 234.289 201.478C238.592 201.877 240.267 207.298 235.875 209.116C235.34 209.338 235.552 210.197 236.137 210.104Z" fill="#00473E"/>
<path d="M108.257 104.86C110.151 105.227 109.383 104.674 109.018 104.448C107.841 103.617 106.921 102.616 106.366 101.312C105.695 99.1774 105.275 96.9215 105.817 94.7058C106.022 94.0498 105.983 93.4196 106.127 92.9026C106.175 92.3768 106.267 91.9033 106.407 91.4341C106.839 89.8831 107.153 88.5623 107.633 87.0158C108.586 85.0308 108.735 84.466 109.736 83.0156C110.628 81.6998 111.19 80.3054 112.217 79.0984C112.752 78.5209 113.248 77.8435 113.696 77.1617C114.079 76.6667 114.471 76.0761 114.615 75.5591C114.442 74.8202 113.655 74.9888 113.382 74.8191C113.013 74.6405 112.713 74.7575 112.504 74.9311C112.13 75.3305 111.755 75.7299 111.429 76.1337C110.489 77.4452 109.545 78.8044 108.844 80.1378C107.794 82.114 106.302 83.6638 105.122 85.4834C104.722 86.1696 104.178 86.8426 103.591 87.4634C103.147 88.0975 102.564 88.6705 102.024 89.2957C101.698 89.6995 101.376 90.0555 101.058 90.3637C100.371 91.0235 99.7402 91.5922 99.1963 92.2652C98.0782 93.4156 97.2733 94.3056 96.0377 95.6863L95.6679 96.0379C95.146 96.4719 94.5196 96.9927 93.9889 97.5223C92.8884 98.4816 92.4143 98.92 91.049 99.6139C90.6402 99.8655 90.1968 99.9693 89.6667 99.9688C89.2365 99.9292 88.9151 99.755 88.8069 99.3594C88.6162 98.8117 88.5212 98.2727 88.7129 97.7601C88.7915 97.4299 88.8223 97.0953 89.0096 96.6306C89.5981 94.9494 90.2387 93.2248 90.9706 91.5568C91.4019 90.536 91.8854 89.4718 92.3689 88.4077C92.7914 87.4825 93.3183 86.4705 93.6496 85.4887C94.3248 83.9119 96.3995 78.1256 96.6006 76.9872C96.7671 75.7011 96.4073 74.8967 94.4953 74.7209C93.9871 74.4813 93.4614 74.433 92.8702 74.5714C92.1747 74.7967 91.3313 75.0565 90.6704 75.4295C88.9051 76.2794 87.5305 77.5991 86.2728 79.2187C85.6723 79.9829 85.407 80.2477 84.4883 81.8503C84.1444 82.4453 83.896 83.0491 83.6477 83.6529C83.2818 84.4869 83.3284 85.5517 84.2361 86.1654C84.6877 86.4961 85.0398 86.3357 85.1404 85.7665C85.2536 85.5841 85.1756 85.3841 85.2843 85.2495C85.3849 84.6803 85.4289 84.2024 85.7162 83.6986C86.4002 82.0262 86.4524 81.9828 87.2447 80.706C87.6886 80.072 88.1848 79.3946 88.7199 78.8171C89.4858 77.8271 90.3555 77.2805 91.3252 76.6948L93.1383 75.8493C93.8382 75.5763 94.203 75.8027 94.1849 76.524C94.1497 76.9064 94.1277 77.1454 94.0536 77.4278C93.6173 79.0266 93.0898 80.5687 92.6146 82.0675C92.2135 83.2839 91.769 84.4481 91.2201 85.6991C90.3619 87.6928 89.7345 89.274 88.6543 91.5848C88.3405 92.3754 87.8268 93.244 87.5043 94.1302C86.0489 97.9007 85.7912 99.1303 87.38 100.722C87.6536 100.892 87.8316 101.053 88.114 101.127C88.3876 101.297 88.6178 101.415 88.9046 101.441C90.0172 101.399 90.9907 101.296 92.0038 100.762C92.9213 100.22 93.9042 99.4909 94.6916 98.792C94.8481 98.6618 96.6271 97.1384 97.3277 96.3351L97.5018 96.0137C97.7716 95.7011 97.9936 95.3841 98.2111 95.1149C98.5809 94.7633 98.9028 94.4073 99.2814 93.9601C99.3814 93.9211 99.5424 93.7431 99.6902 93.7085C100.373 93.0964 101.291 92.024 101.509 91.7548C101.566 91.1334 102.048 91.1296 102.275 90.7648C102.805 90.2352 103.401 89.5188 103.945 88.8458C104.215 88.5332 104.311 88.0118 104.911 87.7777C104.985 88.0255 104.893 88.4991 104.841 88.5425C104.688 89.1551 104.418 89.4677 104.357 90.1369C104.344 90.2803 104.183 90.4583 104.122 90.5973C104.026 91.1187 103.59 91.6571 103.672 92.3394C103.655 92.5306 103.637 92.7218 103.563 93.0042C103.131 94.5552 103.177 96.1501 103.271 97.7494C103.369 99.301 104.007 100.757 104.796 102.132C105.533 103.549 106.901 104.398 108.257 104.86ZM111.542 98.9439C111.915 99.0747 112.111 99.0445 112.337 98.6797C112.389 98.6363 112.394 98.5885 112.494 98.5495L112.668 98.2281C112.907 98.2501 113.111 98.1242 113.325 97.9028C113.612 97.399 114.683 95.714 114.731 95.7184L115 95.4058C114.905 95.397 115.213 95.1844 115.274 95.0454C115.44 94.8196 115.779 94.8026 115.766 94.4158C116.114 94.3032 116.375 94.0862 116.506 93.7126C116.845 93.6956 117.049 93.5697 117.241 93.0572C117.275 93.2049 117.367 93.2615 117.453 93.3659C117.427 93.6527 117.348 93.9829 117.327 94.2219C117.139 95.2169 117.246 96.1426 117.411 96.9772C117.545 97.6161 117.887 98.0815 118.287 98.4556C118.499 98.7644 118.643 98.7776 118.964 98.9518L119.012 98.9562C119.742 98.8787 120.555 98.9534 121.268 98.537C121.724 98.2898 122.185 97.9948 122.503 97.6866C122.868 97.3827 123.277 97.1311 123.503 96.7663C123.508 96.7185 123.651 96.7317 123.703 96.6883C123.66 96.6361 123.669 96.5405 123.669 96.5405C123.921 96.4191 123.934 96.2757 123.991 96.1845L124.891 95.3033C125.096 95.1775 125.309 94.9561 125.422 94.7737C125.535 94.5913 125.553 94.4001 125.67 94.1699L126.162 93.5403C126.427 93.2755 126.254 93.0667 125.967 93.0403L121.131 96.8855C120.874 97.0547 120.574 97.1717 120.278 97.2409C119.426 97.5964 119.278 97.631 119.226 97.6744L119.083 97.6612C119.039 97.609 118.909 97.4524 118.918 97.3568L118.819 96.8657C118.849 96.5311 118.885 96.1487 118.868 95.8097C118.929 95.6707 118.894 95.5229 118.903 95.4273C118.986 95.0493 119.069 94.6713 119.104 94.289C119.096 93.8544 119.04 93.4154 118.936 92.972C118.949 92.8286 119.01 92.6896 118.962 92.6852C118.78 92.5721 118.849 92.3375 118.824 92.0941C118.094 91.6414 118.007 91.537 117.864 91.5238C117.725 91.4628 117.634 91.4062 117.251 91.371C116.769 91.3749 116.721 91.3705 116.469 91.4919C116.06 91.7435 115.695 92.0473 115.377 92.3555C114.751 92.8763 114.164 93.4972 113.62 94.1702C113.615 94.218 113.62 94.1702 113.567 94.2136C113.624 94.1224 113.628 94.0746 113.633 94.0268C113.759 93.701 113.929 93.4274 114.055 93.1016C114.182 92.7758 114.204 92.5368 114.282 92.2066C114.365 91.8286 114.444 91.4984 114.575 91.1248C114.579 91.077 114.579 91.077 114.536 91.0248C114.245 90.5161 113.854 90.0463 113.237 89.9414C112.955 89.8672 112.851 89.954 112.772 90.2842C112.698 90.5666 112.624 90.849 112.754 91.0056C112.802 91.01 112.793 91.1056 112.788 91.1534C112.64 91.7182 112.544 92.2395 112.348 92.7999C112.077 93.6427 111.712 94.4767 111.398 95.2673C111.128 96.1101 110.962 96.8661 110.743 97.6654C110.613 98.039 111.264 98.822 111.542 98.9439ZM135.752 83.9141L135.066 82.9834C134.984 82.8312 134.906 82.6312 134.676 82.5136C134.224 82.1829 133.481 81.8736 132.269 81.4247L132.46 81.4423C132.787 81.0384 132.931 80.5215 133.161 80.1089C133.505 79.5139 133.897 78.9233 134.093 78.3629C134.646 77.5943 135.107 76.7691 135.573 75.8961C135.748 75.5747 135.913 75.3489 135.553 75.0747C135.47 74.9225 135.288 74.8093 135.253 74.6615C135.24 74.2748 134.819 74.1396 134.459 73.8654C134.367 73.8088 134.272 73.8 134.233 73.7001C134.046 73.6347 133.898 73.6693 133.776 73.9473C133.65 74.2731 133.415 74.7335 133.288 75.0593C133.123 75.2851 132.971 75.3675 132.953 75.5587C132.614 76.1059 132.47 76.6229 132.182 77.1267C131.986 77.687 131.651 78.1865 131.464 78.6512C131.229 79.1116 130.998 79.5242 130.81 79.989C130.645 80.2148 130.532 80.3972 130.462 80.6318L130.184 80.5099C129.528 80.3049 128.963 80.1566 127.934 79.8209C127.504 79.7813 126.973 79.7807 126.795 80.1499C126.734 80.2889 126.699 80.6713 126.829 80.8279C126.937 81.2235 127.085 81.1889 127.085 81.1889C127.176 81.2455 127.272 81.2543 127.315 81.3064C127.489 81.5152 127.754 81.7806 127.997 81.7548L128.796 81.9729L129.583 82.3344L129.404 82.7036L128.672 84.3716L126.703 89.0108C126.746 89.063 126.738 89.1585 126.781 89.2107L126.685 89.202C126.568 89.4321 126.411 89.5624 126.394 89.7535C126.145 90.3573 126.097 90.8831 125.857 91.3913L125.4 92.6989C125.251 93.2637 125.007 93.8197 125.002 94.3977C124.815 95.3926 124.583 96.3354 124.686 97.309C124.79 98.2825 124.893 99.2561 125.348 100.069C125.435 100.174 125.522 100.278 125.604 100.43C125.947 100.895 126.112 101.2 126.529 101.383C127.159 101.875 127.306 101.84 128.028 101.858L127.932 101.849C128.219 101.876 128.319 101.837 128.428 101.702C128.702 101.342 129.159 101.094 129.059 100.603C129.059 100.603 128.459 100.837 128.081 100.754C127.647 100.763 127.603 100.71 127.195 100.432L126.896 100.019C126.809 99.9143 126.635 99.7055 126.666 99.3709C126.601 99.0275 126.536 98.6842 126.615 98.354C126.632 98.1628 126.646 98.0194 126.459 97.954C126.659 97.876 126.52 97.815 126.433 97.7106C126.676 97.6848 126.708 96.82 126.539 96.5634C126.647 96.4288 126.76 96.2464 126.821 96.1074C126.73 96.0509 126.687 95.9987 126.735 96.0031C126.787 95.9597 126.843 95.8684 126.852 95.7729C126.887 95.3905 126.966 95.0603 127.149 94.6433C127.114 94.4955 127.184 94.2609 127.249 94.0741C127.263 93.9307 127.424 93.7527 127.432 93.6571C127.454 93.4181 127.624 93.1445 127.503 92.8923C127.612 92.7577 127.768 92.6275 127.829 92.4885C127.925 91.9671 128.165 91.4589 128.357 90.9463C128.383 90.6596 128.553 90.386 128.723 90.1124C128.81 89.6866 129.093 89.2306 129.232 88.7614C129.298 88.5746 129.411 88.3922 129.529 88.162C129.651 87.884 129.629 87.5928 129.803 87.2714C129.812 87.1758 129.773 87.0758 129.821 87.0802C130.116 87.011 130.086 86.8154 130.047 86.7154C130.008 86.6154 130.113 86.5286 130.121 86.433C130.33 86.2594 130.504 85.938 130.474 85.7424C130.583 85.6078 130.687 85.521 130.648 85.421C130.57 85.221 130.797 84.8562 130.997 84.7782L131.672 83.2014C131.676 83.1536 131.685 83.058 131.742 82.9668C132.211 83.1064 132.354 83.1196 132.489 83.2284C133.201 83.3421 134.93 83.935 135.217 84.4915C135.251 84.6393 135.581 84.7179 135.725 84.7311C136.06 84.2317 135.769 84.2531 135.752 83.9141ZM145.492 93.2454C144.258 93.5657 143.671 93.6563 142.927 93.8772C142.088 94.0892 141.206 94.2491 140.315 94.5045C140.272 94.4523 140.324 94.4089 140.328 94.3611L140.09 93.2788C139.895 92.7788 139.73 92.4745 139.466 92.2091C139.374 92.1525 139.183 92.1349 139.14 92.0827C138.61 91.552 137.941 91.4905 137.481 91.2553C137.389 91.1987 137.294 91.1899 137.25 91.1377C137.077 90.9289 137.003 90.6812 136.764 90.6592C136.382 90.624 135.908 90.5322 135.461 90.6839C134.861 90.9179 134.347 91.2563 133.878 91.647C133.564 91.9074 133.321 92.4634 132.942 92.9106C132.894 92.9062 132.741 93.5188 132.619 93.7968C132.301 94.6351 131.788 95.5037 131.752 96.4163C131.729 97.1855 131.694 98.098 132.171 98.6722C132.466 99.1331 132.818 99.5029 133.382 99.6512C133.747 99.8776 134.321 99.9304 134.794 100.022C134.886 100.079 135.077 100.096 135.272 100.066C135.716 99.9623 136.059 99.8974 136.464 99.6936C136.655 99.7112 136.855 99.6332 137.007 99.5508C137.22 99.3294 137.529 99.1168 137.79 98.8997L137.894 98.8129C138.368 98.3745 138.651 97.9185 139.073 97.5235C139.125 97.4801 139.095 97.2845 139.147 97.2411C139.452 97.0763 139.478 96.7895 139.739 96.5725L139.744 96.5247L139.652 96.4681C139.67 96.2769 139.779 96.1423 139.84 96.0033C139.857 95.8121 139.914 95.7209 140.153 95.7429C140.248 95.7517 140.348 95.7127 140.492 95.7259C140.974 95.722 141.361 95.7094 141.909 95.5188L142.604 95.2935C142.852 95.2199 143.235 95.2551 143.309 94.9727C143.313 94.9249 143.361 94.9293 143.409 94.9337L143.743 94.9645C143.934 94.982 143.952 94.7909 144.156 94.665C144.461 94.5002 144.87 94.2486 145.496 93.7278L145.535 93.2976L145.492 93.2454ZM138.529 94.5331L137.191 94.41C136.904 94.3836 136.765 94.3226 136.691 94.0748C136.57 93.8227 136.548 93.5315 136.57 93.2925C136.658 92.8667 137.01 92.7063 137.319 92.4937C137.475 92.3634 137.723 92.2898 138.01 92.3162C138.158 92.2816 138.253 92.2904 138.336 92.4426C138.539 92.8469 138.543 93.3293 138.604 93.7205C138.577 94.0073 138.503 94.2897 138.529 94.5331ZM137.967 95.9275C137.697 96.2401 137.566 96.6137 137.349 96.8829C137.075 97.2433 136.757 97.5515 136.444 97.8119C135.87 98.2893 135.157 98.7057 134.422 98.831C133.779 99.0128 133.223 98.7689 133.21 98.3821C133.189 98.0909 133.115 97.8431 133.146 97.5086C133.19 97.0306 133.242 96.457 133.478 95.9966C133.547 95.762 133.569 95.523 133.691 95.245C133.757 95.0582 133.879 94.7802 134.04 94.6022C134.323 94.1462 134.597 93.7858 134.889 93.2342C134.919 93.4298 134.997 93.6298 135.079 93.782C135.148 94.0776 135.365 94.3385 135.682 94.5605C136.038 94.8824 136.542 95.1698 137.011 95.3094C137.242 95.4269 137.62 95.5099 137.859 95.5319C138.089 95.6495 138.18 95.7061 137.967 95.9275ZM160.018 73.4686C159.944 73.2209 159.966 72.9819 159.953 72.5951C160.006 72.5517 160.014 72.4561 159.971 72.4039L159.706 72.1385C159.533 71.9297 159.311 71.7166 159.081 71.599C158.946 71.4902 158.716 71.3726 158.534 71.2595C157.882 71.0067 157.322 70.8106 156.748 71.288C156.33 71.6352 155.86 72.0258 155.395 72.3686C154.925 72.7593 154.438 73.3411 154.046 73.9317L151.866 77.2017C151.809 77.2929 151.713 77.2841 151.657 77.3753L151.2 78.1527L150.764 79.2213C150.699 79.4081 150.259 79.9943 150.159 80.0333C150.15 80.1289 148.735 82.9391 148.678 83.0303C148.461 83.2995 148.434 83.5863 148.312 83.8643C148.086 84.2291 147.903 84.6461 147.681 84.9631C147.428 85.6147 147.071 86.3531 146.814 87.0525C146.518 87.6518 146.361 88.3122 146.169 88.8248C145.964 89.4808 145.894 89.7154 145.703 90.228C145.572 90.6016 145.563 90.6972 145.545 90.8884L145.114 92.4393C144.603 94.3205 144.559 94.7985 144.454 95.4155C144.183 96.7884 144.109 97.601 144.142 98.8091C144.189 99.3437 144.237 99.8783 144.34 100.322C144.492 100.769 144.552 101.161 144.761 101.517C145.017 101.878 145.181 102.183 145.394 102.491C145.524 102.648 145.833 102.965 146.063 103.083C146.888 103.545 147.322 103.536 147.957 103.45C148.987 103.256 149.689 101.392 148.893 101.656C148.08 102.112 147.619 102.407 146.885 102.002C146.564 101.828 146.195 101.119 146.048 100.623C145.749 99.68 145.659 98.563 145.73 97.2681C145.757 96.4511 146.067 95.1782 146.233 94.4222C146.385 93.8096 146.708 92.9234 146.982 92.563C147.652 92.0944 148.491 91.3521 149.07 90.8269L150.109 90.0067C150.266 89.8765 150.288 89.6375 150.544 89.4683C150.544 89.4683 150.597 89.4249 150.688 89.4815L153.568 86.4686C153.946 86.0214 157.337 81.1273 157.38 81.1795C157.502 80.9015 157.624 80.6235 157.603 80.3323C157.564 80.2323 157.481 80.0801 157.59 79.9455C157.695 79.8587 157.808 79.6763 157.917 79.5417L158.183 78.7468L158.77 78.1259L158.687 77.9737C158.787 77.9347 159.157 77.5831 158.945 77.2744L159.642 74.9284C159.534 74.5328 159.864 74.6114 159.9 74.229L160.018 73.4686ZM157.595 75.174C157.368 76.0689 157.102 76.8639 156.693 77.6457C156.375 78.4841 155.918 79.2615 155.57 79.9043C154.999 80.8641 154.494 81.6371 153.976 82.5535C153.537 83.1397 153.197 83.6869 152.762 84.2253C152.436 84.6291 152.057 85.0763 151.64 85.4236C151.043 86.14 150.295 86.9388 149.656 87.603C149.181 88.0414 148.533 88.8012 148.111 89.1963L148.521 87.8843C148.643 87.6063 148.8 87.4761 148.861 87.3371C149.257 86.6987 149.514 85.9993 149.819 85.3043C150.15 84.8527 150.402 84.2011 150.633 83.7885C150.751 83.5583 150.72 83.3627 150.842 83.0847C150.864 82.8457 151.034 82.5721 151.208 82.2507C151.382 81.9293 151.513 81.5557 151.792 81.1475C151.901 81.0129 152.018 80.7827 152.131 80.6003C152.371 80.0921 152.667 79.4927 152.95 79.0367C153.185 78.5763 153.564 78.1291 153.847 77.6731C154.23 77.1781 154.756 76.6963 155.004 76.0925C155.3 75.4931 155.779 75.0069 156.258 74.5207C156.593 74.0213 157.11 73.6351 157.58 73.2444C157.684 73.1576 157.741 73.0664 157.798 72.9752L158.158 72.7192C158.25 72.7758 158.297 72.7802 158.345 72.7846C158.079 73.5796 157.952 74.4356 157.595 75.174ZM177.673 72.5378L177.704 71.673L177.587 71.373C177.687 71.334 177.748 71.195 177.748 71.195C177.64 70.7994 177.967 70.3956 177.906 70.0044C177.624 69.4001 177.581 68.8177 177.082 68.4826C176.457 67.943 175.666 67.6293 174.884 67.7502C173.815 67.8446 172.871 68.1435 172.132 68.8467C171.914 69.1159 171.649 69.3807 171.436 69.6021C171.223 69.8236 170.818 70.0274 170.779 70.4576C170.774 70.5054 170.774 70.5054 170.722 70.5488C170.557 70.7746 170.296 70.9916 170.13 71.2174C170.083 71.213 170.03 71.2564 170.026 71.3042C169.743 71.7602 169.512 72.1728 169.195 72.481C169.143 72.5244 169.143 72.5244 169.134 72.62L168.629 73.393C168.563 73.5798 168.398 73.8056 168.185 74.027C167.963 74.344 167.889 74.6264 167.719 74.9C167.384 75.3994 167.153 75.812 166.874 76.2202L166.326 77.4712C166.108 77.7404 165.925 78.1574 165.62 78.8524C165.084 79.96 164.553 81.0198 164.156 82.1884C163.795 82.9745 162.841 85.4897 162.78 85.6287C162.57 86.3325 162.417 86.9451 162.217 87.5533C161.899 88.3917 161.689 89.0954 161.424 89.8904L160.651 93.0489C160.633 93.2401 160.572 93.3791 160.516 93.4703C160.511 93.5181 160.398 93.7005 160.389 93.7961C159.98 94.5779 159.993 94.4345 159.989 94.4823L159.097 95.7981L157.639 97.4958C157.369 97.8084 156.965 98.0122 156.739 98.377C156.325 98.6764 156.042 99.1324 155.582 99.4275C155.164 99.7747 154.912 99.8961 154.46 100.096C154.107 100.256 153.555 100.494 152.96 100.15C153.061 99.5812 152.87 99.0335 153.262 98.4429C153.366 98.3561 153.384 98.1649 153.445 98.0259C153.467 97.7869 153.667 97.1787 153.855 96.7139C153.964 96.5793 153.972 96.4837 153.981 96.3881C154.033 96.3447 154.26 95.9799 154.373 95.7975C154.773 95.1113 155.37 94.3949 156.039 93.9263C156.252 93.7049 156.5 93.6312 156.757 93.462C157.596 93.25 158.017 93.3851 158.164 93.8807C158.198 94.5587 158.459 94.8718 159.085 94.8812L159.18 94.89C160.833 93.6923 159.457 92.4089 159.457 92.4089C159.457 92.4089 156.807 90.8155 153.645 93.7542L153.319 94.1581C153.105 94.3795 152.879 94.7443 152.596 95.2003C152.501 95.1915 152.496 95.2393 152.496 95.2393C152.379 95.4695 152.074 96.1645 151.838 96.6249L151.743 96.6161L151.738 96.6639C151.59 97.2287 151.503 97.6544 151.263 98.1626C151.115 98.7274 151.462 99.145 151.518 99.584C151.548 99.7795 151.483 99.9663 151.522 100.066C151.682 100.419 151.743 100.81 151.921 100.971C152.233 101.24 152.585 101.61 152.915 101.689C153.615 101.946 154.375 102.064 155.184 101.656C155.736 101.418 156.188 101.219 156.645 100.971C157.014 100.62 157.432 100.272 157.797 99.9687C158.119 99.6127 158.21 99.6692 158.75 99.044C158.859 98.9094 158.976 98.6792 159.081 98.5924L159.677 97.876C159.742 98.2194 159.928 98.815 160.01 99.4973L160.04 99.6929L160.17 99.8495C160.313 100.393 160.526 100.702 161.06 101.185C161.559 101.52 162.254 101.825 162.923 101.886C163.258 101.917 163.584 102.043 163.87 102.07C164.157 102.096 164.396 102.118 164.644 102.044C165.079 102.036 165.474 101.928 165.822 101.815C166.274 101.616 167.448 101.435 167.952 101.192C168.574 100.719 168.626 100.675 169.344 100.211C169.352 100.116 169.213 100.055 169.213 100.055C169.627 99.7552 169.84 99.5338 170.205 99.23C170.109 99.2212 170.806 98.4657 170.762 98.4136C170.667 98.4048 170.671 98.357 170.571 98.396C170.314 98.5652 170.067 98.6388 169.814 98.7602C168.571 99.1761 167.406 99.7919 166.171 100.112C165.385 100.281 164.646 100.454 163.976 100.392C163.351 100.383 163.112 100.361 162.508 100.113C162.325 99.9995 162.143 99.8863 161.978 99.582C161.887 99.5254 161.818 99.2298 161.822 99.182L161.727 98.643L161.642 96.9481C161.66 96.7569 161.538 96.5047 161.643 96.4179C161.808 96.1921 161.869 96.0531 161.782 95.9487C161.882 95.9097 161.895 95.7663 161.9 95.7185L161.917 95.5273C161.926 95.4317 161.935 95.3362 162.044 95.2015L164.393 92.7183C164.45 92.6271 164.511 92.4881 164.611 92.4491C164.719 92.3145 164.728 92.2189 164.833 92.1321C164.928 92.1409 164.928 92.1409 165.189 91.9239C165.407 91.6546 165.62 91.4332 165.872 91.3118C165.981 91.1772 166.281 91.0602 166.668 90.5174L167.112 89.8834C167.251 89.9444 167.377 89.6186 167.469 89.6752C167.53 89.5362 167.921 88.9456 168.204 88.4896C168.526 88.1336 169.027 87.4084 169.075 87.4128C169.388 87.1523 171.594 84.6559 171.364 84.5383L172.373 83.5225C172.638 83.2577 172.747 83.1231 172.904 82.4627L173 82.4715C173.065 82.2847 173.226 82.1067 173.335 81.9721L173.913 81.4468C174.135 81.1298 174.37 80.6694 174.388 80.4783C174.597 80.3046 174.667 80.0701 174.802 79.6487C174.95 79.6141 175.002 79.5706 175.05 79.575C175.072 79.3361 175.098 79.0493 175.168 78.8147L175.237 78.5801L175.242 78.5323C175.342 78.4933 175.437 78.5021 175.581 78.5153L175.881 77.8681C176.429 77.6774 176.408 76.8561 176.291 76.5561C176.291 76.5561 176.439 76.5215 176.448 76.4259C176.653 75.7699 176.892 75.2617 177.041 74.6969L177.363 73.8107C177.537 73.4893 177.725 73.0245 177.673 72.5378ZM175.906 71.3147C175.627 72.2531 175.361 73.0481 175.129 73.9909C174.977 74.6035 174.728 75.2073 174.428 75.8545L173.91 76.7709L172.956 78.7558C172.664 79.3074 172.333 79.759 171.95 80.254C171.384 81.1661 170.727 82.0215 170.166 82.8857C169.839 83.2895 169.47 83.6411 169.239 84.0537C168.86 84.5009 168.473 85.0437 168.095 85.4909L166.854 86.9193L165.828 88.1264C165.458 88.478 165.179 88.8862 164.866 89.1466C164.383 89.6806 163.896 90.2624 163.422 90.7008C163.209 90.9222 163.043 91.148 162.834 91.3217C162.839 91.2739 162.939 90.7047 163.109 90.4311L163.314 89.7751C163.479 89.5493 163.601 89.2713 163.767 89.0455C163.819 89.0021 163.776 88.9499 163.784 88.8543C163.784 88.8543 163.645 88.7933 163.65 88.7455C163.82 88.4719 163.664 88.0719 163.985 87.7159C163.985 87.7159 163.99 87.6681 164.046 87.5769C164.107 87.4379 164.173 87.2511 164.338 87.0253C164.199 86.9643 164.13 86.6688 164.195 86.482C164.37 86.1606 164.587 85.8914 164.666 85.5612C164.883 85.292 164.966 84.914 165.04 84.6316C165.18 84.1624 165.393 83.941 165.58 83.4762C165.702 83.1982 165.777 82.9158 165.903 82.59C165.912 82.4944 165.868 82.4422 165.877 82.3466C166.268 82.2862 166.221 81.7516 166.486 81.4868L166.87 80.4616C167.114 79.9056 167.358 79.3496 167.641 78.8936C167.767 78.5678 167.85 78.1898 167.972 77.9119C168.09 77.6817 168.194 77.5948 168.407 77.3734C168.473 77.1866 168.586 77.0042 168.66 76.7218C168.878 76.4526 169.047 76.179 169.269 75.862C169.487 75.5928 169.613 75.267 169.787 74.9456C169.957 74.672 170.131 74.3506 170.253 74.0726C170.628 73.6732 170.902 73.3128 171.124 72.9958C171.237 72.8134 171.402 72.5876 171.615 72.3662C172.159 71.6932 172.751 71.0246 173.377 70.5038L174.369 69.6791C174.521 69.5967 174.717 69.5665 174.878 69.3885L175.248 69.0369C175.452 68.9111 175.648 68.8809 175.843 68.8506C175.891 68.855 175.93 68.955 175.917 69.0984C176.233 69.8506 176.072 70.5588 175.906 71.3147Z" fill="#FCAC23"/>
<path d="M99.8044 125.331C100.348 124.583 100.416 123.835 100.008 123.087C100.144 122.883 100.144 122.747 100.144 122.543C100.008 122.339 100.144 122.067 99.8724 121.795C99.8724 121.727 99.9405 121.591 100.008 121.523C100.008 121.387 100.144 121.319 100.144 121.319C100.144 121.251 100.008 121.183 99.9405 121.183C99.8724 121.115 99.8044 121.115 99.6685 121.115C99.9405 120.843 100.008 120.707 99.9405 120.367L99.4644 118.191C99.2604 117.171 99.0565 116.083 98.5804 115.131C98.2404 114.315 97.6964 113.567 97.2205 112.751C96.8125 112.071 96.4044 111.323 95.7924 110.711C94.7724 109.691 93.7525 108.671 92.6644 107.719C92.2564 107.379 91.7805 107.039 91.2365 106.767C90.7604 106.427 90.2845 106.223 89.7404 105.883C89.9445 105.611 90.2165 104.931 90.2165 104.727C90.1484 104.591 90.0124 104.455 89.8084 104.183C89.8084 104.115 89.3325 103.843 89.3325 103.979C89.1964 103.979 88.9925 103.911 88.9244 103.843L88.1084 103.367C87.9044 103.095 87.7005 103.095 87.4285 103.367C87.1564 103.707 86.8844 104.047 86.6804 104.455L86.5444 104.591C85.8644 104.455 84.7084 104.183 83.9604 104.115C82.8044 104.047 81.5804 103.979 80.2884 103.979C79.4044 103.979 78.3164 104.047 77.4324 104.115C76.6164 104.183 75.8684 104.319 75.0524 104.455C74.1004 104.591 73.6244 104.795 72.4004 105.135L71.8564 105.135C71.5844 105.339 71.3124 105.271 70.9724 105.407C70.3604 105.679 69.7484 105.951 69.1364 106.291L68.9324 106.767L68.5244 106.971L66.9604 107.651L66.5524 107.923C66.1444 108.127 65.6004 108.263 65.1244 108.603C64.7164 108.739 64.3764 109.011 64.0364 109.215C63.3564 109.691 62.5404 110.031 61.9284 110.575C61.3844 110.983 60.8404 111.527 60.2964 111.935C59.5484 112.547 58.9364 113.295 58.3924 114.111L58.1884 114.315C58.1204 114.315 58.1204 114.247 58.1204 114.247C58.1204 114.179 58.1204 114.111 58.1884 113.975C57.6444 114.247 57.7124 114.791 57.3724 115.131C57.1004 115.471 56.8964 116.015 56.6924 116.423C56.2844 117.579 55.9444 118.667 55.8764 119.823C55.7404 120.231 55.7404 120.707 55.8764 121.183C55.8764 121.795 55.8764 122.407 56.0124 123.019C56.4204 124.583 56.8964 125.943 57.9164 127.303C58.7324 128.459 59.8204 129.343 60.8404 130.227L62.2004 131.247L63.6964 131.995C64.0364 132.199 64.4444 132.335 64.8524 132.539L67.0284 133.219C67.3004 133.287 67.5044 133.287 67.8444 133.491L67.3004 134.239L65.4644 136.687L64.9884 137.435L63.5604 139.475L62.8124 140.427L62.4724 141.175L62.3364 141.719C62.8804 142.399 63.5604 142.943 64.3764 143.215L65.2604 142.331C65.5324 141.991 66.0084 141.447 66.0764 141.311L66.7564 140.359L67.1644 139.747C67.6404 140.155 68.1844 140.563 68.7284 140.971C69.8844 141.787 70.7004 142.399 71.8564 142.875L74.7124 144.031C75.2564 144.235 75.8684 144.303 76.4124 144.439C77.1604 144.643 77.9084 144.847 78.7924 144.915L79.3364 144.915L79.3364 144.847L78.5884 144.575L78.6564 144.507L79.4724 144.507C79.8804 144.507 80.2884 144.439 80.5604 144.507C81.1724 144.643 81.5124 144.439 83.2124 144.031L83.4844 144.031C84.1644 144.099 85.2524 143.827 85.5244 143.827L86.7484 143.215L86.7484 143.147L87.0885 142.535C87.3604 142.331 87.7685 142.263 88.2444 142.059L91.6444 140.155C92.9364 139.067 94.1604 138.047 94.5004 137.571L96.4724 134.919L97.3564 133.219L97.6284 132.607L98.9204 129.479C99.1245 129.479 99.1924 129.343 99.2604 129.275L99.6004 128.935C99.6004 128.595 99.6004 127.915 99.6685 127.915C99.9405 127.779 100.008 127.643 99.7365 127.303C100.008 127.235 99.9405 127.031 99.8044 126.963L100.008 126.419C100.144 126.283 100.144 126.215 100.144 126.079C100.348 125.603 100.28 125.535 99.8044 125.331ZM66.4844 131.723C65.6684 131.451 64.8524 131.247 63.9684 130.839L62.8804 130.295C62.4724 130.023 61.9964 129.751 61.6564 129.343C61.3164 129.139 61.1124 128.731 60.8404 128.527C60.7044 128.391 60.5004 128.187 60.2284 128.051C60.1604 127.847 60.0924 127.575 59.9564 127.371C59.8884 127.235 59.6164 127.031 59.6164 126.759L58.9364 125.535L58.9364 125.467L58.7324 124.447C58.1884 123.903 58.3244 123.563 58.5284 123.291L58.1884 123.087C58.1884 122.815 58.2564 122.475 58.2564 122.271C58.3244 121.931 58.3244 121.727 58.3244 121.523L58.4604 120.775L57.9844 120.435C58.3244 120.503 58.4604 120.231 58.4604 119.959C58.3924 119.687 58.4604 119.483 58.5284 119.347L58.8004 118.463L59.1404 117.987C59.4804 117.375 59.6844 116.695 60.0924 116.083C60.4324 115.607 60.8404 115.267 61.2484 114.791L61.9964 113.839L62.1324 113.703C62.2684 113.635 62.4044 113.635 62.4724 113.567C63.0844 112.819 63.9684 112.411 64.6484 111.867C65.6004 111.051 66.5524 110.779 67.5044 110.235L67.9804 109.895C68.0484 109.827 68.1844 109.759 68.3884 109.691C68.5244 109.691 68.7284 109.691 68.7284 109.623C69.2044 109.011 69.9524 108.807 70.6324 108.399C70.9724 108.263 71.3804 108.195 71.7884 107.991C72.0604 107.923 72.1964 107.787 72.4684 107.651L73.0124 107.379C73.3524 107.243 73.6244 107.311 73.9644 107.175C74.7804 106.903 75.5964 106.495 76.6164 106.291C77.5684 106.155 78.3844 105.883 79.6764 105.747C82.3964 105.407 83.6884 105.543 85.8644 105.951L84.0964 108.467C83.8924 108.807 83.6884 109.079 83.4844 109.351C77.7044 118.803 75.0524 122.883 72.5364 126.895L72.4684 127.167C72.4004 127.167 72.1284 127.303 72.0604 127.439C71.5844 128.051 71.2444 128.731 70.7684 129.343C70.1564 130.227 69.5444 131.043 68.9324 131.995C68.7284 132.199 68.5244 132.199 68.1844 132.131C67.6404 131.927 67.0964 131.859 66.4844 131.723ZM97.5604 124.039C97.4925 124.583 97.4925 125.127 97.4245 125.603C97.2205 126.283 97.0844 126.963 96.8805 127.643L96.1324 129.547C95.7244 130.703 95.1124 131.791 94.4324 132.879C94.1604 133.491 93.6845 134.035 93.2084 134.851C93.1405 134.851 93.1405 134.919 93.1405 134.987L92.1885 136.075L91.7805 136.483L91.5085 136.823C91.3044 136.959 91.0324 137.231 90.8965 137.367C90.6924 137.435 90.4204 138.115 89.1964 138.863L89.0604 138.863L87.9724 139.543C87.3604 139.951 86.8165 140.359 86.2724 140.699L84.6405 141.515L84.6405 141.787C84.3684 141.787 84.0284 141.719 83.8244 141.787C83.1444 141.991 82.5324 142.195 81.7844 142.331C81.1724 142.535 80.5604 142.535 79.9484 142.603L77.6364 142.875C76.4124 142.943 75.5964 142.875 74.3724 142.535C73.6924 142.331 72.8764 142.059 72.1284 141.719C71.4484 141.379 70.3604 140.767 69.6124 140.223C68.9324 139.747 68.3884 139.135 67.9804 138.659L68.9324 137.367C69.3404 136.755 69.6804 136.347 69.9524 135.735C70.2244 135.395 70.4284 134.987 70.7684 134.715C71.0404 134.307 71.1764 134.239 71.3804 133.899L71.5164 133.627C72.1964 133.423 73.0124 133.695 73.4884 133.559C73.6924 133.559 73.8284 133.559 74.1004 133.627C74.9164 133.695 75.8004 133.287 76.6164 133.287C78.0444 133.287 79.3364 133.015 80.6284 132.879L81.9884 132.539C82.2604 132.471 83.0764 132.403 83.2804 131.995C83.4164 131.927 83.8244 131.927 83.8924 131.927L85.3884 131.723L85.3884 131.519C85.2524 131.519 85.1165 131.383 85.0484 131.383C84.7084 131.451 84.4364 131.451 84.1644 131.519C83.8244 131.587 83.5524 131.587 83.2804 131.587L81.4444 131.859L80.0164 131.927L78.1124 132.199L77.6364 132.199C75.8684 132.403 74.1004 132.471 72.1964 132.539C72.3324 132.471 72.3324 132.403 72.4004 132.403C72.6724 131.791 73.0804 131.247 73.4884 130.703C73.5564 130.499 73.5564 130.363 73.6244 130.227L74.3044 129.547C74.4404 129.275 74.5084 129.071 74.7124 128.731C74.9844 128.459 75.3244 128.119 75.5284 127.779L76.4124 126.351C76.5484 126.079 76.7524 125.739 77.0244 125.535C77.1604 125.195 77.4324 124.991 77.5684 124.651C77.7724 124.447 77.8404 124.175 78.1124 123.971C78.3164 123.631 78.6564 123.359 78.7924 122.951C78.9284 122.543 79.2004 122.271 79.4044 121.931L79.4044 121.659C79.8124 121.591 79.8804 121.319 80.0164 121.047C80.4924 120.231 81.0364 119.415 81.5124 118.531L82.8724 116.423C83.2124 115.947 83.3484 115.335 83.8244 114.927C84.1644 114.451 84.4364 113.771 84.7084 113.227L84.8444 112.887C85.0484 112.683 85.2524 112.479 85.4564 112.139C85.8644 111.459 86.3404 110.779 86.7484 110.031C87.2244 109.419 87.5644 108.807 87.9724 108.263C88.3124 107.787 88.5164 107.379 88.8564 106.971C89.1284 107.039 89.4004 107.175 89.6045 107.311L89.6045 107.175L90.8284 108.127C90.8965 108.195 90.8965 108.263 90.9644 108.263L93.1404 110.371L93.5484 110.779C93.7525 111.051 94.0924 111.459 94.2965 111.867L95.7244 114.179C95.8605 114.383 96.0644 114.723 96.2685 114.791L96.2685 115.131L96.4724 115.675C96.6084 116.219 96.7444 116.831 96.9484 117.307C97.3564 117.851 97.1525 118.463 97.3564 119.007C97.5604 119.619 97.4925 120.367 97.4925 120.979C97.5604 121.523 97.4925 122.067 97.5604 122.543C97.5604 122.747 97.6964 122.883 97.6964 123.087C97.6284 123.427 97.5604 123.767 97.5604 124.039ZM108.654 120.095C109.062 120.367 109.47 120.367 109.81 120.231C110.422 119.823 111.034 119.415 111.306 118.667C111.578 117.919 111.306 117.171 111.102 116.491C110.966 116.015 110.558 115.811 109.81 115.879C109.81 115.879 109.538 115.879 109.47 115.947C108.586 116.423 107.838 116.899 107.498 117.919C107.362 118.599 107.498 119.143 107.906 119.619C108.11 119.823 108.45 119.959 108.654 120.095ZM117.834 127.371C118.174 126.759 118.106 126.351 117.97 126.215C117.086 127.099 116.202 127.847 115.386 128.595C114.366 129.547 113.414 130.635 112.326 131.587C111.306 132.607 110.082 133.559 108.994 134.511C108.45 134.987 107.838 135.259 107.09 135.463C107.158 134.783 107.362 134.171 107.362 133.559C107.43 132.879 107.838 132.267 107.634 131.655C107.634 131.519 107.702 131.451 107.77 131.315C107.838 131.043 107.974 130.771 108.11 130.499C108.382 129.615 108.654 128.799 108.858 127.983C108.994 127.643 109.13 127.303 109.13 126.895C109.198 126.555 109.198 126.147 109.062 125.875C108.926 125.603 108.586 125.331 108.314 125.127C108.11 124.787 107.634 124.583 107.43 124.243C107.226 123.903 107.022 124.039 106.818 124.107C106.546 124.107 106.478 124.311 106.546 124.583L106.546 125.127C106.206 126.419 105.866 127.575 105.594 128.799C105.322 129.683 105.05 130.567 104.914 131.451C104.574 132.675 104.302 133.967 104.438 135.123C104.506 135.395 104.71 135.531 104.778 135.803C104.914 135.939 105.05 136.143 105.118 136.347C105.186 136.483 105.186 136.687 105.322 136.755C105.798 137.095 106.07 137.707 106.75 137.843C107.226 137.979 107.566 138.183 108.11 138.047C108.586 137.775 109.062 137.571 109.47 137.367C109.878 137.231 110.286 137.163 110.558 136.891C110.966 136.619 111.306 136.347 111.578 136.007C111.986 135.463 112.462 134.919 113.006 134.579L113.346 134.239C113.482 134.103 113.55 133.899 113.686 133.763L114.434 132.675C115.386 131.315 115.522 130.703 115.794 130.363C116.202 129.887 117.698 127.507 117.766 127.439L117.834 127.371ZM141.2 125.943L140.928 125.331L140.724 125.195C140.044 125.603 139.5 125.943 139.024 126.351C137.46 127.371 137.596 127.235 135.964 128.255C135.012 128.935 133.992 129.547 133.108 130.091C132.156 130.771 131.068 131.587 129.98 132.063C129.708 132.199 129.436 132.199 129.232 132.267C129.028 132.335 128.892 132.335 128.756 132.267C128.416 132.063 128.212 131.791 128.144 131.519C127.736 130.567 127.736 129.547 127.94 128.595C128.008 128.459 128.008 128.323 128.076 128.255C128.28 127.711 128.212 126.963 128.212 126.963C128.076 126.487 127.804 126.147 127.396 126.011C126.58 125.943 126.104 126.487 125.56 126.555C125.9 125.875 126.444 125.263 126.24 124.311C125.968 122.747 124.336 122.475 122.908 122.203C121.616 122.339 120.46 123.155 119.644 124.039C118.828 125.059 117.944 125.875 117.196 127.031C117.06 127.167 116.924 127.507 116.652 127.847L116.176 128.663C116.04 129.139 115.836 129.479 115.768 129.887C115.768 129.955 115.768 129.955 115.7 130.023C115.564 130.431 115.428 130.771 115.224 131.247C114.952 132.267 115.156 133.151 115.768 133.967C116.176 134.171 116.72 134.511 116.856 134.647C117.06 134.715 117.264 134.715 117.4 134.715C118.42 135.123 119.576 135.123 120.664 134.579C121.752 134.103 122.84 133.219 123.656 132.607C123.792 132.539 123.86 132.335 123.996 132.199C124.472 132.199 124.472 131.519 124.948 131.247C125.016 131.383 125.016 131.519 125.152 131.587C125.356 131.927 125.288 132.063 125.696 132.471C125.968 133.083 126.444 133.355 126.852 133.899C127.056 133.967 127.192 134.239 127.396 134.307C127.532 134.443 127.94 134.443 128.076 134.511C128.348 134.579 128.96 134.443 129.232 134.443C129.436 134.443 129.776 134.307 129.844 134.307C130.048 134.307 130.388 134.171 130.524 134.103C130.864 133.899 131.068 133.967 131.476 133.763C132.156 133.287 132.768 133.151 133.312 132.539L134.944 131.315L135.964 130.431C136.168 130.363 136.644 129.819 136.712 129.751C137.052 129.615 137.324 129.275 137.528 129.071C137.732 128.935 138.208 128.731 138.548 128.459C139.432 127.847 140.52 126.963 141.2 125.943ZM124.608 127.847C123.588 128.935 123.112 129.751 122.092 130.839C121.412 131.587 120.8 132.063 119.916 132.403C119.236 132.675 118.012 132.743 117.264 132.743C117.604 131.383 118.216 130.227 118.828 129.139C119.576 127.847 121.956 124.651 123.996 124.311C123.928 124.379 123.384 127.371 124.88 127.507L124.948 127.507C124.948 127.507 124.676 127.847 124.608 127.847ZM138.904 136.211C139.448 136.415 139.72 136.279 139.856 135.463C139.992 134.987 139.992 134.511 140.128 134.035C140.332 133.423 140.4 132.811 140.672 132.131C141.08 131.315 141.624 130.567 142.032 129.615C142.508 128.799 143.052 128.119 143.528 127.439L144.82 125.739C145.16 125.399 145.568 125.059 145.976 124.719C146.112 124.515 146.248 124.243 146.452 124.175C146.86 123.903 147.268 123.767 147.54 123.427C147.948 123.087 148.356 123.155 148.764 123.155C149.648 123.563 150.056 123.359 150.056 123.359L150.124 123.019C149.988 122.679 149.852 122.407 149.58 122.203C149.444 122.203 149.376 122.067 149.308 121.999C149.036 121.727 148.696 121.455 148.356 121.183C147.54 120.707 146.588 120.707 145.704 121.387C144.956 121.863 144.208 122.407 143.596 123.291C143.12 123.767 142.712 124.107 142.372 124.719C142.304 124.923 142.032 125.127 141.828 125.399C141.828 125.059 141.964 124.855 141.964 124.651C142.032 124.039 141.964 123.427 141.76 122.883C141.488 121.863 140.944 121.523 140.264 121.795C140.06 121.795 139.788 121.931 139.652 122.135C139.584 122.203 139.584 122.475 139.516 122.611C139.38 123.563 139.176 124.447 139.04 125.399C138.904 126.283 138.564 127.235 138.428 128.187C138.428 128.935 138.156 129.683 138.02 130.431L137.476 133.219C137.272 134.103 137.612 134.783 137.884 135.463C138.428 135.735 138.496 136.007 138.904 136.211ZM154.342 120.095C154.75 120.367 155.158 120.367 155.498 120.231C156.11 119.823 156.722 119.415 156.994 118.667C157.266 117.919 156.994 117.171 156.79 116.491C156.654 116.015 156.246 115.811 155.498 115.879C155.498 115.879 155.226 115.879 155.158 115.947C154.274 116.423 153.526 116.899 153.186 117.919C153.05 118.599 153.186 119.143 153.594 119.619C153.798 119.823 154.138 119.959 154.342 120.095ZM163.522 127.371C163.862 126.759 163.794 126.351 163.658 126.215C162.774 127.099 161.89 127.847 161.074 128.595C160.054 129.547 159.102 130.635 158.014 131.587C156.994 132.607 155.77 133.559 154.682 134.511C154.138 134.987 153.526 135.259 152.778 135.463C152.846 134.783 153.05 134.171 153.05 133.559C153.118 132.879 153.526 132.267 153.322 131.655C153.322 131.519 153.39 131.451 153.458 131.315C153.526 131.043 153.662 130.771 153.798 130.499C154.07 129.615 154.342 128.799 154.546 127.983C154.682 127.643 154.818 127.303 154.818 126.895C154.886 126.555 154.886 126.147 154.75 125.875C154.614 125.603 154.274 125.331 154.002 125.127C153.798 124.787 153.322 124.583 153.118 124.243C152.914 123.903 152.71 124.039 152.506 124.107C152.234 124.107 152.166 124.311 152.234 124.583L152.234 125.127C151.894 126.419 151.554 127.575 151.282 128.799C151.01 129.683 150.738 130.567 150.602 131.451C150.262 132.675 149.99 133.967 150.126 135.123C150.194 135.395 150.398 135.531 150.466 135.803C150.602 135.939 150.738 136.143 150.806 136.347C150.874 136.483 150.874 136.687 151.01 136.755C151.486 137.095 151.758 137.707 152.438 137.843C152.914 137.979 153.254 138.183 153.798 138.047C154.274 137.775 154.75 137.571 155.158 137.367C155.566 137.231 155.974 137.163 156.246 136.891C156.654 136.619 156.994 136.347 157.266 136.007C157.674 135.463 158.15 134.919 158.694 134.579L159.034 134.239C159.17 134.103 159.238 133.899 159.374 133.763L160.122 132.675C161.074 131.315 161.21 130.703 161.482 130.363C161.89 129.887 163.386 127.507 163.454 127.439L163.522 127.371ZM180.328 128.323C180.532 128.187 180.668 127.983 180.872 127.847C180.872 127.779 180.804 127.779 180.804 127.779L180.668 127.303L178.356 129.003C178.22 129.139 177.812 129.343 177.54 129.479C176.86 129.887 175.568 130.635 174.956 131.043L174.752 131.179L172.508 132.471C172.168 132.675 171.828 132.675 171.488 132.811C170.944 133.015 170.4 133.287 169.924 133.491C169.312 133.695 168.7 133.967 168.088 134.035C167.204 134.171 166.32 134.103 165.436 134.171C164.892 133.967 164.756 133.831 164.484 133.015C164.96 132.743 165.164 132.675 165.708 132.403C165.844 132.267 165.98 132.063 166.184 131.995C166.592 131.723 167.136 131.519 167.612 131.247C167.68 131.179 167.68 130.975 167.748 130.907L168.7 130.227C168.972 130.091 169.448 130.023 169.516 129.547C169.584 129.343 169.992 129.275 170.196 129.071C170.808 128.459 171.42 127.847 172.032 127.167C172.236 126.963 172.44 126.623 172.576 126.283C172.78 125.739 172.44 124.583 171.896 124.243C171.42 123.835 170.876 123.427 170.264 123.155C169.788 122.883 169.176 122.407 168.496 122.679C168.224 122.747 168.02 122.815 167.816 122.815C166.932 122.883 166.184 123.291 165.572 123.903C164.96 124.583 164.348 125.263 163.736 126.011C163.396 126.419 163.124 126.827 162.852 127.235C162.172 128.527 161.832 129.819 161.764 131.179C161.764 131.655 161.696 132.131 162.036 132.947C162.172 133.627 162.172 133.627 162.308 133.763C162.716 134.375 162.988 134.783 163.464 135.123C163.532 135.191 163.736 135.259 163.804 135.395C164.484 135.939 164.756 136.007 165.368 136.211C165.98 136.415 166.728 136.551 167.408 136.619C167.952 136.687 168.428 136.551 168.972 136.415C169.312 136.347 169.72 136.279 169.992 136.143C170.196 136.007 170.332 135.939 170.604 135.939C171.08 135.871 171.556 135.871 171.964 135.667C172.644 135.395 173.188 134.919 173.8 134.579C174.276 134.239 174.684 133.967 175.228 133.695L176.52 132.675C176.792 132.471 177.132 132.199 177.404 131.927C177.472 131.859 177.744 131.587 177.812 131.383L177.812 131.315C177.88 130.839 178.152 130.703 178.424 130.499C178.22 130.295 178.356 130.159 178.628 130.023L178.832 129.751C179.172 129.547 179.172 129.343 179.308 129.207L180.328 128.323ZM164.892 128.867C165.3 128.051 165.776 127.235 166.32 126.487C166.796 125.875 167.408 125.535 168.02 125.059C168.564 124.651 169.176 124.651 169.788 124.379C170.06 124.243 170.4 124.855 170.196 125.195C169.924 125.671 169.652 126.079 169.244 126.419L167.408 128.051L165.572 129.547C165.3 129.751 164.96 129.955 164.416 130.295C164.552 129.751 164.688 129.275 164.892 128.867ZM183.21 122.815C182.802 122.883 182.462 123.155 182.19 123.427C181.918 123.835 181.51 124.379 181.306 124.855C180.966 125.603 180.762 126.147 180.558 126.895C180.286 127.371 180.218 127.847 180.082 128.391L180.082 129.343C180.014 129.683 180.014 130.159 180.014 130.635C180.014 131.587 179.946 132.607 179.878 133.763L179.878 134.307L179.81 134.851L179.878 135.123L179.81 135.599L179.878 135.939L179.878 136.143L179.946 137.163L180.014 137.095C179.946 138.115 179.674 139.067 179.81 140.087C179.878 141.175 179.742 142.059 179.47 143.079C179.402 143.759 179.062 144.507 178.858 145.187C178.722 145.731 178.586 146.275 178.246 146.751C177.77 147.295 177.43 148.179 176.614 148.519C176.342 148.723 175.934 148.655 175.73 148.383C175.254 147.635 175.186 146.819 175.254 146.003C175.322 145.731 175.118 145.527 175.118 145.323C175.186 144.439 175.458 143.283 175.73 142.331C176.274 141.311 176.614 140.495 177.226 139.543L177.77 138.251L178.722 137.027L178.722 135.803C178.042 136.143 177.974 136.075 177.498 136.551C176.886 137.163 176.07 137.911 175.458 138.727C174.846 139.543 174.37 140.495 174.03 141.515C173.894 141.855 173.35 142.535 173.214 143.011C173.214 143.079 173.146 143.079 173.01 143.215L172.942 143.283C172.67 144.303 172.806 145.323 173.146 146.207C173.35 146.751 173.622 147.295 173.894 147.975C174.166 148.451 174.438 149.199 175.05 149.539C175.118 149.675 175.118 149.743 175.186 149.743C175.322 149.947 175.594 150.287 175.73 150.423C176.07 150.627 176.478 150.763 176.886 150.967C177.294 151.103 177.702 151.239 178.11 151.171L178.79 150.899C178.79 150.763 178.722 150.763 178.722 150.695C178.926 150.695 179.062 150.695 179.266 150.627C179.81 149.879 180.15 149.199 180.694 148.451C180.762 148.247 180.898 148.043 180.898 147.975C181.17 147.499 181.442 147.159 181.238 146.751C181.442 146.411 181.578 146.207 181.578 145.935C181.85 144.711 182.122 143.419 182.258 142.195C182.258 141.991 182.19 141.855 182.19 141.719C182.462 141.515 182.326 141.243 182.326 141.039C182.258 140.767 182.054 140.495 182.054 140.087C182.122 139.815 182.394 139.543 182.394 139.271C182.394 138.455 182.394 137.707 182.462 137.027C182.462 136.755 182.258 136.347 182.326 136.075C182.258 135.871 182.258 135.735 182.258 135.599L182.326 135.191L182.326 134.307L182.462 133.763L182.394 133.015L182.462 132.403C182.394 132.267 182.462 132.131 182.462 131.927C182.462 131.587 182.462 131.247 182.53 130.907C182.53 130.023 182.394 129.139 183.006 128.391C183.006 128.391 183.074 128.323 183.006 128.323C183.006 127.575 183.278 126.963 183.55 126.283C183.754 125.875 184.094 125.399 184.366 125.059C184.434 124.855 184.638 124.651 184.842 124.447C184.978 124.175 184.842 124.379 185.182 123.903C185.182 123.903 185.658 123.903 185.93 123.699C186.678 123.223 184.026 122.407 183.21 122.815Z" fill="#FCAC23"/>
</svg>
