<svg width="164" height="32" viewBox="0 0 164 32" fill="none" xmlns="http://www.w3.org/2000/svg">
<path d="M8.53275 16.28C7.76475 17.288 7.04475 18.296 6.27675 19.256C5.55675 20.312 4.83675 21.368 4.06875 22.376C3.68475 22.904 3.30075 23.384 2.82075 23.816C2.53275 24.056 2.34075 24.152 2.14875 24.152C1.62075 24.152 1.47675 23.288 1.38075 22.616C1.33275 22.232 1.33275 21.992 1.33275 21.752C1.33275 20.696 1.57275 19.64 1.66875 18.584C1.81275 17.048 2.14875 15.56 2.58075 14.072C3.10875 12.248 3.87675 10.424 4.59675 8.6C5.31675 6.776 6.03675 4.952 6.85275 3.176C6.90075 3.128 6.90075 3.032 6.90075 2.984C6.90075 2.696 6.66075 2.456 6.42075 2.456C6.27675 2.456 6.13275 2.552 6.08475 2.696C4.45275 6.152 3.10875 9.752 1.86075 13.352C1.04475 15.848 0.61275 18.584 0.46875 21.176V21.656C0.46875 22.568 0.56475 23.528 0.94875 24.392C1.14075 24.872 1.66875 25.208 2.14875 25.208C2.34075 25.208 2.53275 25.16 2.72475 25.016C4.69275 23.672 5.89275 21.32 7.28475 19.448L7.81275 18.776C7.42875 20.12 7.09275 21.464 6.80475 22.808C6.46875 24.152 6.18075 25.688 6.18075 27.176C6.18075 28.136 6.32475 29.096 6.66075 29.96C7.04475 30.872 7.90875 31.592 8.86875 31.592C9.15675 31.592 9.39675 31.544 9.68475 31.4C11.2208 30.728 12.1808 29.144 13.0448 27.656C13.0928 27.56 13.1407 27.512 13.1888 27.416L13.2848 27.272L13.5728 26.744C13.6208 26.696 13.6208 26.6 13.6208 26.552C13.6208 26.312 13.3328 26.12 13.0928 26.12C12.9488 26.12 12.8528 26.168 12.7568 26.312L12.6128 26.552C11.9408 27.752 10.3088 30.68 8.82075 30.68C8.38875 30.68 7.95675 30.44 7.57275 29.768C7.18875 29.096 7.09275 28.136 7.09275 27.224C7.09275 26.648 7.14075 26.072 7.18875 25.544C7.57275 22.568 8.43675 19.592 9.34875 16.712L12.4688 12.632C13.9568 10.712 15.5888 8.6 16.3088 6.248C16.4048 6.008 16.4528 5.72 16.4528 5.384C16.4528 4.952 16.3088 4.472 15.9248 4.28C15.6368 4.136 15.3488 4.04 15.0608 4.04C14.6288 4.04 14.2448 4.232 13.8608 4.616C12.6128 5.816 11.7968 7.592 11.0768 9.224C10.5008 10.52 10.0208 11.912 9.54075 13.256L8.53275 16.28ZM12.8047 7.736C13.0928 7.16 13.4288 6.632 13.8128 6.104C14.0048 5.816 14.2448 5.528 14.4848 5.24C14.6768 5.048 14.8688 4.952 15.0128 4.952C15.3008 4.952 15.4928 5.24 15.4928 5.576V5.768C15.3008 6.92 14.5807 7.976 13.9568 8.984C13.2848 10.136 12.3728 11.24 11.5568 12.296L11.4608 12.44C11.0768 13.016 10.6448 13.544 10.2128 14.12C10.6448 12.728 11.1728 11.384 11.7008 10.04C12.0368 9.224 12.4208 8.456 12.8047 7.736ZM27.6716 14.984L22.1996 18.968C22.1996 18.968 20.6156 19.928 20.0396 19.88C19.9916 19.88 19.9436 19.832 19.9436 19.784V19.592C19.9436 18.872 20.3276 17.96 20.6636 17.192C20.6636 17.144 20.7116 17.144 20.7116 17.096C20.7596 17 20.7596 16.904 20.8076 16.856C20.9996 16.328 21.2876 15.8 21.2876 15.272C21.2876 15.128 21.2396 14.984 21.1916 14.792C21.0956 14.456 20.8076 14.36 20.5196 14.36C20.2796 14.36 20.0396 14.408 19.8476 14.504C18.8396 14.888 18.0716 15.56 17.3996 16.28C17.4956 16.04 17.7356 15.416 17.7836 15.176C17.7836 14.792 17.7836 14.648 17.5436 14.648C17.3516 14.648 17.1596 14.696 17.0156 14.984C16.5836 15.848 16.0076 17.144 15.8156 18.104C15.8156 18.392 16.0076 18.728 16.2956 18.728C16.3916 18.728 16.4876 18.68 16.5836 18.584C17.2556 17.816 17.8316 17.048 18.5516 16.328C18.8876 16.04 19.3196 15.8 19.7036 15.56C19.8956 15.512 20.0876 15.368 20.2316 15.368C20.2796 15.368 20.3276 15.416 20.3276 15.512C19.9916 16.808 18.9836 18.248 18.9836 19.544C18.9836 19.784 19.0316 20.024 19.1276 20.264C19.2716 20.696 19.5596 20.84 19.8956 20.84C21.8636 20.84 26.3276 17.096 28.1516 15.752C28.2956 15.656 28.3436 15.56 28.3436 15.416C28.3436 15.176 28.1996 14.936 27.9116 14.936C27.8636 14.936 27.7676 14.936 27.6716 14.984ZM33.9922 24.824C33.2243 25.592 32.0723 26.648 30.9683 26.648C30.5843 26.648 30.1523 26.504 29.7683 26.168C28.3763 24.968 28.0883 22.712 27.9923 21.032V20.216C27.9923 18.392 28.2323 16.472 28.5683 14.648C29.1443 13.688 29.7203 12.728 30.3443 11.816C31.8803 11.192 33.3683 10.472 34.8563 9.8L35.0963 9.656C36.7283 8.888 38.4563 8.12 40.2323 7.688C40.9523 7.496 41.8643 7.304 42.7763 7.304C43.7843 7.304 44.6963 7.544 45.1763 8.504C45.2723 8.648 45.3683 8.744 45.5123 8.744C45.7523 8.744 45.9923 8.504 45.9923 8.216C45.9923 8.168 45.9923 8.072 45.9443 8.024C45.3203 6.728 44.1683 6.296 42.7763 6.296C40.7123 6.296 38.2163 7.304 36.8243 7.928C34.9523 8.744 33.0803 9.608 31.2083 10.472C31.6403 9.704 32.0723 8.984 32.4563 8.216C33.4163 6.2 34.3283 3.944 34.5683 1.688C34.5683 0.919998 34.2803 0.344 33.6083 0.247998H33.4163C32.7443 0.247998 32.1203 0.919998 31.7363 1.448C30.3443 3.512 29.7203 5.768 29.1443 8.168C28.8563 9.272 28.6163 10.376 28.3763 11.48C27.3682 11.768 26.3602 12.008 25.3042 12.104C25.0162 12.152 24.8722 12.392 24.8722 12.632C24.8722 12.824 24.9682 13.016 25.2082 13.016C26.2642 12.92 27.2242 12.776 28.1363 12.536L27.8003 14.168C27.7523 14.36 27.7043 14.408 27.7043 14.6L27.4642 16.184C27.2722 17.528 27.0802 18.872 27.0802 20.216C27.0802 20.984 27.1282 21.752 27.2722 22.52C27.5122 24.2 28.1843 26.6 29.9123 27.32C30.2483 27.464 30.5843 27.512 30.9203 27.512C32.3123 27.512 33.6562 26.408 34.6163 25.448C34.7122 25.352 34.7603 25.256 34.7603 25.16C34.7603 24.92 34.5203 24.68 34.2803 24.68C34.1843 24.68 34.0883 24.728 33.9922 24.824ZM29.7683 9.416C30.2003 7.544 30.5363 5.624 31.4003 3.944C31.7843 3.128 32.2643 2.264 32.7923 1.592C33.0323 1.304 33.1763 1.208 33.3203 1.208C33.5123 1.208 33.6083 1.448 33.6083 1.832V2.072C33.5603 2.504 33.4643 2.936 33.3203 3.32C32.6963 5.384 31.9283 7.304 30.9683 9.176C30.6323 9.8 30.2483 10.424 29.8643 11L29.3363 11.192L29.7683 9.416ZM46.1134 14.984C44.6734 16.04 42.8014 17.288 40.9294 17.288C40.5934 17.288 40.3054 17.096 40.1134 16.856C40.1614 16.76 40.2094 16.664 40.2094 16.568C40.5454 15.896 41.0254 15.128 41.0254 14.36C41.0734 13.784 40.8814 13.256 40.3054 13.016C39.9214 12.92 39.2014 12.776 38.8654 13.016C38.6254 13.16 38.4814 13.352 38.3854 13.64C38.3374 13.64 38.2894 13.688 38.2414 13.688C37.6654 13.784 37.1374 14.264 36.8014 14.696C36.1774 15.512 35.8894 16.472 35.8894 17.48C35.8894 17.816 35.9374 18.152 35.9854 18.488C36.1294 19.208 36.8014 19.688 37.4734 19.688C37.9054 19.688 38.3374 19.496 38.6734 19.112C39.0574 18.68 39.3934 18.2 39.6814 17.672C40.1134 18.056 40.6414 18.2 41.2174 18.2C43.0414 18.2 45.3934 16.616 46.5934 15.752C46.7374 15.656 46.7854 15.512 46.7854 15.368C46.7854 15.128 46.5934 14.888 46.3534 14.888C46.2574 14.888 46.2094 14.936 46.1134 14.984ZM39.5374 15.656C39.3934 15.32 39.3454 14.984 39.3454 14.648C39.5854 14.744 39.8254 14.84 40.0654 14.888C39.9694 15.224 39.7774 15.608 39.6334 15.896C39.5854 15.848 39.5374 15.752 39.5374 15.656ZM37.9054 18.584C37.7134 18.728 37.5694 18.776 37.4254 18.776C37.0414 18.776 36.8494 18.296 36.7534 17.816C36.7534 17.72 36.7054 17.576 36.7054 17.48C36.7054 16.808 37.0414 16.04 37.3294 15.512C37.5694 15.128 37.8574 14.84 38.2414 14.648C38.2894 14.6 38.3374 14.6 38.3374 14.6C38.4334 15.416 38.8174 16.328 39.0094 16.76C39.0094 16.808 39.0574 16.856 39.0574 16.904C38.8174 17.528 38.4334 18.2 37.9054 18.584ZM54.525 27.8C53.757 28.664 52.989 29.528 51.741 29.576C50.877 29.576 50.301 28.664 49.917 27.992C48.957 26.216 48.621 24.056 48.429 22.088C48.381 21.512 48.333 20.936 48.333 20.36C48.333 18.536 48.621 16.76 49.005 14.936L49.293 13.496C50.013 12.872 50.637 12.152 51.309 11.432C52.509 10.136 53.709 8.744 54.765 7.256C55.485 6.296 55.965 5.192 56.301 4.04C56.301 3.992 56.349 3.944 56.349 3.848C56.445 3.464 56.589 2.984 56.589 2.552C56.589 2.168 56.493 1.832 56.157 1.64C56.013 1.544 55.821 1.496 55.629 1.496C55.053 1.496 54.477 1.928 54.045 2.264L53.949 2.36C53.037 3.032 52.461 4.04 51.837 4.952C50.349 7.16 49.485 9.512 48.813 12.104L48.525 13.064C47.757 13.736 46.989 14.408 46.125 14.984C45.981 15.08 45.933 15.224 45.933 15.368C45.933 15.608 46.077 15.848 46.317 15.848C46.413 15.848 46.509 15.8 46.605 15.752C47.133 15.368 47.661 14.984 48.141 14.552C47.709 16.424 47.421 18.296 47.421 20.168C47.469 22.616 47.805 25.112 48.669 27.368C49.197 28.808 50.061 30.344 51.741 30.488C53.229 30.488 54.381 29.336 55.149 28.424C55.245 28.328 55.293 28.232 55.293 28.136C55.293 27.896 55.053 27.656 54.813 27.656C54.717 27.656 54.621 27.704 54.525 27.8ZM55.197 2.6C55.341 2.504 55.437 2.504 55.485 2.504C55.629 2.504 55.677 2.648 55.677 2.792C55.677 2.984 55.629 3.176 55.581 3.224C55.485 3.704 55.293 4.232 55.149 4.664C54.717 5.912 53.901 6.968 53.085 7.976C52.029 9.272 50.925 10.616 49.725 11.864C50.061 10.568 50.493 9.272 51.069 8.072C51.933 6.2 53.133 4.184 54.717 2.888L55.197 2.6ZM70.1411 15.608C67.5971 17.72 64.9571 19.88 62.0291 21.416C61.3571 21.752 60.6851 22.04 59.9651 22.232C59.7731 22.28 59.5811 22.28 59.4371 22.28C58.9571 22.28 58.7171 22.04 58.5731 21.464C58.5251 21.176 58.4771 20.936 58.4771 20.648C58.4771 19.784 58.7171 18.872 58.9571 18.056C58.9571 18.008 59.0051 17.912 59.0051 17.864L59.1011 17.528C59.9171 16.76 60.6851 15.944 61.4051 15.08C62.6531 13.592 63.8051 11.96 64.8131 10.28C65.4851 9.224 66.3011 7.784 66.3011 6.488C66.2531 5.528 65.6771 5.192 65.0051 5.192C64.5731 5.192 64.1411 5.336 63.7571 5.576C62.1251 6.632 61.2611 8.792 60.3971 10.472C59.4371 12.44 58.9091 14.504 58.3811 16.568L58.2371 17.096L57.8051 17.48C57.2771 17.96 56.6051 18.296 56.0771 18.776C55.9331 18.92 55.4531 19.16 55.1171 19.16C54.9731 19.16 54.8771 19.112 54.7811 18.968C54.6851 18.872 54.6851 18.68 54.6851 18.536V18.248C54.8291 16.616 55.9811 15.032 57.6131 15.032C57.7571 15.032 57.9491 15.032 58.0931 15.08C58.4771 15.08 58.6691 14.792 58.6691 14.552C58.6691 14.36 58.5731 14.216 58.3331 14.168C58.1411 14.12 57.9971 14.12 57.8051 14.12C55.5971 14.12 53.7731 16.184 53.7731 18.392C53.7731 18.584 53.7731 18.728 53.8211 18.92C53.9171 19.688 54.4931 19.976 55.1171 19.976C55.5971 19.976 56.1251 19.832 56.5091 19.544C56.9891 19.256 57.4691 18.92 57.9011 18.536C57.7571 19.16 57.6131 19.928 57.6131 20.696C57.6131 21.992 57.9971 23.192 59.4371 23.192H59.6291C61.4051 23.048 63.1331 21.896 64.5731 20.936L64.9571 20.696C67.2611 19.16 69.4211 17.384 71.5331 15.608C71.6291 15.512 71.6771 15.416 71.6771 15.32C71.6771 15.08 71.4851 14.888 71.1971 14.888C71.1011 14.888 70.9571 14.888 70.8611 14.984L70.1411 15.608ZM62.1731 9.032C62.6531 8.168 63.1811 7.304 63.9011 6.584C64.2371 6.296 64.5731 6.056 64.9571 6.056C65.2451 6.056 65.3891 6.248 65.3891 6.728C65.2451 8.312 63.9971 9.944 63.1811 11.24C62.0771 12.872 60.8771 14.504 59.4851 15.896C59.5811 15.416 59.7251 14.888 59.8691 14.408C60.3971 12.584 61.1651 10.904 62.0771 9.224L62.1731 9.032ZM80.6989 29C82.1869 29 83.3869 28.04 84.3949 27.224L84.4909 27.128L84.7309 26.936C85.6909 26.168 86.4589 25.256 87.1309 24.296C87.4669 23.912 87.7549 23.528 88.0429 23.144C89.0509 23.624 89.9149 24.344 90.7789 25.064C90.8749 25.112 90.9709 25.16 91.0669 25.16C91.3549 25.16 91.5469 24.92 91.5469 24.68C91.5469 24.584 91.4989 24.488 91.4029 24.392C90.5389 23.672 89.6269 22.952 88.6189 22.424C89.0989 21.896 89.5789 21.368 90.0109 20.792C91.6429 18.68 92.9869 16.28 94.1869 13.88C95.2429 11.768 96.3949 9.416 96.5389 7.016V6.536C96.5389 5.816 96.4429 5.048 96.0109 4.52C95.6269 4.04 95.1469 3.896 94.6189 3.896C94.3789 3.896 94.0909 3.944 93.8509 3.992C90.1069 4.712 87.3709 8.312 85.6909 11.48C85.1629 12.536 84.7309 13.544 84.3469 14.6L84.7789 12.008C85.1149 10.04 85.6909 8.072 86.2669 6.152C86.7949 4.52 87.1789 2.456 88.2829 1.112C88.3309 1.016 88.3789 0.919998 88.3789 0.823999C88.3789 0.535997 88.1869 0.295998 87.9469 0.295998C87.8509 0.295998 87.7549 0.391999 87.6589 0.487998C86.6029 1.736 86.2189 3.416 85.6909 4.952C85.0189 7.064 84.4429 9.272 83.9629 11.48C83.1949 15.176 82.8589 18.968 82.6189 22.76C81.7069 23.336 80.9389 24.152 80.3149 25.112C79.9789 25.64 79.5469 26.696 79.5469 27.608C79.5469 28.328 79.8349 28.904 80.6989 29ZM88.2349 9.128C89.6749 7.16 91.6429 5.48 94.0909 4.904C94.2829 4.856 94.4269 4.856 94.5709 4.856C95.3869 4.856 95.6269 5.528 95.6269 6.392C95.6269 8.072 94.6189 10.712 94.3309 11.384C93.2269 13.928 91.8829 16.28 90.4429 18.632C89.7229 19.832 88.8109 20.888 87.8989 21.944L87.8029 22.088C87.1789 21.848 86.5549 21.704 85.8829 21.704C85.6909 21.704 85.4989 21.752 85.3069 21.752C84.7309 21.848 84.1549 21.992 83.6269 22.232C84.1549 17.576 85.4029 12.968 88.2349 9.128ZM80.8909 25.976C81.0829 25.496 81.4189 25.064 81.7549 24.68C81.9949 24.392 82.2349 24.104 82.5229 23.912C82.5229 24.2 82.5229 24.44 82.4749 24.728C82.4749 25.016 82.6669 25.16 82.9069 25.16C83.1469 25.16 83.3389 25.016 83.3869 24.728L83.4829 23.288C84.0109 23.048 84.5869 22.856 85.1629 22.712C85.4509 22.664 85.6909 22.616 85.9789 22.616C86.4109 22.616 86.8429 22.712 87.2269 22.808C86.5549 23.624 85.9309 24.44 85.2109 25.208C84.9229 25.592 82.1869 28.136 80.9869 28.136C80.7949 28.136 80.6029 28.04 80.5069 27.896C80.4109 27.8 80.4109 27.608 80.4109 27.464C80.4109 26.984 80.6989 26.36 80.8909 25.976ZM109.392 14.984C107.088 16.04 104.976 17.336 102.528 18.056C101.712 18.296 100.8 18.584 99.8876 18.584C99.3116 18.584 98.7836 18.44 98.5916 18.008C98.4956 17.816 98.4956 17.576 98.4956 17.336C98.4956 16.664 98.7836 15.992 98.8796 15.32C98.8796 14.984 98.5436 14.744 98.3036 14.744C98.1596 14.744 98.0156 14.84 97.9676 15.08C97.8716 15.848 97.5836 16.616 97.5836 17.384C97.5836 17.672 97.6316 17.96 97.7276 18.248C98.0156 19.16 98.9276 19.4 99.8396 19.4C100.368 19.4 100.848 19.304 101.28 19.256C104.4 18.824 107.088 17.096 109.872 15.752C110.016 15.656 110.064 15.56 110.064 15.416C110.064 15.176 109.92 14.936 109.632 14.936C109.584 14.936 109.488 14.936 109.392 14.984ZM99.4076 12.104C99.5036 12.152 99.5996 12.248 99.7436 12.248C99.9836 12.248 100.176 12.008 100.176 11.768C100.176 11.384 99.9836 11.192 99.7436 11.192H99.4556C99.2156 11.192 99.0236 11.384 99.0236 11.624C99.0236 11.864 99.1676 12.056 99.4076 12.104ZM121.886 14.984C121.07 15.752 115.838 18.968 114.302 18.968C114.014 18.968 113.726 18.824 113.63 18.536C113.63 18.44 113.582 18.392 113.582 18.296C113.582 17.816 113.87 17.144 113.918 16.76C114.062 15.992 114.446 15.272 114.734 14.552C114.878 14.072 115.406 13.256 115.406 12.68C115.406 12.584 115.406 12.536 115.358 12.44C115.31 12.248 115.118 12.056 114.926 12.056C114.83 12.056 114.734 12.104 114.686 12.152C113.486 12.968 112.622 14.6 111.038 14.792H110.846C110.51 14.792 110.414 14.696 110.414 14.504C110.414 14.216 110.798 13.688 110.99 13.496C111.614 12.92 112.478 12.632 113.294 12.584C113.582 12.584 113.726 12.344 113.726 12.104C113.726 11.864 113.582 11.672 113.294 11.672C112.238 11.72 111.182 12.152 110.366 12.872C109.982 13.208 109.406 13.928 109.406 14.552C109.406 14.744 109.454 14.888 109.55 15.032C109.886 15.512 110.366 15.704 110.894 15.704C111.278 15.704 111.662 15.608 111.998 15.464C112.622 15.176 113.102 14.744 113.63 14.36L113.87 14.168C113.534 14.936 113.246 15.752 113.054 16.52C113.054 16.568 113.006 16.616 113.006 16.664C112.91 17.144 112.718 17.72 112.718 18.296C112.718 18.92 112.958 19.496 113.63 19.736C113.822 19.784 114.014 19.832 114.206 19.832C115.022 19.832 116.27 19.208 117.038 18.872C118.814 18.104 121.166 16.76 122.606 15.512C122.702 15.416 122.75 15.32 122.75 15.224C122.75 14.984 122.51 14.744 122.27 14.744C122.174 14.744 122.078 14.792 121.886 14.984ZM133.587 14.984C133.299 15.608 132.387 16.376 131.859 16.904C131.091 17.672 130.227 18.392 129.411 19.112L127.011 21.032C126.627 21.32 126.243 21.512 125.859 21.752C125.379 21.944 124.563 22.376 123.891 22.376C123.699 22.376 123.555 22.328 123.411 22.28C122.835 22.04 122.691 21.416 122.691 20.84C122.691 20.456 122.739 20.072 122.835 19.784C123.219 18.296 124.227 17.048 124.755 15.608C124.803 15.464 124.851 15.32 124.851 15.176C124.851 14.936 124.755 14.696 124.611 14.552C124.419 14.36 124.131 14.216 123.891 14.12L124.275 13.784C124.611 13.448 124.995 12.872 124.995 12.392C124.995 12.2 124.947 12.056 124.851 11.912C124.659 11.624 124.323 11.48 123.987 11.48C123.747 11.48 123.507 11.528 123.315 11.624C122.547 11.96 122.451 12.536 122.355 13.304V13.496C122.355 13.736 122.451 13.976 122.547 14.168C122.307 14.408 122.067 14.696 121.875 14.984C121.779 15.08 121.731 15.176 121.731 15.272C121.731 15.512 121.971 15.752 122.211 15.752C122.307 15.752 122.403 15.704 122.499 15.608L123.219 14.792C123.363 14.84 123.507 14.888 123.651 14.984C123.843 15.08 123.891 15.224 123.891 15.368C123.891 15.608 123.699 15.896 123.603 16.088C123.603 16.136 123.555 16.136 122.739 17.72C122.259 18.728 121.779 19.736 121.779 20.84C121.779 21.08 121.827 21.368 121.875 21.656C122.115 22.856 122.835 23.24 123.699 23.24C125.283 23.24 127.347 21.896 128.355 21.128C129.555 20.168 130.707 19.16 131.859 18.152C132.291 17.768 132.675 17.384 133.059 16.952C133.443 16.52 134.115 15.992 134.355 15.416C134.403 15.368 134.403 15.272 134.403 15.224C134.403 14.984 134.259 14.744 134.019 14.744C133.875 14.744 133.779 14.744 133.587 14.984ZM123.555 12.536C123.651 12.44 123.747 12.392 123.891 12.392C123.939 12.392 124.035 12.392 124.083 12.44C124.035 12.776 123.699 13.112 123.363 13.4C123.315 13.448 123.315 13.448 123.315 13.448C123.267 13.448 123.267 13.16 123.267 13.064C123.267 12.824 123.363 12.632 123.555 12.536ZM144.97 14.984C142.666 16.04 140.554 17.336 138.106 18.056C137.29 18.296 136.378 18.584 135.466 18.584C134.89 18.584 134.362 18.44 134.17 18.008C134.074 17.816 134.074 17.576 134.074 17.336C134.074 16.664 134.362 15.992 134.458 15.32C134.458 14.984 134.122 14.744 133.882 14.744C133.738 14.744 133.594 14.84 133.546 15.08C133.45 15.848 133.162 16.616 133.162 17.384C133.162 17.672 133.21 17.96 133.306 18.248C133.594 19.16 134.506 19.4 135.418 19.4C135.946 19.4 136.426 19.304 136.858 19.256C139.978 18.824 142.666 17.096 145.45 15.752C145.594 15.656 145.642 15.56 145.642 15.416C145.642 15.176 145.498 14.936 145.21 14.936C145.162 14.936 145.066 14.936 144.97 14.984ZM134.986 12.104C135.082 12.152 135.178 12.248 135.322 12.248C135.562 12.248 135.754 12.008 135.754 11.768C135.754 11.384 135.562 11.192 135.322 11.192H135.034C134.794 11.192 134.602 11.384 134.602 11.624C134.602 11.864 134.746 12.056 134.986 12.104ZM157.752 14.984C156.312 16.04 153.192 17.048 151.464 17.624C150.84 17.816 150.168 17.96 149.496 17.96C148.92 17.96 148.344 17.864 147.816 17.624C147.096 17.336 146.904 16.664 146.904 15.944C146.904 15.464 147 15.032 147.096 14.6C147.912 14.024 148.728 13.448 149.448 12.824C149.832 12.488 150.168 12.056 150.168 11.528C150.168 11 150.024 10.328 149.304 10.232H149.16C147.864 10.232 147.144 11.432 146.712 12.584C146.568 13.016 146.376 13.544 146.232 14.072C145.896 14.36 145.368 14.744 144.984 14.984C144.84 15.08 144.792 15.224 144.792 15.368C144.792 15.608 144.984 15.848 145.224 15.848C145.32 15.848 145.368 15.8 145.464 15.752L146.04 15.32C145.992 15.56 145.992 15.8 145.992 15.992C145.992 16.472 146.088 16.952 146.28 17.336C146.808 18.488 148.2 18.872 149.448 18.872H149.688C152.232 18.824 156.216 17.24 158.184 15.8C158.328 15.704 158.376 15.56 158.376 15.416C158.376 15.176 158.184 14.888 157.944 14.888C157.896 14.888 157.8 14.936 157.752 14.984ZM149.112 11.144C149.256 11.144 149.208 11.192 149.256 11.432C149.256 11.48 149.304 11.576 149.304 11.576C149.256 11.864 148.776 12.2 148.536 12.392C148.2 12.728 147.816 12.968 147.432 13.256C147.72 12.344 148.152 11.24 148.92 11.144H149.112ZM161.862 13.256C161.814 13.016 161.814 12.824 161.814 12.584C162.102 12.344 162.342 12.056 162.582 11.816C162.966 11.432 163.158 10.904 163.158 10.424C163.158 10.136 163.11 9.848 162.966 9.56C162.774 9.176 162.534 8.984 162.246 8.984C161.814 8.984 161.334 9.416 161.142 9.896C160.902 10.424 160.854 11.096 160.854 11.72V12.248C160.614 12.488 160.326 12.68 160.086 12.872L157.734 14.984C157.638 15.08 157.638 15.176 157.638 15.272C157.638 15.512 157.878 15.704 158.118 15.704C158.214 15.704 158.31 15.704 158.406 15.608C159.222 14.84 160.086 14.12 160.95 13.352C160.998 13.592 161.046 13.784 161.046 13.976C161.334 15.704 161.958 17.384 161.958 19.112V19.448C161.862 20.936 161.142 23.48 159.51 24.056C159.414 24.104 159.318 24.104 159.222 24.104C158.55 24.104 158.022 23.192 157.83 22.616C157.782 22.424 157.734 22.184 157.734 21.944C157.734 21.128 158.07 20.216 158.694 19.832C158.838 19.736 158.934 19.592 158.934 19.448C158.934 19.208 158.742 19.016 158.502 19.016C158.454 19.016 158.358 19.016 158.262 19.064C157.35 19.544 156.822 20.888 156.822 21.944C156.822 22.136 156.822 22.328 156.87 22.472C157.11 23.528 157.734 24.584 158.838 24.92C158.982 24.968 159.174 25.016 159.318 25.016C160.326 25.016 161.19 24.056 161.67 23.288C162.438 22.04 162.87 20.408 162.87 18.92V18.488C162.726 16.712 162.102 15.032 161.862 13.256ZM162.198 9.992C162.294 10.088 162.294 10.232 162.294 10.328C162.294 10.568 162.15 10.856 162.054 11.096L161.814 11.384C161.814 11.24 161.862 11.144 161.862 11C161.862 11.048 162.006 9.992 162.198 9.992Z" fill="#333333"/>
</svg>
